<svg width="320" height="71" viewBox="0 0 320 71" fill="none" xmlns="http://www.w3.org/2000/svg">
<g opacity="0.5">
<path d="M7.64555 61.9189V63.1153C7.59587 63.1203 7.33566 63.1425 6.8105 63.1425C6.37287 63.1425 6.05825 63.1227 5.94707 63.1153V61.9164C4.26041 61.9931 3.00192 62.302 3.00192 62.6679C3.00192 63.0362 4.26041 63.3427 5.94707 63.4194C6.05588 63.4243 6.36341 63.4391 6.80104 63.4391C7.34985 63.4391 7.59587 63.4243 7.64318 63.4194C9.32511 63.3403 10.5812 63.0337 10.5812 62.6679C10.5836 62.302 9.32747 61.9955 7.64555 61.9189Z" fill="#D9D9D9"/>
<path d="M6.90748 55.5364C3.09181 55.5364 0 58.7672 0 62.7544C0 66.7416 3.09181 69.9725 6.90748 69.9725C10.7232 69.9725 13.815 66.7416 13.815 62.7544C13.815 58.7672 10.7232 55.5364 6.90748 55.5364ZM7.64554 63.7135V67.152H5.94706V63.7135C4.03804 63.6196 2.60213 63.2266 2.60213 62.7519C2.60213 62.2773 4.03804 61.8843 5.94706 61.7928V60.72H3.59804V59.0861H9.99219V60.72H7.64317V61.7928C9.54983 61.8843 10.981 62.2798 10.981 62.7519C10.9834 63.229 9.55219 63.6221 7.64554 63.7135Z" fill="#D9D9D9"/>
<path d="M19.5042 59.6917V61.4838H21.1151V62.8286H19.4923V65.5551C19.4923 66.1582 19.7999 66.4499 20.2493 66.4499C20.474 66.4499 20.7343 66.3733 20.9472 66.2571L21.3493 67.587C20.9353 67.765 20.5923 67.8416 20.1547 67.8565C18.8891 67.9084 18.0588 67.1272 18.0588 65.5526V62.8261H16.9706V61.4814H18.0588V59.8573L19.5042 59.6917ZM47.2713 61.3998L47.3777 62.129C47.8272 61.3479 48.4328 61.2342 49.0242 61.2342C49.6274 61.2342 50.207 61.4888 50.5263 61.8348L49.8758 63.1919C49.5801 62.9225 49.308 62.7816 48.8349 62.7816C48.0779 62.7816 47.3777 63.2166 47.3777 64.3809V67.7082H45.9324V61.3973L47.2713 61.3998ZM43.7324 63.8198C43.6378 63.0016 43.0464 62.5913 42.216 62.5913C41.4354 62.5913 40.7943 63.0016 40.5814 63.8198H43.7324ZM40.5578 65.1101C40.6524 65.8913 41.2793 66.4549 42.2988 66.4549C42.8311 66.4549 43.5289 66.2374 43.8625 65.8666L44.7851 66.8529C44.17 67.5425 43.1623 67.8762 42.2752 67.8762C40.2621 67.8762 39.0651 66.5315 39.0651 64.5095C39.0651 62.5888 40.2739 61.207 42.1687 61.207C44.1227 61.207 45.3433 62.5121 45.1162 65.1101H40.5578ZM34.1897 58.7499V62.2551C34.7101 61.5258 35.3488 61.3083 36.0135 61.3083C37.6718 61.3083 38.4051 62.5245 38.4051 64.3809V67.7082H36.9597V64.3933C36.9597 63.2414 36.4038 62.7544 35.6327 62.7544C34.7787 62.7544 34.1873 63.5355 34.1873 64.4823V67.7082H32.7443V58.7523L34.1897 58.7499ZM30.3551 59.62V61.4121H31.966V62.7569H30.3432V65.4834C30.3432 66.0866 30.6508 66.3783 31.1002 66.3783C31.3249 66.3783 31.5852 66.3016 31.7981 66.1854L32.2002 67.5153C31.7862 67.6933 31.4432 67.7699 31.0056 67.7848C29.74 67.8367 28.9097 67.0556 28.9097 65.4809V62.7544H27.8215V61.4097H28.9097V59.7856L30.3551 59.62ZM26.3643 63.8198C26.2697 63.0016 25.6783 62.5913 24.848 62.5913C24.0674 62.5913 23.4263 63.0016 23.2134 63.8198H26.3643ZM23.1921 65.1101C23.2867 65.8913 23.9136 66.4549 24.9332 66.4549C25.4654 66.4549 26.1633 66.2374 26.4968 65.8666L27.4194 66.8529C26.8043 67.5425 25.7966 67.8762 24.9095 67.8762C22.8964 67.8762 21.6994 66.5315 21.6994 64.5095C21.6994 62.5888 22.9082 61.207 24.8007 61.207C26.7546 61.207 27.9729 62.5121 27.7482 65.1101H23.1921Z" fill="#D9D9D9"/>
<path d="M81.6145 62.7061C81.5847 63.2234 81.9799 63.6653 82.4997 63.6949H82.5511C83.0709 63.6949 83.4905 63.2746 83.4905 62.7599C83.4905 62.2426 83.0682 61.825 82.5511 61.825C82.053 61.825 81.6415 62.213 81.6145 62.7061Z" fill="#D9D9D9"/>
<path d="M78.1142 62.469C77.9464 62.4609 77.8029 62.5875 77.7948 62.7546C77.7867 62.9216 77.9139 63.0644 78.0817 63.0725C78.2496 63.0806 78.3931 62.954 78.4012 62.7896C78.4093 62.6198 78.2821 62.4797 78.1142 62.469Z" fill="#D9D9D9"/>
<path d="M81.5549 57.2795C81.7038 57.2041 81.7633 57.0208 81.6875 56.8726C81.6117 56.7245 81.4277 56.6652 81.2788 56.7406C81.1299 56.8161 81.0703 56.9966 81.1461 57.1448C81.2219 57.2957 81.4033 57.3549 81.5549 57.2795Z" fill="#D9D9D9"/>
<path d="M82.5105 58.9339C82.7406 58.818 82.8353 58.5378 82.7189 58.3061C82.6025 58.077 82.321 57.9827 82.0882 58.0986C81.8581 58.2145 81.7633 58.4947 81.8798 58.7264C81.9962 58.9581 82.2777 59.0497 82.5105 58.9339Z" fill="#D9D9D9"/>
<path d="M79.3026 60.0709C79.4813 60.1868 79.7195 60.1383 79.8386 59.9604C79.955 59.7826 79.9063 59.5455 79.7276 59.427C79.5489 59.3111 79.3107 59.3596 79.1916 59.5374C79.0752 59.7153 79.1239 59.9551 79.3026 60.0709Z" fill="#D9D9D9"/>
<path d="M79.8738 62.2992C79.6139 62.2857 79.3947 62.4824 79.3784 62.7383C79.3649 62.997 79.5625 63.2153 79.8197 63.2314C80.0768 63.2449 80.2988 63.0482 80.3151 62.7922C80.3286 62.5336 80.131 62.3126 79.8738 62.2992Z" fill="#D9D9D9"/>
<path d="M79.354 65.4382C79.1646 65.5352 79.086 65.7642 79.1835 65.9555C79.281 66.1441 79.5111 66.2223 79.7033 66.1253C79.8928 66.0283 79.9713 65.7992 79.8738 65.6079C79.7763 65.4193 79.5435 65.3412 79.354 65.4382Z" fill="#D9D9D9"/>
<path d="M81.1759 61.3346C81.4304 61.5017 81.7742 61.4289 81.9393 61.1757C82.1071 60.9224 82.0341 60.5802 81.7796 60.4158C81.5251 60.2488 81.1813 60.3215 81.0162 60.5748C80.8511 60.8254 80.9214 61.1649 81.1759 61.3346C81.1759 61.3319 81.1759 61.3319 81.1759 61.3346Z" fill="#D9D9D9"/>
<path d="M86.9636 58.8961C87.1802 59.0363 87.4725 58.977 87.6133 58.7587C87.7541 58.5432 87.6945 58.2522 87.4753 58.1121C87.2587 57.972 86.9663 58.0312 86.8256 58.2468C86.6848 58.465 86.7443 58.756 86.9636 58.8961C86.9609 58.8961 86.9609 58.8961 86.9636 58.8961Z" fill="#D9D9D9"/>
<path d="M87.9246 57.2472C88.0654 57.3388 88.2522 57.3011 88.3442 57.161C88.4363 57.0209 88.3984 56.8349 88.2576 56.7433C88.1168 56.6517 87.93 56.6894 87.838 56.8296C87.746 56.9697 87.7866 57.1556 87.9246 57.2472Z" fill="#D9D9D9"/>
<path d="M87.0367 61.8169C86.5197 61.7873 86.0757 62.1806 86.0459 62.698C86.0161 63.2126 86.4114 63.6545 86.9311 63.6841C86.9501 63.6841 86.9663 63.6841 86.9853 63.6841C87.505 63.6841 87.9246 63.2638 87.9246 62.7492C87.9246 62.5201 87.8407 62.2992 87.6864 62.1268C87.5186 61.9408 87.2858 61.8277 87.0367 61.8169Z" fill="#D9D9D9"/>
<path d="M82.8191 61.2673C82.9788 61.5825 83.3036 61.7819 83.6583 61.7819C84.178 61.7819 84.5976 61.3643 84.5976 60.8469C84.5976 60.6987 84.5624 60.5559 84.4975 60.4239C84.3377 60.1087 84.0129 59.912 83.6583 59.912C83.1385 59.912 82.7189 60.3323 82.7189 60.8496C82.7189 60.9951 82.7514 61.1379 82.8191 61.2673Z" fill="#D9D9D9"/>
<path d="M90.1823 60.0709C90.3718 59.9739 90.4503 59.7449 90.3528 59.5536C90.2554 59.365 90.0253 59.2868 89.8331 59.3838C89.6436 59.4781 89.5651 59.7098 89.6625 59.9011C89.76 60.0897 89.9928 60.1652 90.1823 60.0709Z" fill="#D9D9D9"/>
<path d="M87.8 60.3673C87.5266 60.5047 87.4183 60.8334 87.5564 61.1056C87.6945 61.3777 88.0247 61.4855 88.2981 61.3481C88.5715 61.2107 88.6798 60.8819 88.5418 60.6098C88.4064 60.3404 88.0734 60.2326 87.8 60.3673C87.8027 60.3673 87.8027 60.3673 87.8 60.3673Z" fill="#D9D9D9"/>
<path d="M84.733 57.1071C84.9468 57.1178 85.1282 56.9562 85.1417 56.746C85.1526 56.5332 84.9901 56.3526 84.779 56.3392C84.5678 56.3257 84.3838 56.49 84.3702 56.7002C84.3567 56.9131 84.5191 57.0936 84.733 57.1071Z" fill="#D9D9D9"/>
<path d="M84.7275 59.5267C85.0334 59.5428 85.2933 59.3111 85.3096 59.0093C85.3258 58.7049 85.093 58.4462 84.7898 58.43C84.4866 58.4139 84.224 58.6456 84.2078 58.9474C84.1915 59.2518 84.4244 59.5105 84.7275 59.5267Z" fill="#D9D9D9"/>
<path d="M81.7363 65.1391C82.0097 65.0017 82.118 64.673 81.9799 64.4008C81.8418 64.1287 81.5116 64.0209 81.2382 64.1583C80.9648 64.2958 80.8565 64.6245 80.9945 64.8966C81.1326 65.1661 81.4629 65.2765 81.7363 65.1391Z" fill="#D9D9D9"/>
<path d="M85.0849 60.3296C84.8006 60.7607 84.9225 61.34 85.3556 61.6229C85.7887 61.9058 86.3707 61.7845 86.655 61.3534C86.9392 60.9223 86.8174 60.343 86.3843 60.0601C86.2327 59.9604 86.054 59.9065 85.8699 59.9065C85.5559 59.9065 85.2581 60.0655 85.0849 60.3296Z" fill="#D9D9D9"/>
<path d="M86.7199 64.2392C86.4871 63.7784 85.9213 63.5925 85.4584 63.8242C84.9955 64.0559 84.8087 64.6191 85.0415 65.0798C85.2013 65.3951 85.5261 65.5945 85.8807 65.5945C86.0269 65.5945 86.1731 65.5594 86.303 65.4921C86.7659 65.2604 86.95 64.6999 86.7199 64.2392Z" fill="#D9D9D9"/>
<path d="M88.3604 64.1745C88.106 64.0074 87.7622 64.0775 87.5943 64.3334C87.4265 64.5867 87.4969 64.9289 87.7541 65.096C88.0085 65.263 88.3523 65.193 88.5202 64.937C88.6853 64.681 88.6149 64.3415 88.3604 64.1745Z" fill="#D9D9D9"/>
<path d="M90.1579 62.7707C90.1715 62.5121 89.9739 62.2938 89.7167 62.2777C89.4595 62.2615 89.2375 62.4609 89.2213 62.7169C89.2078 62.9728 89.4054 63.1938 89.6626 63.2099C89.9224 63.2234 90.1444 63.0267 90.1579 62.7707Z" fill="#D9D9D9"/>
<path d="M91.4573 62.4366C91.2895 62.4258 91.146 62.5552 91.1352 62.7222C91.1244 62.8893 91.2543 63.0321 91.4221 63.0428C91.59 63.0536 91.7334 62.9243 91.7443 62.7572C91.7551 62.5902 91.6252 62.4474 91.4573 62.4366Z" fill="#D9D9D9"/>
<path d="M90.2337 65.4355C90.055 65.3196 89.8168 65.3681 89.6977 65.5459C89.5786 65.7238 89.63 65.9609 89.8087 66.0794C89.9874 66.1953 90.2256 66.1468 90.3447 65.969C90.4638 65.7911 90.4124 65.554 90.2337 65.4355Z" fill="#D9D9D9"/>
<path d="M81.6117 68.2592C81.471 68.1676 81.2842 68.2053 81.1921 68.3454C81.1001 68.4856 81.138 68.6715 81.2788 68.7631C81.4195 68.8547 81.6063 68.817 81.6983 68.6769C81.7904 68.5394 81.7525 68.3508 81.6117 68.2592Z" fill="#D9D9D9"/>
<path d="M87.9815 68.2296C87.8326 68.305 87.7703 68.4856 87.8461 68.6365C87.9219 68.7846 88.1033 68.8466 88.2549 68.7712C88.4038 68.6957 88.466 68.5152 88.3902 68.3643C88.3145 68.2134 88.1304 68.1542 87.9815 68.2296C87.9815 68.2269 87.9815 68.2269 87.9815 68.2296Z" fill="#D9D9D9"/>
<path d="M84.4515 65.1768C84.7357 64.7457 84.6139 64.1664 84.1808 63.8835C83.7476 63.6006 83.1656 63.7219 82.8814 64.153C82.5971 64.5841 82.7189 65.1634 83.1521 65.4463C83.3037 65.546 83.4823 65.5999 83.6664 65.5999C83.9831 65.5999 84.2782 65.4409 84.4515 65.1768Z" fill="#D9D9D9"/>
<path d="M82.5728 66.6103C82.3562 66.4702 82.0638 66.5294 81.9231 66.745C81.7823 66.9605 81.8419 67.2515 82.0584 67.3916C82.275 67.5318 82.5646 67.4725 82.7081 67.2569C82.8516 67.0414 82.792 66.7531 82.5728 66.6103Z" fill="#D9D9D9"/>
<path d="M84.7655 68.402C84.5516 68.3913 84.3702 68.5529 84.3567 68.7631C84.3459 68.976 84.5083 69.1565 84.7194 69.17C84.9333 69.1807 85.1147 69.0191 85.1282 68.8089C85.139 68.596 84.9766 68.4128 84.7655 68.402Z" fill="#D9D9D9"/>
<path d="M84.7682 65.9797C84.465 65.9609 84.2024 66.1926 84.1835 66.4944C84.1645 66.7962 84.3973 67.0575 84.7005 67.0764C85.0037 67.0952 85.2663 66.8635 85.2852 66.5617V66.559C85.3042 66.2573 85.0714 65.9986 84.7682 65.9797Z" fill="#D9D9D9"/>
<path d="M87.0286 66.5752C86.7985 66.6911 86.7037 66.974 86.8229 67.203C86.9393 67.432 87.2235 67.5263 87.4536 67.4078C87.6837 67.2919 87.7784 67.009 87.6593 66.78C87.5402 66.5483 87.2587 66.4567 87.0286 66.5752Z" fill="#D9D9D9"/>
<path d="M97.3939 60.5451C98.3035 60.5451 98.9396 61.0436 98.9396 61.9678H100.131C100.131 60.3484 98.9288 59.5671 97.375 59.5671C95.4638 59.5671 94.3539 60.599 94.3539 62.7815C94.3539 65.0178 95.4638 65.9959 97.375 65.9959C98.9478 65.9959 100.131 65.2361 100.131 63.6141H98.9857C98.9857 64.5194 98.3576 65.0179 97.3939 65.0179C96.1297 65.0179 95.545 64.32 95.545 62.8731V62.6926C95.5477 61.2699 96.1378 60.5451 97.3939 60.5451Z" fill="#D9D9D9"/>
<path d="M103.282 59.6748L100.851 65.8881H102.053L102.554 64.5382H105.407L105.921 65.8881H107.177L104.746 59.6775H103.282V59.6748ZM102.916 63.5575L103.552 61.8546C103.68 61.5205 103.907 60.7957 103.953 60.6691H103.999C104.045 60.7957 104.273 61.5286 104.4 61.8546L105.036 63.5575H102.916Z" fill="#D9D9D9"/>
<path d="M113.671 61.5582C113.671 60.4077 113.008 59.6748 111.633 59.6748H108.339V65.8855H109.503V63.4847H111.441L112.621 65.8855H113.893L112.559 63.3042C113.298 63.0159 113.671 62.4016 113.671 61.5582ZM111.541 62.5094H109.503V60.6637H111.541C112.169 60.6637 112.497 60.9978 112.497 61.5609C112.497 62.1483 112.142 62.5094 111.541 62.5094Z" fill="#D9D9D9"/>
<path d="M117.756 59.6748H115.263V65.8855H117.756C119.638 65.8855 120.786 64.9074 120.786 62.7788C120.786 60.6502 119.638 59.6748 117.756 59.6748ZM119.594 62.8704C119.586 64.2284 118.939 64.8993 117.756 64.8993H116.427V60.661H117.756C118.937 60.661 119.594 61.3319 119.594 62.6899V62.8704Z" fill="#D9D9D9"/>
<path d="M123.834 59.6748L121.403 65.8855H122.605L123.106 64.5355H125.962L126.47 65.8855H127.727L125.298 59.6748H123.834ZM123.471 63.5575L124.107 61.8546C124.234 61.5205 124.462 60.7957 124.508 60.6691H124.554C124.6 60.7957 124.827 61.5286 124.955 61.8546L125.591 63.5575H123.471Z" fill="#D9D9D9"/>
<path d="M133.051 63.3689C133.051 63.4874 133.07 63.8027 133.07 63.8566L133.024 63.8754C132.997 63.8404 132.816 63.5225 132.716 63.377L130.006 59.6721H128.893V65.8828H130.011V62.1618C130.011 62.0082 129.992 61.7091 129.992 61.6633L130.038 61.6364C130.065 61.6714 130.201 61.9355 130.347 62.1429L133.076 65.8828H134.167V59.6721H133.049L133.051 63.3689Z" fill="#D9D9D9"/>
<path d="M138.807 59.5671C136.852 59.5671 135.669 60.599 135.669 62.7815C135.669 64.964 136.849 65.9959 138.807 65.9959C140.764 65.9959 141.955 64.964 141.955 62.7815C141.955 60.599 140.761 59.5671 138.807 59.5671ZM140.761 62.8812C140.761 64.3038 140.079 65.0179 138.807 65.0179C137.542 65.0179 136.86 64.3038 136.86 62.8812V62.6899C136.86 61.2672 137.55 60.5451 138.807 60.5451C140.071 60.5451 140.761 61.2699 140.761 62.6899V62.8812Z" fill="#D9D9D9"/>
<path d="M172.902 61.7293L175.238 59.2378L177.575 61.7318L178.935 60.2808L175.238 56.3384L171.542 60.2808L172.902 61.7293Z" fill="#D9D9D9"/>
<path d="M170.583 61.3033L169.223 62.7531L170.583 64.2028L171.942 62.7531L170.583 61.3033Z" fill="#D9D9D9"/>
<path d="M172.902 63.777L175.238 66.2685L177.575 63.777L178.935 65.2255L175.238 69.1705L171.539 65.2255L172.902 63.777Z" fill="#D9D9D9"/>
<path d="M179.893 61.3041L178.534 62.7539L179.893 64.2036L181.253 62.7539L179.893 61.3041Z" fill="#D9D9D9"/>
<path d="M176.618 62.7544L175.238 61.283L174.217 62.3693L173.856 62.7544L175.238 64.2258L176.618 62.7544Z" fill="#D9D9D9"/>
<path d="M183.373 59.4469H186.331C187.065 59.4469 187.62 59.6484 187.995 60.0488C188.287 60.3599 188.433 60.7449 188.433 61.2065V61.2269C188.433 61.4207 188.411 61.5941 188.366 61.742C188.32 61.8899 188.26 62.0251 188.184 62.1449C188.107 62.2648 188.021 62.3693 187.921 62.4611C187.821 62.5529 187.715 62.6295 187.601 62.6932C187.969 62.8411 188.26 63.0451 188.471 63.3001C188.681 63.5551 188.789 63.9121 188.789 64.3635V64.3839C188.789 64.695 188.734 64.9679 188.622 65.1999C188.509 65.432 188.349 65.6284 188.139 65.7839C187.928 65.9395 187.677 66.0568 187.383 66.1333C187.089 66.2098 186.764 66.2506 186.405 66.2506H183.373V59.4469ZM186.034 62.1985C186.345 62.1985 186.591 62.1424 186.773 62.0276C186.955 61.9154 187.046 61.7318 187.046 61.4794V61.459C187.046 61.232 186.967 61.0586 186.809 60.9387C186.651 60.8189 186.424 60.7577 186.125 60.7577H184.741V62.1959C184.738 62.1985 186.034 62.1985 186.034 62.1985ZM186.407 64.9398C186.718 64.9398 186.96 64.8812 187.137 64.7613C187.314 64.6415 187.402 64.4553 187.402 64.2029V64.1825C187.402 63.9555 187.321 63.777 187.156 63.6418C186.991 63.5092 186.728 63.4429 186.362 63.4429H184.741V64.9398H186.407Z" fill="#D9D9D9"/>
<path d="M190.546 59.4469H191.95V66.2506H190.546V59.4469Z" fill="#D9D9D9"/>
<path d="M194.076 59.4469H195.369L198.358 63.6367V59.4469H199.743V66.2506H198.55L195.46 61.9256V66.2506H194.076V59.4469Z" fill="#D9D9D9"/>
<path d="M203.994 59.3985H205.288L208.023 66.2506H206.555L205.972 64.7256H203.274L202.691 66.2506H201.261L203.994 59.3985ZM205.469 63.4047L204.621 61.1989L203.774 63.4047H205.469Z" fill="#D9D9D9"/>
<path d="M209.537 59.4469H210.83L213.819 63.6367V59.4469H215.204V66.2506H214.011L210.921 61.9256V66.2506H209.537V59.4469Z" fill="#D9D9D9"/>
<path d="M220.259 66.3679C219.79 66.3679 219.357 66.2761 218.955 66.095C218.554 65.914 218.207 65.6666 217.918 65.3504C217.626 65.0367 217.399 64.6644 217.234 64.2386C217.069 63.8102 216.988 63.3537 216.988 62.8692V62.8488C216.988 62.3617 217.069 61.9078 217.234 61.4819C217.399 61.0586 217.626 60.6837 217.918 60.365C218.209 60.0437 218.558 59.7912 218.965 59.6076C219.371 59.424 219.821 59.3296 220.314 59.3296C220.61 59.3296 220.883 59.3551 221.129 59.4061C221.375 59.4571 221.598 59.5285 221.798 59.6203C221.999 59.7122 222.183 59.8218 222.356 59.9519C222.525 60.0819 222.683 60.2247 222.829 60.3803L221.937 61.4794C221.688 61.2397 221.435 61.051 221.177 60.9158C220.919 60.7806 220.629 60.7118 220.306 60.7118C220.039 60.7118 219.792 60.7679 219.563 60.8775C219.336 60.9872 219.14 61.1402 218.975 61.334C218.81 61.5278 218.683 61.7548 218.592 62.0098C218.501 62.2648 218.456 62.5402 218.456 62.8309V62.8513C218.456 63.142 218.501 63.4174 218.592 63.6775C218.683 63.9377 218.81 64.1646 218.97 64.3584C219.13 64.5522 219.326 64.7078 219.553 64.82C219.78 64.9347 220.031 64.9908 220.304 64.9908C220.67 64.9908 220.976 64.9194 221.229 64.7766C221.48 64.6338 221.732 64.44 221.98 64.1927L222.874 65.1541C222.709 65.3428 222.54 65.5111 222.365 65.659C222.188 65.8069 221.997 65.9369 221.787 66.044C221.576 66.1511 221.347 66.2327 221.098 66.2863C220.847 66.3398 220.567 66.3679 220.259 66.3679Z" fill="#D9D9D9"/>
<path d="M224.524 59.4469H229.328V60.7781H225.911V62.1577H228.919V63.4888H225.911V64.9169H229.374V66.248H224.524V59.4469Z" fill="#D9D9D9"/>
<path d="M275.181 58.6372H275.694C275.826 58.6372 275.932 58.747 275.932 58.8829V63.6406C275.932 65.1437 276.72 66.0926 278.184 66.0926C279.65 66.0926 280.436 65.1437 280.436 63.6406V58.8829C280.436 58.747 280.543 58.6372 280.674 58.6372H281.187C281.319 58.6372 281.425 58.747 281.425 58.8829V63.6537C281.425 65.7005 280.34 67.0049 278.184 67.0049C276.028 67.0049 274.943 65.6874 274.943 63.6641V58.8803C274.941 58.747 275.047 58.6372 275.181 58.6372ZM282.942 65.1175C283.017 65.0182 283.164 65.0078 283.252 65.0966C283.786 65.6325 284.582 66.0926 285.591 66.0926C287.009 66.0926 287.461 65.3031 287.461 64.6731C287.461 63.685 286.498 63.4158 285.449 63.1204C284.175 62.7753 282.754 62.4067 282.754 60.7912C282.754 59.4371 283.922 58.5117 285.485 58.5117C286.607 58.5117 287.494 58.8672 288.149 59.492C288.242 59.5809 288.253 59.7299 288.169 59.8318L287.858 60.224C287.782 60.3207 287.643 60.3285 287.555 60.2422C286.973 59.6802 286.208 59.4214 285.411 59.4214C284.456 59.4214 283.778 59.9521 283.778 60.7259C283.778 61.5519 284.696 61.7976 285.71 62.08C287.009 62.4381 288.485 62.8563 288.485 64.5843C288.485 65.7789 287.696 66.9997 285.553 66.9997C284.269 66.9997 283.303 66.5318 282.646 65.8521C282.56 65.7632 282.552 65.6221 282.628 65.5253L282.942 65.1175ZM289.663 58.8829C289.663 58.747 289.769 58.6372 289.901 58.6372H292.378C294.845 58.6372 296.455 60.4226 296.455 62.7544C296.455 65.0966 294.848 66.8585 292.378 66.8585H289.901C289.769 66.8585 289.663 66.7487 289.663 66.6128V58.8829ZM292.383 65.9462C294.314 65.9462 295.434 64.5163 295.434 62.7544C295.434 60.9768 294.35 59.5495 292.383 59.5495H290.657V65.9462H292.383ZM306.35 63.8759C306.35 62.1505 307.447 60.7572 309.198 60.7572C310.95 60.7572 312.047 62.1505 312.047 63.8759C312.047 65.6012 310.95 67.0075 309.198 67.0075C307.447 67.0075 306.35 65.5985 306.35 63.8759ZM311.104 63.8759C311.104 62.6681 310.427 61.5833 309.198 61.5833C307.97 61.5833 307.28 62.6681 307.28 63.8759C307.28 65.0966 307.97 66.1815 309.198 66.1815C310.427 66.1815 311.104 65.0966 311.104 63.8759ZM312.907 59.2776C312.907 58.9326 313.18 58.6607 313.503 58.6607C313.837 58.6607 314.113 58.93 314.113 59.2776C314.113 59.6227 313.84 59.9076 313.503 59.9076C313.18 59.9076 312.907 59.6227 312.907 59.2776ZM313.299 60.9036H313.716C313.847 60.9036 313.953 61.0134 313.953 61.1493V66.6128C313.953 66.7487 313.847 66.8585 313.716 66.8585H313.299C313.167 66.8585 313.061 66.7487 313.061 66.6128V61.1493C313.061 61.0134 313.167 60.9036 313.299 60.9036ZM319.103 62.9635C319.103 61.9153 318.589 61.5833 317.816 61.5833C317.113 61.5833 316.443 62.0277 316.11 62.5087V66.6128C316.11 66.7487 316.003 66.8585 315.872 66.8585H315.457C315.326 66.8585 315.22 66.7487 315.22 66.6128V61.1493C315.22 61.0134 315.326 60.9036 315.457 60.9036H315.875C316.006 60.9036 316.112 61.0134 316.112 61.1493V61.7663C316.517 61.2722 317.305 60.7572 318.162 60.7572C319.365 60.7572 320 61.3872 320 62.6786V66.6102C320 66.7461 319.894 66.8559 319.762 66.8559H319.345C319.214 66.8559 319.108 66.7461 319.108 66.6102V62.9661H319.103V62.9635ZM298.715 62.7544C298.715 60.2266 300.515 58.5039 302.77 58.5039C304.105 58.5039 305.043 59.1051 305.675 59.9286C305.753 60.0331 305.725 60.1874 305.614 60.2527L305.169 60.5063C305.068 60.5664 304.942 60.5376 304.868 60.4461C304.398 59.8423 303.635 59.4188 302.77 59.4188C301.064 59.4188 299.742 60.7991 299.742 62.7596C299.742 64.7071 301.064 66.1004 302.77 66.1004C303.637 66.1004 304.401 65.6848 304.868 65.0731C304.942 64.979 305.065 64.9529 305.169 65.0104L305.619 65.2639C305.735 65.3293 305.763 65.4861 305.68 65.5907C305.022 66.422 304.105 67.0128 302.77 67.0128C300.518 67.0049 298.715 65.2822 298.715 62.7544Z" fill="#D9D9D9"/>
<path d="M264.397 54.7344C260.115 54.7344 256.642 58.3235 256.642 62.7544C256.642 67.1827 260.112 70.7745 264.397 70.7745C268.682 70.7745 272.153 67.1853 272.153 62.7544C272.153 58.3261 268.682 54.7344 264.397 54.7344ZM262.944 68.3303C262.944 68.5185 262.799 68.6257 262.625 68.5682C260.279 67.7944 258.58 65.5201 258.58 62.8381C258.58 60.156 260.279 57.8817 262.625 57.108C262.802 57.0505 262.944 57.1576 262.944 57.3459V57.8112C262.944 57.9366 262.85 58.0856 262.734 58.1249C260.878 58.8281 259.549 60.671 259.549 62.8328C259.549 64.9921 260.878 66.835 262.734 67.5408C262.85 67.5853 262.944 67.7291 262.944 67.8545V68.3303ZM264.885 66.5971H264.882C264.882 66.7357 264.774 66.8481 264.64 66.8481H264.157C264.023 66.8481 263.914 66.7357 263.914 66.5971V65.8051C262.855 65.6561 262.339 65.0444 262.198 64.2105C262.173 64.0693 262.284 63.9412 262.423 63.9412H262.976C263.093 63.9412 263.189 64.0249 263.214 64.1451C263.318 64.6418 263.593 65.0235 264.443 65.0235C265.07 65.0235 265.512 64.6627 265.512 64.1216C265.512 63.5805 265.252 63.3766 264.331 63.2197C262.974 63.0315 262.334 62.6054 262.334 61.5049C262.334 60.6553 262.954 59.9966 263.917 59.8528V59.0764C263.917 58.9378 264.025 58.8254 264.159 58.8254H264.642C264.776 58.8254 264.885 58.9378 264.885 59.0764V59.8763C265.666 60.0201 266.162 60.4802 266.323 61.2409C266.354 61.3846 266.245 61.5206 266.101 61.5206H265.59C265.482 61.5206 265.391 61.4448 265.355 61.335C265.219 60.8514 264.885 60.6422 264.304 60.6422C263.661 60.6422 263.33 60.9638 263.33 61.4134C263.33 61.8892 263.52 62.127 264.503 62.276C265.835 62.4643 266.523 62.859 266.523 64.0301C266.523 64.9189 265.883 65.6404 264.885 65.8077V66.5971ZM266.172 68.5682C265.995 68.6257 265.853 68.5185 265.853 68.3303V67.865C265.853 67.7264 265.934 67.5983 266.063 67.5513C267.918 66.8481 269.248 65.0052 269.248 62.8433C269.248 60.6814 267.918 58.8411 266.063 58.1353C265.947 58.0909 265.853 57.9471 265.853 57.8216V57.3563C265.853 57.1681 265.997 57.0583 266.172 57.1184C268.518 57.8922 270.216 60.1665 270.216 62.8485C270.214 65.5201 268.515 67.7918 266.172 68.5682Z" fill="#D9D9D9"/>
<path fill-rule="evenodd" clip-rule="evenodd" d="M7.26648 29.8722C3.25026 29.8722 0 32.0993 0 34.8672C0 36.0394 0.588683 37.1138 1.58422 37.9802C1.09554 37.2704 0.815973 36.48 0.815973 35.6356C0.815973 32.7723 4.00032 30.4473 7.91881 30.4473C10.4508 30.4473 12.6715 31.4091 13.9284 32.8677C12.8033 31.1007 10.2394 29.8722 7.26648 29.8722Z" fill="#D9D9D9"/>
<path fill-rule="evenodd" clip-rule="evenodd" d="M4.49808 34.084C4.70719 33.8931 4.96857 33.7977 5.27769 33.7977C5.57998 33.7977 5.8391 33.8956 6.05275 34.0914C6.2664 34.2847 6.38232 34.5343 6.40505 34.8378H4.09805C4.15715 34.5246 4.28897 34.2749 4.49808 34.084ZM7.09829 35.9832C7.39604 35.9832 7.63242 35.9146 7.81425 35.7776C8.02336 35.6258 8.12791 35.4056 8.12791 35.1168C8.12791 34.5833 7.96881 34.0889 7.6506 33.6337C7.3324 33.1785 6.92555 32.8359 6.42778 32.6059C6.0823 32.4468 5.69363 32.3685 5.2686 32.3685C4.40944 32.3685 3.70484 32.6744 3.15025 33.2887C2.59793 33.9029 2.32291 34.642 2.32291 35.5084C2.32291 36.3821 2.61157 37.1163 3.18889 37.7134C3.76621 38.3106 4.48899 38.6067 5.35497 38.6067C5.81637 38.6067 6.26186 38.5357 6.68689 38.3913C7.19147 38.2249 7.56196 37.9826 7.79152 37.6669C7.92108 37.4932 7.98699 37.3194 7.98699 37.1481C7.98699 36.6929 7.75516 36.4653 7.29376 36.4653C7.19375 36.4653 6.93236 36.5607 6.51415 36.7516C6.09593 36.9425 5.73682 37.038 5.44134 37.038C5.08676 37.038 4.78674 36.9474 4.54354 36.7687C4.29807 36.5876 4.15715 36.3282 4.12078 35.988L7.09829 35.9832ZM8.94616 37.7012C9.50757 38.3032 10.2508 38.6018 11.1759 38.6018C11.7305 38.6018 12.1919 38.5161 12.5646 38.3399C13.0806 38.0927 13.3397 37.7942 13.3397 37.4393C13.3397 37.2288 13.2738 37.0502 13.1397 36.9009C13.0078 36.7516 12.8351 36.6782 12.6214 36.6782C12.476 36.6782 12.2941 36.7222 12.0737 36.8079C11.8532 36.8936 11.6145 36.9376 11.3577 36.9376C10.9168 36.9376 10.5758 36.7932 10.3326 36.5044C10.1213 36.2426 10.0144 35.8951 10.0144 35.4619C10.0144 35.0483 10.1167 34.7057 10.3213 34.4291C10.5486 34.1232 10.8713 33.9715 11.2895 33.9715C11.5486 33.9715 11.7918 34.018 12.0237 34.1061C12.2555 34.1966 12.4419 34.2431 12.5874 34.2431C12.8078 34.2431 12.9897 34.1697 13.1329 34.0253C13.2783 33.8809 13.3488 33.7023 13.3488 33.4942C13.3488 33.088 13.0988 32.7845 12.5964 32.5814C12.226 32.437 11.7896 32.3636 11.2873 32.3636C10.3304 32.3636 9.56439 32.6548 8.98934 33.2373C8.41203 33.8197 8.12564 34.571 8.12564 35.4912C8.12791 36.387 8.40066 37.1236 8.94616 37.7012ZM15.5921 34.4781C15.8172 34.1697 16.1376 34.0155 16.549 34.0155C16.9536 34.0155 17.2695 34.1746 17.4946 34.4903C17.6968 34.7619 17.7969 35.0923 17.7969 35.4815C17.7969 35.8828 17.6991 36.2181 17.5059 36.4824C17.2786 36.7981 16.9604 36.9572 16.549 36.9572C16.1445 36.9572 15.8285 36.7981 15.6035 36.4824C15.4012 36.2108 15.2989 35.8755 15.2989 35.4815C15.2989 35.085 15.3967 34.7522 15.5921 34.4781ZM14.2261 37.6865C14.833 38.2959 15.608 38.6018 16.549 38.6018C17.4991 38.6018 18.2742 38.2983 18.8719 37.6963C19.447 37.1089 19.7356 36.3723 19.7356 35.4888C19.7356 34.6004 19.4447 33.8564 18.8606 33.2593C18.2764 32.6646 17.5059 32.366 16.549 32.366C15.608 32.366 14.8398 32.6646 14.2443 33.2642C13.6488 33.8638 13.3511 34.6053 13.3511 35.4888C13.3511 36.3674 13.642 37.0991 14.2261 37.6865Z" fill="#D9D9D9"/>
<path fill-rule="evenodd" clip-rule="evenodd" d="M42.8988 37.0624H40.9759L43.5602 34.226C43.8239 33.9372 43.9557 33.6949 43.9557 33.4942C43.9557 33.274 43.8557 33.1369 43.6534 33.0782C43.4534 33.0194 43.1443 32.9925 42.7261 32.9925H39.6076C38.7803 32.9925 38.3666 33.2422 38.3666 33.7414C38.3666 34.248 38.7758 34.5025 39.5963 34.5025H41.2691L38.5962 37.454C38.403 37.6669 38.3075 37.8798 38.3075 38.0903C38.3075 38.4329 38.6485 38.6042 39.3303 38.6042H42.8829C43.7011 38.6042 44.1103 38.3522 44.1103 37.8431C44.1125 37.3218 43.708 37.0624 42.8988 37.0624Z" fill="#D9D9D9"/>
<path fill-rule="evenodd" clip-rule="evenodd" d="M22.1267 37.3121V35.944H23.3496C24.2087 35.944 24.8838 35.7066 25.3793 35.2294C25.8725 34.7546 26.1202 34.084 26.1202 33.2201C26.1202 32.3489 25.8475 31.671 25.302 31.1889C24.786 30.7263 24.086 30.4963 23.2064 30.4963H21.5699C21.0971 30.4963 20.7698 30.5917 20.588 30.7801C20.4062 30.971 20.3152 31.3039 20.3152 31.7787V37.3072C20.3152 38.1711 20.6175 38.6018 21.2221 38.6018C21.8244 38.6042 22.1267 38.1735 22.1267 37.3121ZM22.1267 32.1776H22.9132C23.7428 32.1776 24.1564 32.5251 24.1564 33.2201C24.1564 33.9299 23.7428 34.2847 22.9132 34.2847H22.1267V32.1776Z" fill="#D9D9D9"/>
<path fill-rule="evenodd" clip-rule="evenodd" d="M31.3402 38.6505C31.9448 38.6505 32.2494 38.2149 32.2494 37.3461V33.7559C32.2494 32.8944 31.9471 32.4637 31.3402 32.4637C30.9697 32.4637 30.6788 32.6521 30.4651 33.0265C30.0969 32.6007 29.6037 32.3854 28.99 32.3854C28.1513 32.3854 27.4581 32.7157 26.9126 33.379C26.4012 33.9957 26.1421 34.7201 26.1421 35.5522C26.1421 36.3745 26.3875 37.0916 26.8807 37.7034C27.4172 38.3666 28.099 38.697 28.9241 38.697C29.5741 38.697 30.0878 38.4718 30.4674 38.024C30.6492 38.44 30.9402 38.6505 31.3402 38.6505ZM28.3331 34.5463C28.5513 34.2453 28.8491 34.0936 29.2264 34.0936C29.6105 34.0936 29.9083 34.2429 30.1174 34.5463C30.2969 34.8106 30.3878 35.1386 30.3878 35.5277C30.3878 35.9168 30.2969 36.2497 30.1174 36.5213C29.906 36.8297 29.6082 36.9839 29.2264 36.9839C28.8423 36.9839 28.54 36.8297 28.3218 36.5213C28.1331 36.2497 28.0399 35.9168 28.0399 35.5277C28.0399 35.1459 28.1377 34.818 28.3331 34.5463ZM36.5065 33.1685L35.3814 36.0147L34.3382 33.3227C34.2245 33.0217 34.1222 32.8185 34.0313 32.7157C33.8813 32.5469 33.6722 32.4612 33.4063 32.4612C33.1494 32.4612 32.9358 32.5469 32.7653 32.7157C32.5948 32.8846 32.5107 33.0951 32.5107 33.3447C32.5107 33.5209 32.5448 33.6873 32.613 33.8415L34.4632 38.0436L33.7086 39.6417C33.6086 39.8693 33.5563 40.0699 33.5563 40.2462C33.5563 40.508 33.6404 40.7185 33.8063 40.8702C33.9722 41.0244 34.1927 41.1003 34.4654 41.1003C34.7905 41.1003 35.0587 40.8604 35.2723 40.3832L38.0748 33.9296C38.1725 33.702 38.2225 33.4964 38.2225 33.3129C38.2225 32.7476 37.9203 32.4637 37.3157 32.4637C36.9634 32.4612 36.6952 32.6986 36.5065 33.1685Z" fill="#D9D9D9"/>
<g opacity="0.8">
<path d="M206.301 36.4746C206.301 36.6042 206.197 36.7149 206.062 36.7149H201.683C201.796 37.834 202.608 38.8551 203.757 38.8551C204.545 38.8551 205.127 38.5484 205.562 37.9004C205.608 37.834 205.676 37.7834 205.755 37.7834C205.881 37.7834 205.973 37.8782 205.973 38.0079C205.973 38.0489 205.961 38.09 205.939 38.1248C205.498 38.9151 204.615 39.304 203.757 39.304C202.283 39.304 201.226 37.9414 201.226 36.4904C201.226 35.0299 202.277 33.6737 203.757 33.6737C205.231 33.6737 206.295 35.0236 206.301 36.4746ZM205.832 36.266C205.74 35.1469 204.907 34.1258 203.754 34.1258C202.605 34.1258 201.793 35.1469 201.68 36.266H205.832ZM211.627 33.7844C211.753 33.7844 211.845 33.9013 211.845 34.0088C211.845 34.1384 211.753 34.2333 211.627 34.2333H210.45V38.9973C210.45 39.1143 210.359 39.2218 210.233 39.2218C210.113 39.2186 210.018 39.1206 210.015 38.9973V34.2333H208.884C208.768 34.2364 208.67 34.1416 208.667 34.0215C208.667 34.0183 208.667 34.012 208.667 34.0088C208.667 33.8918 208.762 33.7844 208.884 33.7844H210.015V32.0457C210.015 31.9287 210.101 31.8212 210.215 31.8086C210.352 31.7959 210.46 31.8971 210.46 32.033V33.7844H211.627ZM218.802 36.0858V38.972C218.802 39.1017 218.688 39.1965 218.584 39.1965C218.468 39.1996 218.37 39.1048 218.366 38.9847C218.366 38.9815 218.366 38.9752 218.366 38.972V36.0858C218.366 35.1121 217.83 34.1416 216.779 34.1416C215.431 34.1416 214.848 35.3555 214.928 36.6042C214.928 36.639 214.94 36.7813 214.94 36.8034V38.9625C214.94 39.0795 214.854 39.187 214.741 39.2028C214.621 39.2186 214.514 39.1333 214.499 39.01C214.499 38.9973 214.496 38.9879 214.496 38.9752V29.4945C214.496 29.3775 214.588 29.27 214.713 29.27C214.839 29.27 214.931 29.387 214.931 29.4945V34.8529C215.308 34.1574 215.982 33.6864 216.767 33.6864C218.066 33.6895 218.802 34.8529 218.802 36.0858ZM226.672 36.4746C226.672 36.6042 226.564 36.7149 226.433 36.7149H222.05C222.164 37.834 222.976 38.8551 224.128 38.8551C224.913 38.8551 225.495 38.5484 225.933 37.9004C225.979 37.834 226.046 37.7834 226.126 37.7834C226.252 37.7834 226.344 37.8782 226.344 38.0079C226.344 38.0489 226.331 38.09 226.31 38.1248C225.869 38.9151 224.986 39.304 224.128 39.304C222.654 39.304 221.597 37.9414 221.597 36.4904C221.597 35.0299 222.648 33.6737 224.128 33.6737C225.593 33.6737 226.665 35.0236 226.672 36.4746ZM226.197 36.266C226.105 35.1469 225.271 34.1258 224.119 34.1258C222.97 34.1258 222.157 35.1469 222.044 36.266H226.197ZM232.059 33.993C232.059 34.1353 231.98 34.2175 231.854 34.2396C230.567 34.4388 229.984 35.5199 229.984 36.7813V38.9436C229.984 39.0605 229.899 39.168 229.785 39.1838C229.666 39.1996 229.559 39.1143 229.543 38.991C229.543 38.9784 229.54 38.9689 229.54 38.9562V34.0278C229.54 33.9108 229.626 33.8033 229.739 33.7875C229.877 33.7749 229.984 33.876 229.984 34.012V35.0141C230.349 34.3787 231.069 33.7812 231.823 33.7812C231.934 33.7844 232.059 33.8666 232.059 33.993ZM239.261 36.4746C239.261 36.6042 239.154 36.7149 239.022 36.7149H234.637C234.75 37.834 235.562 38.8551 236.714 38.8551C237.499 38.8551 238.081 38.5484 238.52 37.9004C238.565 37.834 238.633 37.7834 238.713 37.7834C238.838 37.7834 238.93 37.8782 238.93 38.0079C238.93 38.0489 238.918 38.09 238.896 38.1248C238.455 38.9151 237.576 39.304 236.714 39.304C235.24 39.304 234.183 37.9414 234.183 36.4904C234.183 35.0299 235.234 33.6737 236.714 33.6737C238.189 33.6737 239.255 35.0236 239.261 36.4746ZM238.792 36.266C238.7 35.1469 237.867 34.1258 236.717 34.1258C235.568 34.1258 234.753 35.1469 234.64 36.266C234.643 36.266 238.792 36.266 238.792 36.266ZM246.347 34.0499V39.0005C246.347 39.1301 246.233 39.2249 246.129 39.2249C246.013 39.2281 245.914 39.1333 245.911 39.01C245.911 39.0068 245.911 39.0005 245.911 38.9973V38.0553C245.55 38.7982 244.909 39.3356 244.088 39.3356C242.785 39.3356 242.065 38.1691 242.065 36.9362V34.0373C242.065 33.9203 242.157 33.8128 242.283 33.8128C242.409 33.8128 242.5 33.9298 242.5 34.0373V36.9362C242.5 37.9098 243.034 38.8804 244.085 38.8804C245.559 38.8804 245.908 37.4546 245.908 35.8803V34.0309C245.908 33.895 246.046 33.7591 246.206 33.8191C246.294 33.8634 246.347 33.9519 246.347 34.0499ZM257.444 36.0668V38.9625C257.444 39.0922 257.33 39.187 257.226 39.187C257.11 39.1902 257.012 39.0953 257.008 38.972C257.008 38.9689 257.008 38.9625 257.008 38.9594V36.0637C257.008 35.0868 256.472 34.1353 255.421 34.1353C254.1 34.1353 253.598 35.5958 253.598 36.7244V38.9594C253.598 39.089 253.484 39.1838 253.38 39.1838C253.263 39.187 253.165 39.0922 253.162 38.9689C253.162 38.9657 253.162 38.9594 253.162 38.9562V36.0605C253.162 35.0836 252.626 34.1321 251.575 34.1321C250.239 34.1321 249.69 35.2164 249.739 36.6611C249.739 36.6959 249.751 36.756 249.739 36.7781V38.9531C249.739 39.07 249.653 39.1775 249.54 39.1933C249.42 39.2091 249.313 39.1238 249.298 39.0005C249.298 38.9878 249.295 38.9784 249.295 38.9657V34.0215C249.295 33.9045 249.381 33.797 249.494 33.7812C249.632 33.7686 249.739 33.8697 249.739 34.0056V34.8308C250.116 34.1353 250.79 33.68 251.575 33.68C252.467 33.68 253.162 34.268 253.444 35.1184C253.809 34.2744 254.514 33.68 255.421 33.68C256.711 33.6864 257.444 34.8371 257.444 36.0668Z" fill="#D9D9D9"/>
<path d="M191.551 32.6874L186.065 35.2575L191.551 38.6053L197.043 35.2575L191.551 32.6874Z" fill="#D9D9D9"/>
<path d="M186.065 35.2575L191.551 38.6053L191.551 25.8622L186.065 35.2575Z" fill="#D9D9D9"/>
<path d="M191.551 25.8622L191.551 38.6053L197.043 35.2575L191.551 25.8622Z" fill="#D9D9D9"/>
<path d="M186.065 36.3324L191.551 44.3083V39.6738L186.065 36.3324Z" fill="#D9D9D9"/>
<path d="M191.551 39.6738V44.3083L197.043 36.3324L191.551 39.6738Z" fill="#D9D9D9"/>
</g>
<path d="M290.126 33.6764C290.001 33.6304 289.738 33.6084 289.475 33.6084C288.684 33.6084 287.843 34.2682 287.843 35.0858V38.9743H286.051V32.0324H287.785V32.7295C288.189 32.2144 288.92 31.8878 289.731 31.8878C289.994 31.8878 290.148 31.9184 290.34 31.9491C290.338 31.9491 290.126 33.6764 290.126 33.6764ZM292.159 28.3872C292.81 28.3872 293.329 28.9023 293.329 29.5774C293.329 30.2526 292.803 30.7677 292.159 30.7677C291.515 30.7677 290.989 30.2526 290.989 29.5774C290.989 28.9023 291.508 28.3872 292.159 28.3872ZM293.051 38.959H291.258V32.0324H293.051V38.959ZM298.347 31.8878C297.587 31.8878 296.914 32.1464 296.385 32.5848V32.0258H294.66V42.3872H296.452V38.468C296.954 38.8823 297.589 39.1059 298.244 39.0971C299.238 39.0971 300.19 38.6434 300.783 37.9222C301.309 37.2931 301.624 36.4361 301.624 35.4891C301.632 33.4572 300.168 31.8878 298.347 31.8878ZM298.135 37.4224C297.023 37.4224 296.292 36.6268 296.292 35.5132C296.292 34.3997 297.023 33.6041 298.135 33.6041C299.087 33.6041 299.854 34.4611 299.854 35.5132C299.854 36.5654 299.087 37.4224 298.135 37.4224ZM312.517 38.959H310.725V28.8124H312.517V38.959ZM319.833 37.8608C319.182 38.6653 318.121 39.1037 317.089 39.1037C315.092 39.1037 313.585 37.6723 313.585 35.5045C313.585 33.5712 314.858 31.8899 316.839 31.8899C318.692 31.8899 320 33.5032 320 35.4365C320 35.625 319.987 35.807 319.958 35.967H315.319C315.413 36.938 316.175 37.6109 317.127 37.6109C317.887 37.6109 318.495 37.1704 318.81 36.8065L319.833 37.8608ZM318.165 34.6014C318.108 33.9876 317.575 33.3892 316.841 33.3892C316.095 33.3892 315.488 33.9723 315.408 34.6014H318.165ZM306.38 31.8878C305.618 31.8878 304.945 32.1464 304.419 32.5848V32.0258H302.691V42.3872H304.483V38.468C304.985 38.8823 305.62 39.1059 306.276 39.0971C307.27 39.0971 308.222 38.6434 308.815 37.9222C309.341 37.2931 309.657 36.4361 309.657 35.4891C309.664 33.4572 308.202 31.8878 306.38 31.8878ZM306.16 37.4224C305.047 37.4224 304.316 36.6268 304.316 35.5132C304.316 34.3997 305.047 33.6041 306.16 33.6041C307.112 33.6041 307.878 34.4611 307.878 35.5132C307.887 36.5654 307.112 37.4224 306.16 37.4224Z" fill="#D9D9D9"/>
<path d="M282.362 36.4361C281.959 36.1927 281.499 36.1248 281.054 36.1095C280.672 36.0941 280.111 35.8442 280.111 35.1318C280.111 34.6014 280.528 34.1696 281.054 34.1542C281.508 34.1389 281.961 34.0709 282.364 33.8276C283.102 33.3871 283.557 32.5695 283.557 31.6817C283.557 30.794 283.102 29.9764 282.364 29.5358C281.629 29.0974 280.708 29.0974 279.973 29.5358C279.226 29.9676 278.773 30.7874 278.773 31.6729C278.773 32.1508 278.94 32.5979 279.146 33.0078C279.322 33.3498 279.409 33.992 278.802 34.3559C278.348 34.6277 277.786 34.4545 277.507 33.992C277.273 33.5975 276.981 33.227 276.578 32.9925C275.842 32.5541 274.921 32.5541 274.186 32.9925C273.455 33.4243 273 34.2441 273 35.1297C273 36.0152 273.455 36.835 274.199 37.2756C274.939 37.7162 275.853 37.7162 276.591 37.2756C276.994 37.0323 277.278 36.6684 277.521 36.276C277.717 35.9494 278.2 35.5417 278.816 35.9056C279.27 36.1774 279.409 36.7692 279.152 37.2537C278.94 37.6635 278.778 38.1019 278.778 38.5886C278.778 39.4763 279.232 40.2939 279.97 40.7345C280.708 41.1751 281.622 41.1751 282.362 40.7345C283.102 40.2939 283.555 39.4763 283.555 38.5886C283.555 37.7008 283.102 36.8832 282.362 36.4361Z" fill="#D9D9D9"/>
<path d="M129.481 29.0702C125.74 29.0702 122.707 31.9433 122.707 35.4862C122.707 39.0291 125.74 41.9023 129.481 41.9023C133.221 41.9023 136.255 39.0291 136.255 35.4862C136.255 31.9433 133.223 29.0702 129.481 29.0702ZM129.589 35.6978L128.884 37.9498H132.654C132.76 37.9498 132.846 38.0332 132.846 38.1342C132.846 38.1517 132.844 38.1691 132.838 38.1847L132.51 39.2543C132.477 39.3591 132.375 39.431 132.26 39.431H126.507L127.48 36.3171L126.404 36.6277L126.642 35.8997L127.72 35.5891L129.087 31.2153C129.118 31.1105 129.218 31.0367 129.335 31.0367H130.795C130.901 31.0367 130.987 31.1183 130.989 31.2192C130.989 31.2367 130.987 31.2522 130.981 31.2697L129.833 34.9679L130.909 34.6573L130.678 35.3969L129.589 35.6978Z" fill="#D9D9D9"/>
<path d="M140.172 31.0173H139.749C139.676 31.0134 139.612 31.0659 139.608 31.1357V31.1377L138.524 39.3126C138.516 39.3902 138.542 39.4329 138.628 39.4329H139.048C139.118 39.4426 139.182 39.398 139.192 39.332C139.192 39.3261 139.194 39.3184 139.194 39.3126L140.293 31.1416C140.305 31.0523 140.256 31.0173 140.172 31.0173ZM142.373 33.3741H141.953C141.881 33.3663 141.817 33.4168 141.809 33.4847C141.809 33.4867 141.809 33.4906 141.809 33.4925L141.026 39.3126C141.018 39.3921 141.067 39.4329 141.145 39.4329H141.565C141.637 39.4446 141.705 39.398 141.715 39.33C141.715 39.3242 141.717 39.3184 141.717 39.3126L142.49 33.4964C142.492 33.4168 142.463 33.3741 142.373 33.3741ZM160.783 33.279C159.666 33.2557 158.68 33.9701 158.411 34.997C158.294 35.4591 158.208 35.9288 158.151 36.4025C158.083 36.8684 158.044 37.3382 158.034 37.81C158.024 38.274 158.212 38.7224 158.557 39.0524C158.897 39.363 159.364 39.5183 159.959 39.5183C160.502 39.53 161.033 39.365 161.465 39.0524C161.889 38.7418 162.191 38.305 162.318 37.81C162.437 37.3479 162.523 36.8782 162.578 36.4045C162.646 35.9347 162.683 35.461 162.695 34.9854C162.717 34.5214 162.529 34.0691 162.178 33.7429C161.793 33.4207 161.293 33.2537 160.783 33.279ZM161.967 35.8376C161.941 36.0259 161.918 36.2142 161.896 36.4025C161.818 37.0024 161.746 37.4334 161.687 37.6896C161.605 38.0565 161.393 38.3846 161.086 38.6214C160.787 38.8505 160.41 38.9748 160.024 38.9689C159.34 39.0117 158.747 38.5224 158.702 37.874C158.698 37.8255 158.698 37.777 158.702 37.7265C158.706 37.478 158.725 37.2276 158.76 36.981C158.801 36.686 158.825 36.4977 158.831 36.4161C158.911 35.8395 158.981 35.4105 159.04 35.131C159.122 34.7641 159.336 34.436 159.643 34.1991C159.942 33.9701 160.317 33.8458 160.705 33.8516C161.389 33.8089 161.98 34.3001 162.025 34.9485C162.029 34.997 162.029 35.0455 162.025 35.0921C162.021 35.3426 162.002 35.5911 161.967 35.8376ZM165.093 33.3741H164.675C164.601 33.3702 164.535 33.4226 164.531 33.4925L163.746 39.3126C163.734 39.396 163.785 39.4329 163.863 39.4329H164.283C164.357 39.4387 164.421 39.3863 164.427 39.3184C164.427 39.3164 164.427 39.3145 164.427 39.3145L165.2 33.4944C165.21 33.4168 165.175 33.3741 165.093 33.3741ZM170.393 33.7177C170.104 33.4323 169.701 33.2906 169.176 33.2906C168.852 33.2867 168.53 33.3508 168.233 33.477C167.942 33.6032 167.69 33.7953 167.499 34.0361C167.464 34.0671 167.446 34.0594 167.446 34.0108L167.512 33.4944C167.522 33.4226 167.487 33.376 167.407 33.376H166.989C166.915 33.3702 166.852 33.4226 166.845 33.4906C166.845 33.4925 166.845 33.4925 166.845 33.4944L166.073 39.3145C166.062 39.3902 166.091 39.4349 166.177 39.4349H166.597C166.671 39.4407 166.737 39.3883 166.741 39.3184C166.741 39.3164 166.741 39.3164 166.741 39.3145L167.302 35.1446C167.382 34.7835 167.585 34.4554 167.878 34.2127C168.165 33.9759 168.534 33.8497 168.916 33.8555C169.248 33.8419 169.571 33.9662 169.801 34.1933C170.031 34.4379 170.149 34.7602 170.129 35.0883C170.131 35.1776 170.127 35.2649 170.115 35.3542L169.58 39.3164C169.571 39.3456 169.58 39.3766 169.6 39.3999C169.625 39.4252 169.662 39.4387 169.698 39.4368H170.117C170.19 39.4426 170.254 39.3902 170.26 39.3223C170.26 39.3203 170.26 39.3184 170.26 39.3184L170.797 35.2572C170.816 35.1018 170.824 34.9757 170.824 34.898C170.852 34.4612 170.697 34.04 170.393 33.7177ZM142.65 31.0212C142.404 30.8853 142.086 30.9649 141.942 31.1998C141.799 31.4328 141.883 31.7337 142.131 31.8696C142.141 31.8754 142.152 31.8812 142.164 31.8851C142.42 32.0035 142.73 31.9045 142.855 31.6618C142.973 31.4289 142.885 31.1513 142.65 31.0212ZM165.394 31.0212C165.146 30.8892 164.831 30.9727 164.691 31.2076C164.552 31.4425 164.64 31.7414 164.888 31.8734C164.896 31.8773 164.906 31.8831 164.915 31.887C165.171 32.0055 165.48 31.9045 165.605 31.6618C165.724 31.4289 165.632 31.1474 165.394 31.0212ZM155.308 33.279C154.759 33.2673 154.224 33.4362 153.789 33.7546C153.365 34.0652 153.066 34.5039 152.939 34.997C152.824 35.461 152.736 35.9288 152.676 36.4025C152.611 36.8684 152.57 37.3382 152.557 37.81C152.545 38.274 152.736 38.7243 153.082 39.0524C153.422 39.363 153.89 39.5183 154.482 39.5183C155.025 39.53 155.556 39.365 155.989 39.0524C156.415 38.7437 156.714 38.305 156.839 37.81L156.874 37.678C156.882 37.6489 156.862 37.6178 156.831 37.612C156.827 37.61 156.821 37.61 156.817 37.61H156.3C156.263 37.6081 156.23 37.6333 156.22 37.6663V37.6896C156.138 38.0565 155.925 38.3846 155.618 38.6214C155.318 38.8505 154.943 38.9748 154.558 38.9689C153.873 39.0117 153.281 38.5224 153.236 37.874C153.232 37.8255 153.232 37.777 153.236 37.7265C153.24 37.478 153.258 37.2276 153.293 36.981C153.318 36.7927 153.342 36.6044 153.365 36.4161C153.445 35.8395 153.513 35.4105 153.574 35.131C153.652 34.7621 153.863 34.4321 154.168 34.1933C154.468 33.9642 154.843 33.8419 155.228 33.8458C155.913 33.8012 156.505 34.2923 156.55 34.9407C156.554 34.9893 156.554 35.0397 156.55 35.0883V35.096C156.548 35.1465 156.589 35.1892 156.644 35.1912C156.646 35.1912 156.646 35.1912 156.649 35.1912H157.14C157.181 35.1931 157.216 35.162 157.218 35.1232V34.9795C157.241 34.5136 157.052 34.0632 156.7 33.7371C156.319 33.4149 155.818 33.2498 155.308 33.279ZM151.08 33.7468C150.698 33.4226 150.196 33.2557 149.686 33.2809C148.569 33.2576 147.583 33.972 147.315 34.999C147.198 35.4629 147.112 35.9308 147.054 36.4045C146.978 36.8704 146.937 37.3402 146.935 37.8119C146.925 38.2759 147.114 38.7243 147.458 39.0544C147.798 39.365 148.266 39.5203 148.858 39.5203C149.401 39.5319 149.932 39.3669 150.364 39.0544C150.791 38.7457 151.092 38.307 151.217 37.8119L151.252 37.6799C151.26 37.6508 151.242 37.6197 151.209 37.612C151.205 37.61 151.199 37.61 151.194 37.61H150.674C150.637 37.61 150.604 37.6333 150.594 37.6683V37.6916C150.512 38.0585 150.301 38.3865 149.991 38.6234C149.69 38.8505 149.313 38.9709 148.926 38.9612C148.241 39.0039 147.651 38.5127 147.604 37.8643C147.599 37.8158 147.599 37.7673 147.604 37.7187C147.606 37.5013 147.622 37.2839 147.651 37.0684L151.434 35.9599C151.506 35.9444 151.555 35.8842 151.555 35.8163C151.578 35.6299 151.592 35.3154 151.596 34.9912C151.611 34.5272 151.424 34.0788 151.08 33.7468ZM150.93 35.4222C150.93 35.4571 150.903 35.4882 150.869 35.4979L147.733 36.4161V36.4025C147.811 35.826 147.882 35.3969 147.942 35.1174C148.024 34.7505 148.237 34.4224 148.542 34.1856C148.842 33.9565 149.219 33.8342 149.604 33.8381C149.963 33.8245 150.309 33.9526 150.563 34.1914C150.951 34.5505 150.953 34.9349 150.93 35.4222ZM145.505 38.7903C145.554 38.7651 145.615 38.7826 145.642 38.8292C145.652 38.8466 145.656 38.8641 145.654 38.8835L145.603 39.2854C145.595 39.3378 145.558 39.3824 145.507 39.4019C145.087 39.561 144.619 39.5669 144.195 39.4193C143.715 39.2116 143.592 38.7632 143.662 38.2021L144.216 33.939L144.293 33.3255L144.476 31.9686C144.478 31.9006 144.537 31.8463 144.611 31.8482C144.615 31.8482 144.617 31.8482 144.621 31.8482H145.027C145.124 31.8482 145.144 31.8987 145.132 31.9686L144.882 33.8924H146.193C146.269 33.8924 146.304 33.9351 146.298 34.0108L146.261 34.2865C146.261 34.3214 146.247 34.3544 146.222 34.3797C146.191 34.3991 146.154 34.4088 146.118 34.4069H144.806L144.347 37.9032C144.3 38.2798 144.246 38.6176 144.449 38.8039C144.724 39.0252 145.236 38.9088 145.505 38.7903Z" fill="#D9D9D9"/>
<path fill-rule="evenodd" clip-rule="evenodd" d="M66.1801 30.0283C63.5782 29.3316 60.9455 31.0328 60.2955 33.8243C59.6476 36.6157 61.2293 39.4442 63.8312 40.1409C66.4331 40.8376 69.0678 39.1363 69.7178 36.3449C70.3657 33.5535 68.7819 30.725 66.1801 30.0283ZM67.1468 34.3404C67.0768 34.8473 66.8156 35.0927 66.466 35.1783C66.9431 35.4468 67.1879 35.8565 66.9555 36.5648C66.6675 37.4466 65.9847 37.5207 65.0756 37.3355L64.8575 38.2892L64.3248 38.1457L64.5428 37.2106C64.405 37.1735 64.2631 37.1342 64.1191 37.0925L63.9011 38.0323L63.3684 37.8887L63.5885 36.9397C63.4651 36.905 63.3376 36.868 63.21 36.8333L62.5169 36.6481L62.7822 35.9931C62.7822 35.9931 63.1751 36.1042 63.1689 36.0972C63.319 36.1389 63.3869 36.0324 63.4137 35.9607L63.7613 34.4631L63.8168 34.4793C63.7942 34.47 63.7757 34.4631 63.7613 34.4608L64.0101 33.3914C64.0163 33.2687 63.9772 33.116 63.7613 33.0581C63.7695 33.0535 63.3746 32.954 63.3746 32.954L63.5165 32.3429L64.2508 32.5396V32.5443L64.5922 32.6299L64.8102 31.6902L65.3429 31.8314L65.129 32.7526C65.273 32.7873 65.417 32.822 65.5569 32.8591L65.7687 31.9448L66.3014 32.086L66.0834 33.0257C66.7519 33.2757 67.2455 33.6483 67.1468 34.3404Z" fill="#D9D9D9"/>
<path fill-rule="evenodd" clip-rule="evenodd" d="M64.584 35.1459L64.2899 36.4051C64.6519 36.5023 65.7646 36.8842 65.9312 36.1759C66.1019 35.4329 64.9439 35.2431 64.584 35.1459Z" fill="#D9D9D9"/>
<path fill-rule="evenodd" clip-rule="evenodd" d="M64.9809 33.4261L64.7156 34.5673C65.018 34.6483 65.9435 34.9769 66.0937 34.3312C66.2521 33.6576 65.2833 33.5072 64.9809 33.4261Z" fill="#D9D9D9"/>
<path d="M74.3826 33.0257C74.7754 33.0257 75.1169 33.1021 75.4028 33.2502C75.6907 33.4007 75.9272 33.6021 76.1165 33.8567C76.3036 34.1113 76.4435 34.4122 76.534 34.7547C76.6245 35.0996 76.6677 35.4676 76.6677 35.8634C76.6677 36.4699 76.5649 37.0439 76.3551 37.5855C76.1535 38.1133 75.8635 38.5924 75.5015 38.9975C74.7322 39.84 73.6997 40.3075 72.6261 40.296C72.552 40.296 72.4224 40.2936 72.2373 40.289C72.0255 40.2821 71.8157 40.2636 71.6059 40.2312C71.3509 40.1918 71.0999 40.1386 70.849 40.0714C70.5878 40.0043 70.3348 39.9071 70.0921 39.7821L72.2209 30.1903L74.1255 29.8732L73.3645 33.2757C73.527 33.197 73.6915 33.1368 73.856 33.0928C74.0185 33.0489 74.1934 33.0257 74.3826 33.0257ZM72.7844 38.6734C73.0703 38.6734 73.3418 38.597 73.5948 38.4489C73.8499 38.3008 74.0699 38.0994 74.253 37.8494C74.4381 37.5971 74.5821 37.3147 74.689 36.9976C74.796 36.6805 74.8495 36.3472 74.8495 36.0093C74.8495 35.588 74.7837 35.257 74.652 35.0209C74.5204 34.7825 74.2797 34.6645 73.926 34.6645C73.8108 34.6645 73.6627 34.6876 73.4776 34.7316C73.2945 34.7756 73.1218 34.8705 72.9798 35.0094L72.1695 38.6225L72.299 38.6479C72.3854 38.6665 72.4739 38.6757 72.5623 38.6757H72.7844V38.6734ZM78.6443 40.1108H76.824L78.3604 33.1739H80.191L78.6443 40.1108ZM79.5287 32.3267C79.2737 32.3267 79.0454 32.2457 78.8397 32.0837C78.634 31.9216 78.5312 31.674 78.5312 31.3384C78.5312 31.1532 78.5661 30.9796 78.634 30.8176C78.7019 30.6579 78.7965 30.5144 78.9117 30.3963C79.0269 30.2783 79.1605 30.1834 79.3107 30.1116C79.4629 30.0422 79.6254 30.0075 79.7961 30.0075C80.0491 30.0075 80.2794 30.0885 80.4851 30.2505C80.6888 30.4125 80.7916 30.6625 80.7916 30.9958C80.7916 31.181 80.7566 31.3546 80.6888 31.5189C80.6209 31.6786 80.5283 31.8221 80.4131 31.9402C80.2959 32.0605 80.1602 32.1554 80.0141 32.2226C79.8599 32.2943 79.6953 32.329 79.5287 32.3267Z" fill="#D9D9D9"/>
<path fill-rule="evenodd" clip-rule="evenodd" d="M81.7871 31.4448L83.6917 31.1277L83.2228 33.1715H85.2631L84.895 34.7802H82.8669L82.326 37.2059C82.2766 37.4096 82.2478 37.5971 82.2396 37.773C82.2314 37.9489 82.252 38.1017 82.3013 38.229C82.3548 38.3609 82.4474 38.4674 82.5666 38.5253C82.6921 38.597 82.8752 38.6317 83.1138 38.6317C83.3092 38.6317 83.5004 38.6109 83.6856 38.5716C83.8707 38.5322 84.0558 38.4767 84.245 38.4072L84.3807 39.9117C84.1195 40.0136 83.8522 40.0969 83.5827 40.1617C83.2948 40.2334 82.9554 40.2659 82.5625 40.2659C81.999 40.2659 81.5588 40.1756 81.2482 39.9974C80.9356 39.8168 80.7155 39.5692 80.5839 39.2567C80.4481 38.9187 80.3905 38.5507 80.4111 38.1827C80.4276 37.7776 80.4852 37.3517 80.5839 36.9027L81.7871 31.4448ZM85.185 37.3402C85.185 36.743 85.2755 36.1782 85.4544 35.6505C85.6354 35.1228 85.8925 34.6621 86.2298 34.2663C86.5651 33.8705 86.9723 33.5604 87.4516 33.3289C87.9308 33.0998 88.4656 32.9864 89.0559 32.9864C89.4261 32.9864 89.7552 33.0234 90.0452 33.0998C90.3352 33.1762 90.6005 33.2734 90.8391 33.396L90.2118 34.9283C90.0452 34.8566 89.8745 34.7918 89.7017 34.7362C89.4919 34.6737 89.2739 34.6459 89.0579 34.6506C88.4491 34.6506 87.9699 34.8751 87.612 35.3218C87.2562 35.7709 87.0772 36.3727 87.0772 37.1295C87.0772 37.5786 87.1677 37.942 87.3487 38.2174C87.5297 38.4952 87.8609 38.634 88.3442 38.634C88.7823 38.6317 89.2163 38.5391 89.6236 38.3586L89.7593 39.9279C89.5104 40.0298 89.2554 40.1177 88.9983 40.1872C88.7186 40.2589 88.3874 40.2983 88.0028 40.2983C87.4948 40.2983 87.0649 40.2172 86.7132 40.0599C86.3861 39.9187 86.0879 39.7011 85.8411 39.421C85.6128 39.1548 85.4421 38.8308 85.3433 38.4767C85.2364 38.1086 85.1829 37.7244 85.185 37.3402Z" fill="#D9D9D9"/>
<path d="M93.2662 40.296C92.8322 40.296 92.4537 40.2242 92.1349 40.083C91.8326 39.9557 91.5631 39.7543 91.341 39.4881C91.1291 39.2266 90.9687 38.9211 90.8679 38.5854C90.7568 38.2128 90.7034 37.8239 90.7095 37.4328C90.7095 36.905 90.7898 36.3773 90.9481 35.8496C91.1065 35.3218 91.343 34.8473 91.6557 34.4237C91.9663 34.0025 92.3488 33.6576 92.7972 33.3868C93.2476 33.1183 93.7639 32.984 94.346 32.984C94.7717 32.984 95.1481 33.0558 95.471 33.197C95.794 33.3382 96.0593 33.5372 96.2691 33.7919C96.4768 34.0465 96.6352 34.3474 96.7422 34.6946C96.8491 35.0418 96.9005 35.426 96.9005 35.8472C96.9005 36.375 96.8244 36.9027 96.6681 37.4304C96.518 37.9489 96.2835 38.4304 95.9791 38.8539C95.6685 39.2845 95.2798 39.6363 94.8417 39.8886C94.3912 40.1617 93.8647 40.296 93.2662 40.296ZM94.1753 34.6506C93.9058 34.6506 93.6672 34.7339 93.4636 34.9006C93.2579 35.0672 93.0872 35.2802 92.9473 35.5348C92.8054 35.794 92.7005 36.0787 92.6327 36.3727C92.5648 36.655 92.5319 36.9444 92.5298 37.236C92.5298 37.6758 92.5956 38.0184 92.7252 38.266C92.8568 38.5114 93.0934 38.634 93.4389 38.634C93.7104 38.634 93.947 38.5507 94.1526 38.3841C94.3563 38.2174 94.527 38.0068 94.6668 37.7499C94.8067 37.4953 94.9116 37.2152 94.9815 36.912C95.0494 36.6087 95.0844 36.3194 95.0844 36.0486C95.0844 35.6088 95.0186 35.2663 94.8869 35.0186C94.7573 34.7733 94.5208 34.6506 94.1753 34.6506ZM98.8853 40.1108H97.0651L98.6015 33.1738H100.434L98.8853 40.1108ZM99.7698 32.3267C99.523 32.329 99.2823 32.2434 99.0828 32.0837C98.8771 31.9216 98.7743 31.674 98.7743 31.3384C98.7743 31.1532 98.8092 30.9796 98.8792 30.8176C98.9471 30.6555 99.0417 30.5143 99.1548 30.3963C99.272 30.2759 99.4078 30.1787 99.5538 30.1116C99.704 30.0422 99.8664 30.0074 100.039 30.0074C100.294 30.0074 100.523 30.0885 100.728 30.2505C100.934 30.4125 101.037 30.6625 101.037 30.9958C101.037 31.181 101 31.3546 100.932 31.5189C100.864 31.6786 100.771 31.8221 100.656 31.9402C100.539 32.0605 100.403 32.1554 100.257 32.2225C100.103 32.2943 99.9364 32.329 99.7698 32.3267Z" fill="#D9D9D9"/>
<path fill-rule="evenodd" clip-rule="evenodd" d="M101.744 33.4886C101.882 33.447 102.036 33.3937 102.205 33.3382C102.618 33.2039 103.042 33.1114 103.472 33.0628C103.729 33.0303 104.023 33.0165 104.35 33.0165C105.309 33.0165 105.971 33.315 106.335 33.9145C106.701 34.5117 106.763 35.3311 106.526 36.368L105.689 40.1154H103.859L104.669 36.4467C104.718 36.2176 104.758 35.9954 104.786 35.7801C104.815 35.5926 104.813 35.4005 104.78 35.213C104.749 35.0556 104.669 34.9144 104.554 34.8172C104.433 34.7154 104.252 34.6645 104.005 34.6645C103.768 34.6645 103.528 34.6922 103.281 34.7455L102.088 40.1131H100.255L101.744 33.4886Z" fill="#D9D9D9"/>
<path fill-rule="evenodd" clip-rule="evenodd" d="M92.5099 8.53367L91.0636 4.93627L89.6256 8.53367H92.5099ZM106.385 12.427L106.376 5.36323L103.31 12.427H101.453L98.3822 5.35477V12.427H94.0847L93.2724 10.4148H88.8713L88.0508 12.427H85.7549L89.5385 3.40601H92.6798L96.2728 11.9451V3.40601H99.7208L102.485 9.52707L105.034 3.40601H108.552V12.427H106.385ZM111.917 10.5797V8.78308H116.559V6.94422H111.917V5.30404H117.218L119.53 7.9334L117.114 10.5797H111.917ZM126.235 12.4608H123.488L120.885 9.47212L118.179 12.4608H109.808V3.43982H118.308L120.91 6.3989L123.6 3.43982H126.36L122.253 7.95031L126.235 12.4608Z" fill="#D9D9D9"/>
<path fill-rule="evenodd" clip-rule="evenodd" d="M152.915 14.0412L153.115 13.9274C153.221 14.155 153.443 14.2688 153.715 14.2688C154.021 14.2688 154.197 14.1335 154.197 13.9274C154.197 13.7685 154.09 13.6784 153.843 13.6096L153.526 13.5302C153.161 13.4508 152.973 13.2811 152.973 13.0192C152.973 12.7014 153.244 12.4739 153.69 12.4739C154.054 12.4739 154.312 12.622 154.408 12.826L154.208 12.9398C154.114 12.7809 153.926 12.6907 153.679 12.6907C153.397 12.6907 153.221 12.8045 153.221 13.0085C153.221 13.1566 153.315 13.2468 153.575 13.3155L153.892 13.3949C154.281 13.4851 154.445 13.6569 154.445 13.9167C154.445 14.2452 154.174 14.4856 153.706 14.4856C153.315 14.4835 153.033 14.3139 152.915 14.0412ZM154.901 12.5297H155.147V14.4491H154.901V12.5297ZM157.815 14.4513V12.5297H157.536L156.76 13.6998L155.985 12.5297H155.727V14.4491H155.974V12.8947L156.667 13.951H156.878L157.571 12.8947V14.4513H157.815ZM159.886 13.1223C159.886 13.4851 159.639 13.7127 159.215 13.7127H158.651V14.4513H158.404V12.5297H159.215C159.65 12.5297 159.886 12.7573 159.886 13.1223ZM159.626 13.1223C159.626 12.8603 159.497 12.7465 159.191 12.7465H158.651V13.4959H159.191C159.497 13.4959 159.626 13.3821 159.626 13.1223ZM161.625 14.4513V14.2237H160.568V12.5297H160.321V14.4491H161.625V14.4513ZM163.4 14.2237V14.4513H162.014V12.5297H163.378V12.7573H162.274V13.3821H163.332V13.5989H162.274V14.2344L163.4 14.2237ZM164.129 14.1099H163.882L163.742 14.8485H163.931L164.129 14.1099ZM167.315 12.5297V14.4491H167.068V12.8947L166.375 13.951H166.175L165.482 12.8947V14.4513H165.235V12.5297H165.493L166.268 13.6998L167.033 12.5297H167.315ZM168.819 12.4846C168.208 12.4846 167.797 12.9269 167.797 13.4851C167.797 14.0412 168.208 14.4856 168.819 14.4856C169.43 14.4856 169.841 14.0434 169.841 13.4851C169.841 12.929 169.418 12.4846 168.819 12.4846ZM168.819 12.7122C169.265 12.7122 169.572 13.0407 169.572 13.4851C169.572 13.9274 169.265 14.2581 168.819 14.2581C168.372 14.2581 168.066 13.9296 168.066 13.4851C168.066 13.0407 168.372 12.7122 168.819 12.7122ZM171.969 12.5297V14.4491H171.733L170.547 12.9161V14.4491H170.3V12.5297H170.536L171.722 14.0627V12.5297H171.969ZM173.955 14.4513V14.2237L172.826 14.2344V13.5989H173.884V13.3821H172.826V12.7573H173.93V12.5297H172.566V14.4491H173.955V14.4513ZM175.952 12.5297L175.188 13.6547V14.4491H174.941V13.6547L174.177 12.5297H174.459L175.07 13.4379L175.681 12.5297H175.952ZM175.965 14.1443C175.872 14.1443 175.801 14.213 175.801 14.3031C175.801 14.4062 175.859 14.4728 175.965 14.4728C176.072 14.4728 176.141 14.4041 176.141 14.3031C176.141 14.2108 176.07 14.1443 175.965 14.1443Z" fill="#D9D9D9"/>
<path fill-rule="evenodd" clip-rule="evenodd" d="M173.873 1.23832C175.001 1.23832 175.87 1.50026 176.447 1.99838C176.987 2.46429 177.294 3.15779 177.294 3.94146C177.294 4.74876 177.047 5.4079 176.554 5.89528C175.919 6.53081 174.921 6.88293 173.744 6.88293C173.568 6.88293 173.379 6.87219 173.204 6.85931V10.052H171.465V1.44229L171.736 1.3972C172.391 1.29629 173.108 1.23832 173.873 1.23832ZM173.766 5.4079C174.424 5.4079 175.541 5.2254 175.541 3.99943C175.541 2.93235 174.648 2.70476 173.895 2.70476C173.602 2.70476 173.366 2.7155 173.202 2.73911V5.37569C173.355 5.39717 173.544 5.4079 173.766 5.4079ZM142.925 10.0649L146.015 1.29629H147.779L150.871 10.0649H149.014L148.121 7.50987H145.615L144.744 10.0649H142.925ZM146.743 4.12396L146.061 6.05416H147.683L147.001 4.1347C146.977 4.06599 146.957 3.99943 146.937 3.93073C146.917 3.86202 146.894 3.79546 146.872 3.72676C146.843 3.83626 146.808 3.93717 146.772 4.04238C146.763 4.07029 146.754 4.09605 146.743 4.12396ZM153.008 5.37355C153.008 5.61187 153.101 5.76002 153.937 6.07778C154.701 6.35046 155.723 6.86146 155.723 8.11104C155.723 9.34989 154.688 10.1894 153.148 10.1894C152.466 10.1894 151.784 10.0198 151.28 9.73421L151.055 9.60968L151.526 8.19048L151.88 8.39445C152.173 8.56407 152.69 8.7573 153.172 8.7573C153.49 8.7573 154.008 8.6886 154.008 8.21195C154.008 7.96289 153.95 7.74604 153.115 7.44975C152.279 7.15346 151.293 6.5759 151.293 5.49593C151.293 4.32579 152.304 3.47341 153.69 3.47341C154.325 3.47341 154.936 3.62155 155.347 3.88135L155.558 4.01661L155.087 5.40361L154.734 5.18675C154.545 5.0837 154.17 4.89046 153.677 4.89046C153.268 4.8969 153.008 5.07726 153.008 5.37355ZM158.462 2.07997L156.736 2.59097V3.59149H155.796V5.03431H156.736V7.89634C156.736 8.69075 156.9 9.27045 157.242 9.64618C157.571 9.9983 158.089 10.1915 158.664 10.1915C159.193 10.1915 159.568 10.0885 159.746 10.0327L159.981 9.95321L159.888 8.49966L159.488 8.61345C159.371 8.6478 159.231 8.66928 158.948 8.66928C158.737 8.66928 158.455 8.66928 158.455 7.85125V5.03217H160.03V3.58935H158.455L158.462 2.07997ZM163.929 3.49917L164.247 3.53352V5.20393L163.847 5.12449C163.765 5.11375 163.683 5.11375 163.54 5.11375C162.952 5.11375 162.518 5.53458 162.387 6.20446C162.363 6.31825 162.352 6.47713 162.352 6.63602V10.067H160.601V5.7364C160.601 5.00855 160.59 4.44173 160.555 3.94146L160.53 3.60008H162.163L162.187 4.07673C162.563 3.69026 163.069 3.47555 163.623 3.47555C163.74 3.47555 163.836 3.48844 163.929 3.49917ZM167.455 3.47555C165.504 3.47555 164.129 4.87328 164.129 6.88293C164.129 8.83675 165.458 10.2001 167.35 10.2001C168.961 10.2001 170.689 9.13304 170.689 6.77987C170.687 4.8282 169.359 3.47555 167.455 3.47555ZM168.912 6.81637C168.912 7.94142 168.277 8.77019 167.408 8.77019C166.537 8.77019 165.915 7.96289 165.915 6.85072C165.915 6.13575 166.233 4.90764 167.432 4.90764C168.594 4.90764 168.912 6.15722 168.912 6.81637ZM182.63 8.34936V6.16796C182.63 4.42884 181.701 3.47555 180.009 3.47555C179.22 3.47555 178.409 3.67952 177.834 4.03164L177.609 4.1669L178.08 5.50667L178.433 5.26834C178.798 5.03002 179.315 4.89261 179.833 4.89261C180.186 4.89261 180.444 4.97205 180.608 5.13093C180.751 5.26834 180.833 5.45943 180.855 5.72137C179.491 5.75572 178.48 6.07349 177.869 6.66393C177.447 7.07187 177.234 7.59575 177.234 8.20981C177.234 9.19745 177.987 10.198 179.409 10.198C180.02 10.198 180.595 10.0047 181.042 9.67624L181.088 10.0627H182.745L182.688 9.69986C182.652 9.34989 182.63 8.89472 182.63 8.34936ZM179.702 8.78092C179.444 8.78092 179.009 8.69075 179.009 8.08742C179.009 7.85984 179.08 7.6666 179.233 7.53134C179.433 7.3381 179.891 7.11051 180.915 7.08904V7.78254C180.915 7.82763 180.915 7.93069 180.879 8.02087C180.762 8.36225 180.373 8.78092 179.702 8.78092ZM186.191 7.22431L187.462 3.58935H189.33L187.531 8.16687C186.791 10.0649 186.227 11.2221 185.369 11.95C184.663 12.5297 184.041 12.6649 183.865 12.6993L183.572 12.7444L183.125 11.2908L183.432 11.2007C183.572 11.1663 183.925 11.031 184.278 10.7455L184.289 10.7347C184.596 10.4964 184.9 10.0992 185.111 9.66765C185.136 9.6333 185.158 9.57748 185.169 9.54313C185.162 9.53239 185.158 9.51736 185.149 9.49589C185.14 9.47442 185.129 9.44651 185.111 9.40571L185.1 9.39498L182.703 3.57861H184.616L186.002 7.23719C186.027 7.31663 186.06 7.40681 186.096 7.49913C186.113 7.45404 186.127 7.40895 186.142 7.36172C186.16 7.31663 186.173 7.27154 186.191 7.22431Z" fill="#D9D9D9"/>
<path d="M149.329 3.71602C150.458 2.6017 152.373 1.93182 154.454 1.93182C155.265 1.93182 156.054 2.03488 156.805 2.22811L156.862 2.23885L158.191 1.85238L157.591 1.63553C156.454 1.21685 155.15 1 153.797 1C151.846 1 150.011 1.45518 148.661 2.28394L148.518 2.37411L149.083 3.96508L149.329 3.71602Z" fill="#D9D9D9"/>
<path fill-rule="evenodd" clip-rule="evenodd" d="M230.311 5.25335C231.063 5.25335 231.674 4.65961 231.674 3.92868C231.674 3.19774 231.063 2.604 230.311 2.604C229.558 2.604 228.947 3.19774 228.947 3.92868C228.947 4.65961 229.558 5.25335 230.311 5.25335ZM219.866 5.96773C219.806 6.11675 219.362 7.33261 218.291 8.59342V3.2072L215.437 3.75363V13.516H218.291V10.4976C219.116 11.7017 219.525 13.516 219.525 13.516H222.944C222.606 12.1511 221.128 9.63187 221.128 9.63187C222.455 7.99731 223.039 6.25395 223.132 5.96536H219.866V5.96773ZM227.369 5.86601C224.812 5.94644 223.514 7.06058 223.514 9.27468V13.5184H226.302V10.0577C226.302 8.73062 226.48 8.1629 228.102 8.10849V5.90386C227.829 5.84709 227.369 5.86601 227.369 5.86601ZM210.652 7.04166C210.301 7.02037 209.493 6.96833 209.493 6.26105C209.493 5.40711 210.657 5.40711 211.095 5.40711C211.865 5.40711 212.858 5.62709 213.569 5.83526C213.569 5.83526 213.966 5.97009 214.302 6.10966L214.334 6.11675V3.77729L214.29 3.76546C213.452 3.47923 212.476 3.2072 210.669 3.2072C207.552 3.2072 206.447 4.97186 206.447 6.4834C206.447 7.3539 206.831 9.40478 210.401 9.64133C210.703 9.66025 211.507 9.7052 211.507 10.4361C211.507 11.0393 210.849 11.3965 209.744 11.3965C208.531 11.3965 207.355 11.0961 206.641 10.8122V13.2203C207.71 13.4923 208.916 13.6295 210.328 13.6295C213.377 13.6295 214.74 11.9595 214.74 10.306C214.743 8.42783 213.214 7.20961 210.652 7.04166ZM228.927 13.516H231.694V5.97482H228.927V13.516ZM236.902 3.6874V13.516H239.669V3.2072L236.902 3.6874ZM232.865 3.6874L235.629 3.2072V13.516H232.865V3.6874Z" fill="#D9D9D9"/>
<path d="M267.528 7.29995C267.52 7.07488 267.416 6.95847 267.212 6.95071H266.125C265.868 6.96623 265.735 7.10852 265.73 7.37757V9.35663C265.735 9.63344 265.883 9.77573 266.168 9.78349H267.163C267.268 9.78349 267.352 9.74469 267.421 9.66449C267.492 9.60499 267.525 9.52738 267.525 9.43424V7.29995H267.528ZM264.34 7.01797C264.347 6.52126 264.455 6.14614 264.666 5.88744C264.776 5.77879 264.916 5.68824 265.082 5.6158C265.258 5.53561 265.426 5.4968 265.59 5.4968H267.581C268.461 5.50456 268.908 5.99092 268.92 6.96106V9.9413C268.913 10.2854 268.78 10.5829 268.525 10.8338C268.27 11.0951 267.967 11.2296 267.615 11.2374H265.73V13.3872H264.34V7.01797Z" fill="#D9D9D9"/>
<path d="M271.438 9.49892C271.438 9.5817 271.476 9.64638 271.55 9.69553C271.616 9.75503 271.698 9.78608 271.802 9.78608H272.874C273.116 9.78608 273.241 9.69036 273.248 9.49892V9.09276C273.248 8.87027 273.121 8.75903 272.863 8.75903H271.802C271.662 8.75903 271.565 8.78231 271.512 8.82629C271.463 8.87803 271.438 8.98151 271.438 9.13674V9.49892ZM273.246 7.26374C273.254 7.04643 273.129 6.94295 272.871 6.95071H270.066V5.49939H273.225C274.146 5.51491 274.613 5.96505 274.628 6.85757V9.89473C274.621 10.2776 274.503 10.5958 274.279 10.8468C274.044 11.108 273.741 11.24 273.368 11.24H271.458C270.527 11.2322 270.058 10.8002 270.043 9.94647V8.77455C270.05 7.87945 270.499 7.42672 271.392 7.41119H273.246V7.26374Z" fill="#D9D9D9"/>
<path d="M278.543 11.9333C278.653 11.9255 278.75 11.8867 278.826 11.8143C278.9 11.747 278.938 11.6694 278.938 11.5815V11.2374H277.153C276.921 11.2374 276.735 11.2064 276.595 11.1468C276.447 11.0925 276.301 10.9916 276.156 10.8468C276.016 10.6941 275.916 10.5337 275.855 10.3656C275.791 10.2129 275.761 10.0189 275.761 9.78349V5.4968H277.153V9.323C277.153 9.63086 277.276 9.78349 277.525 9.78349H278.51C278.627 9.78349 278.729 9.74469 278.813 9.66449C278.895 9.59723 278.936 9.51703 278.936 9.42389V5.4968H280.318V11.8221C280.311 12.2903 280.193 12.6654 279.964 12.95C279.732 13.2346 279.415 13.3794 279.012 13.3872H275.761V11.9359H278.543" fill="#D9D9D9"/>
<path d="M281.415 9.78608H283.899C284.126 9.77832 284.243 9.68518 284.251 9.50927V9.37992C284.251 9.34111 284.241 9.29972 284.218 9.25574C284.162 9.14709 284.095 9.09276 284.014 9.09276H282.782C282.417 9.085 282.106 8.95823 281.843 8.71246C281.578 8.48481 281.443 8.20541 281.435 7.87686V6.7929C281.451 5.94694 281.902 5.5175 282.795 5.50198H285.674V6.9533H283.233C282.948 6.9533 282.802 7.04125 282.802 7.21976V7.35946C282.802 7.54313 282.95 7.63627 283.243 7.63627H284.47C284.797 7.64403 285.077 7.77079 285.309 8.01915C285.544 8.2675 285.666 8.56501 285.674 8.90908V9.96717C285.666 10.2647 285.531 10.5622 285.269 10.8571C285.141 11.002 285.011 11.1029 284.881 11.1598C284.746 11.2115 284.562 11.2374 284.33 11.2374H281.415V9.78608Z" fill="#D9D9D9"/>
<path d="M288.056 9.49892C288.056 9.5817 288.094 9.64638 288.168 9.69553C288.232 9.75503 288.316 9.78608 288.421 9.78608H289.492C289.734 9.78608 289.859 9.69036 289.867 9.49892V9.09276C289.867 8.87027 289.737 8.75903 289.482 8.75903H288.421C288.281 8.75903 288.186 8.78231 288.133 8.82629C288.084 8.87803 288.056 8.98151 288.056 9.13674V9.49892ZM289.867 7.26374C289.872 7.04643 289.747 6.94295 289.489 6.95071H286.684V5.49939H289.844C290.762 5.51491 291.231 5.96505 291.244 6.85757V9.89473C291.236 10.2776 291.119 10.5958 290.895 10.8468C290.66 11.108 290.357 11.24 289.984 11.24H288.071C287.143 11.2322 286.671 10.8002 286.658 9.94647V8.77455C286.664 7.87945 287.115 7.42672 288.008 7.41119H289.862V7.26374" fill="#D9D9D9"/>
<path d="M292.379 4.67413C292.387 4.2809 292.53 3.96787 292.81 3.73246C293.08 3.49186 293.437 3.37027 293.876 3.36251H294.761V4.76468H294.226C293.932 4.77244 293.782 4.91472 293.774 5.19153V5.49939H294.761V6.9533H293.774V11.24H292.379V4.67413Z" fill="#D9D9D9"/>
<path d="M298.724 7.23786V7.20423C298.724 7.12921 298.694 7.06712 298.635 7.01797C298.571 6.9714 298.49 6.95071 298.395 6.95071H297.426C297.301 6.95071 297.202 6.98692 297.123 7.05936C297.026 7.12662 296.977 7.21458 296.977 7.32324V7.90532L298.724 7.23786ZM296.998 9.28937V9.37992C296.998 9.49633 297.028 9.58946 297.087 9.65414C297.13 9.73951 297.189 9.78349 297.268 9.78349H300.13V11.2348H297.087C296.809 11.2348 296.592 11.2089 296.439 11.1546C296.271 11.0977 296.123 11.0072 295.99 10.8804C295.837 10.7278 295.733 10.5699 295.679 10.4096C295.621 10.2414 295.593 10.0189 295.593 9.7421L295.58 6.83688C295.595 5.95988 296.047 5.51233 296.937 5.4968H298.816C299.683 5.51233 300.125 5.9754 300.137 6.88603V8.03467L296.998 9.28937Z" fill="#D9D9D9"/>
<path d="M303.091 11.2374C302.879 11.2374 302.688 11.2167 302.512 11.1805C302.328 11.1494 302.147 11.0641 301.961 10.9192C301.77 10.751 301.637 10.5596 301.566 10.3526C301.489 10.1457 301.451 9.91284 301.451 9.65155V6.94036C301.443 6.72046 301.464 6.52644 301.515 6.35828C301.561 6.19012 301.66 6.02714 301.808 5.86416C301.979 5.696 302.15 5.58217 302.333 5.52785C302.509 5.48387 302.708 5.46059 302.93 5.46059H305.065V5.79948H302.979C302.611 5.79948 302.321 5.87709 302.109 6.02973C301.892 6.19788 301.782 6.48504 301.782 6.89379V9.60499C301.782 9.79643 301.81 9.98269 301.869 10.1612C301.928 10.3371 302.025 10.4923 302.165 10.6269C302.318 10.7433 302.468 10.8157 302.616 10.8468C302.769 10.8804 302.935 10.8985 303.109 10.8985H305.101V11.2374H303.091Z" fill="#D9D9D9"/>
<path d="M310.561 7.72164H307.761C307.426 7.7294 307.164 7.83547 306.973 8.03725C306.776 8.24421 306.679 8.5262 306.679 8.88321V9.74727C306.679 9.91543 306.697 10.0681 306.733 10.2052C306.768 10.35 306.855 10.4794 306.995 10.5906C307.238 10.795 307.506 10.8933 307.799 10.8933H309.495C310.204 10.8856 310.561 10.5079 310.561 9.75503V7.72164ZM310.892 9.67484C310.892 9.89215 310.877 10.0836 310.849 10.2543C310.803 10.438 310.711 10.6139 310.571 10.7821C310.278 11.0951 309.916 11.2477 309.485 11.24H307.819C307.386 11.24 307.036 11.108 306.763 10.8468C306.485 10.5881 306.345 10.231 306.345 9.77056V8.89614C306.358 7.91049 306.842 7.40602 307.796 7.38274H310.571V6.99986C310.571 6.68424 310.482 6.41002 310.303 6.17202C310.189 6.01679 310.056 5.9159 309.903 5.86157C309.75 5.82018 309.576 5.79948 309.383 5.79948H306.358V5.46059H309.227C309.49 5.46059 309.727 5.47869 309.941 5.51491C310.051 5.53819 310.153 5.57959 310.245 5.64426C310.342 5.70376 310.433 5.79172 310.52 5.90814C310.778 6.24445 310.903 6.6325 310.898 7.06971V9.67484" fill="#D9D9D9"/>
<path d="M314.024 5.79948C313.249 5.81501 312.864 6.24445 312.879 7.09041V11.2374H312.545V7.09299C312.53 6.00386 313.04 5.46059 314.078 5.46059H314.448V5.79948H314.024Z" fill="#D9D9D9"/>
<path d="M319.666 5.80207H317.026C316.835 5.80207 316.667 5.82277 316.511 5.86416C316.35 5.90038 316.195 5.99868 316.049 6.16166C315.909 6.30912 315.822 6.454 315.787 6.59887C315.738 6.74633 315.715 6.92225 315.723 7.12663V9.77056C315.723 10.2104 315.848 10.5104 316.103 10.6708C316.228 10.7459 316.366 10.8002 316.521 10.839C316.674 10.8804 316.848 10.9011 317.036 10.9011H318.189C318.62 10.9011 318.972 10.8002 319.243 10.5984C319.515 10.407 319.653 10.0784 319.663 9.61016V5.80207H319.666ZM319.997 9.63345C319.967 10.7278 319.398 11.2633 318.286 11.2426H317.049C316.789 11.2426 316.554 11.2193 316.348 11.1753C316.136 11.1184 315.932 10.989 315.736 10.7821C315.588 10.5984 315.493 10.4121 315.455 10.2207C315.404 10.0293 315.381 9.81712 315.389 9.58688V7.11886C315.404 6.00645 315.955 5.45541 317.047 5.46317H319.666V3.59017H320V9.63345" fill="#D9D9D9"/>
<path d="M256.599 5.2795C256.709 5.23034 256.819 5.19153 256.928 5.16825C257.13 4.19295 257.979 3.46341 258.999 3.46341C260.019 3.46341 260.871 4.19553 261.07 5.16825C261.384 5.22775 261.642 5.3571 261.843 5.54854C261.851 5.36228 261.843 5.18119 261.823 5.01303C261.693 3.54102 260.476 2.38721 258.994 2.38721C257.466 2.38721 256.224 3.61604 256.158 5.15014C256.15 5.28208 256.145 5.42178 256.15 5.56406C256.281 5.45541 256.426 5.35711 256.599 5.2795Z" fill="#D9D9D9"/>
<path d="M260.657 5.49939H257.252C257.089 5.49939 256.918 5.5382 256.745 5.61839C256.576 5.69342 256.439 5.78396 256.326 5.89003C256.115 6.14873 256.008 6.52385 256 7.02056V9.71881C256.008 10.2155 256.115 10.5906 256.326 10.8468C256.436 10.9554 256.576 11.046 256.745 11.121C256.921 11.1986 257.089 11.2374 257.252 11.2374H260.654C261.534 11.2296 261.981 10.7407 261.993 9.77314V6.96106C261.983 5.99351 261.534 5.50715 260.657 5.49939Z" fill="#D9D9D9"/>
<path d="M69.2571 7.80539C69.2571 11.1205 66.5958 13.8085 63.3137 13.8085C61.9814 13.8085 60.6887 13.3566 59.6404 12.5245C58.2057 11.3873 57.3687 9.64803 57.3703 7.80539C57.3687 5.96276 58.2057 4.22352 59.6404 3.08626C62.2208 1.03685 65.9569 1.48875 67.9859 4.09512C68.8097 5.15401 69.2571 6.45969 69.2571 7.80539Z" stroke="#D9D9D9" stroke-width="2" stroke-miterlimit="10"/>
<path d="M61.9105 7.80542C61.9105 11.1205 59.2492 13.8086 55.9671 13.8086C54.6348 13.8086 53.3421 13.3567 52.2937 12.5246C50.8591 11.3873 50.022 9.64806 50.0237 7.80542C50.022 5.96279 50.8591 4.22355 52.2937 3.08629C54.8742 1.03688 58.6103 1.48878 60.6393 4.09515C61.4631 5.15404 61.9105 6.45972 61.9105 7.80542Z" stroke="#D9D9D9" stroke-width="2" stroke-miterlimit="10"/>
<path d="M19.28 11.1081C18.3203 11.1235 17.3727 10.9003 16.522 10.4555L16.0378 12.7137C16.9871 13.0812 17.9987 13.265 19.0172 13.2564C21.8357 13.2547 23.6772 11.8431 23.7014 9.73423C23.717 7.01059 19.944 6.8629 19.944 5.64534C19.9526 5.28127 20.3036 4.88458 21.0852 4.78497C21.9948 4.70254 22.9077 4.86397 23.7325 5.25036L24.2011 3.06252C23.3971 2.762 22.5446 2.60744 21.6852 2.604C19.0362 2.604 17.1549 4.00875 17.1549 6.00941C17.1549 7.49144 18.4517 8.29857 19.4979 8.81032C20.544 9.32207 20.8881 9.63977 20.8881 10.0983C20.8414 10.7904 20.0616 11.1081 19.28 11.1081Z" fill="#D9D9D9"/>
<path d="M6.99959 9.78918L5.867 3.83016C5.77362 3.22567 5.24969 2.77745 4.63239 2.77573H0.0622493L0 3.0797C0.916448 3.26173 1.80523 3.55539 2.64905 3.95723C3.00872 4.12553 3.25253 4.47071 3.28884 4.86569L5.3984 13.0967H8.22555L12.6089 2.80665H9.79562L6.99959 9.78918Z" fill="#D9D9D9"/>
<path d="M11.5144 13.095H14.2257L16.4131 2.79119H13.7329L11.5144 13.095Z" fill="#D9D9D9"/>
<path d="M28.7626 2.77573C28.2577 2.77745 27.8047 3.08485 27.6214 3.55195L23.5977 13.095H26.4093L26.9712 11.5425H30.4088L30.7373 13.095L33.2221 13.0795L31.0589 2.77573H28.7626ZM27.7009 9.44915L29.1154 5.57836L29.9281 9.44915H27.7009Z" fill="#D9D9D9"/>
</g>
</svg>
