<svg width="1182" height="79" viewBox="0 0 1182 79" fill="none" xmlns="http://www.w3.org/2000/svg">
<g opacity="0.5">
<path fill-rule="evenodd" clip-rule="evenodd" d="M270.81 14.627L268.067 7.87302L265.34 14.627H270.81ZM297.121 21.9365L297.105 8.6746L291.29 21.9365H287.769L281.946 8.65873V21.9365H273.796L272.256 18.1587H263.91L262.354 21.9365H258L265.175 5H271.132L277.945 21.0317V5H284.484L289.726 16.4921L294.559 5H301.231V21.9365H297.121ZM307.612 18.4683V15.0952H316.414V11.6429H307.612V8.56349H317.664L322.049 13.5L317.467 18.4683H307.612ZM334.764 22H329.554L324.619 16.3889L319.487 22H303.612V5.06349H319.73L324.666 10.619L329.766 5.06349H335L327.212 13.5317L334.764 22Z" fill="#D9D9D9"/>
<path fill-rule="evenodd" clip-rule="evenodd" d="M941.838 3C934.19 3 928 7.16531 928 12.3422C928 14.5347 929.121 16.5441 931.017 18.1645C930.086 16.8371 929.554 15.3586 929.554 13.7795C929.554 8.42406 935.618 4.07566 943.08 4.07566C947.902 4.07566 952.13 5.87451 954.524 8.60256C952.382 5.29778 947.499 3 941.838 3Z" fill="#D9D9D9"/>
<path fill-rule="evenodd" clip-rule="evenodd" d="M936.566 10.8775C936.964 10.5204 937.462 10.3419 938.05 10.3419C938.626 10.3419 939.119 10.525 939.526 10.8912C939.933 11.2528 940.154 11.7197 940.197 12.2873H935.804C935.917 11.7014 936.168 11.2345 936.566 10.8775ZM941.517 14.4294C942.084 14.4294 942.535 14.3013 942.881 14.0449C943.279 13.7611 943.478 13.3492 943.478 12.8091C943.478 11.8112 943.175 10.8866 942.569 10.0352C941.963 9.18387 941.188 8.54307 940.241 8.1128C939.583 7.81528 938.842 7.66881 938.033 7.66881C936.397 7.66881 935.055 8.24096 933.999 9.38985C932.947 10.5387 932.424 11.9211 932.424 13.5414C932.424 15.1755 932.973 16.5487 934.073 17.6655C935.172 18.7824 936.548 19.3362 938.198 19.3362C939.076 19.3362 939.925 19.2035 940.734 18.9334C941.695 18.6222 942.4 18.169 942.838 17.5786C943.084 17.2536 943.21 16.9286 943.21 16.6082C943.21 15.7568 942.768 15.3311 941.89 15.3311C941.699 15.3311 941.201 15.5097 940.405 15.8667C939.609 16.2237 938.925 16.4022 938.362 16.4022C937.687 16.4022 937.115 16.2328 936.652 15.8987C936.185 15.56 935.917 15.0748 935.847 14.4386L941.517 14.4294ZM945.036 17.6426C946.105 18.7686 947.521 19.3271 949.282 19.3271C950.339 19.3271 951.217 19.1669 951.927 18.8373C952.91 18.375 953.403 17.8166 953.403 17.1529C953.403 16.7592 953.277 16.4251 953.022 16.1459C952.771 15.8667 952.442 15.7294 952.035 15.7294C951.758 15.7294 951.412 15.8117 950.992 15.9719C950.572 16.1322 950.118 16.2145 949.629 16.2145C948.789 16.2145 948.14 15.9445 947.677 15.4044C947.274 14.9146 947.071 14.2646 947.071 13.4545C947.071 12.6809 947.265 12.0401 947.655 11.5229C948.088 10.9507 948.702 10.6669 949.499 10.6669C949.992 10.6669 950.455 10.7539 950.897 10.9187C951.338 11.088 951.693 11.175 951.97 11.175C952.39 11.175 952.736 11.0377 953.009 10.7676C953.286 10.4975 953.42 10.1634 953.42 9.77435C953.42 9.01453 952.944 8.44694 951.988 8.06703C951.282 7.79697 950.451 7.65965 949.495 7.65965C947.672 7.65965 946.214 8.20434 945.119 9.29373C944.019 10.3831 943.474 11.7883 943.474 13.5094C943.478 15.1847 943.998 16.5624 945.036 17.6426ZM957.692 11.6144C958.121 11.0377 958.731 10.7493 959.515 10.7493C960.285 10.7493 960.887 11.0468 961.315 11.6373C961.7 12.1454 961.891 12.7633 961.891 13.4911C961.891 14.2418 961.705 14.8688 961.337 15.3632C960.904 15.9536 960.298 16.2512 959.515 16.2512C958.744 16.2512 958.143 15.9536 957.714 15.3632C957.329 14.8551 957.134 14.228 957.134 13.4911C957.134 12.7496 957.32 12.1271 957.692 11.6144ZM955.091 17.6152C956.247 18.7549 957.723 19.3271 959.515 19.3271C961.324 19.3271 962.8 18.7595 963.938 17.6335C965.033 16.535 965.583 15.1572 965.583 13.5048C965.583 11.8433 965.029 10.4518 963.917 9.33492C962.804 8.22265 961.337 7.66423 959.515 7.66423C957.723 7.66423 956.26 8.22266 955.126 9.34409C953.992 10.4655 953.425 11.8524 953.425 13.5048C953.425 15.148 953.979 16.5166 955.091 17.6152Z" fill="#D9D9D9"/>
<path fill-rule="evenodd" clip-rule="evenodd" d="M1009.69 16.448H1006.03L1010.95 11.1429C1011.45 10.6028 1011.71 10.1497 1011.71 9.77434C1011.71 9.36239 1011.52 9.10606 1011.13 8.9962C1010.75 8.88635 1010.16 8.83599 1009.36 8.83599H1003.43C1001.85 8.83599 1001.06 9.30287 1001.06 10.2366C1001.06 11.1841 1001.84 11.6602 1003.4 11.6602H1006.59L1001.5 17.1803C1001.13 17.5786 1000.95 17.9768 1000.95 18.3704C1000.95 19.0112 1001.6 19.3316 1002.9 19.3316H1009.66C1011.22 19.3316 1012 18.8602 1012 17.9081C1012 16.9332 1011.23 16.448 1009.69 16.448Z" fill="#D9D9D9"/>
<path fill-rule="evenodd" clip-rule="evenodd" d="M970.136 16.9149V14.3562H972.465C974.101 14.3562 975.387 13.9122 976.33 13.0196C977.269 12.1316 977.741 10.8775 977.741 9.26169C977.741 7.63218 977.222 6.36429 976.183 5.46257C975.201 4.59747 973.867 4.16721 972.192 4.16721H969.076C968.176 4.16721 967.552 4.34571 967.206 4.69816C966.86 5.05519 966.687 5.6777 966.687 6.56569V16.9057C966.687 18.5215 967.262 19.3271 968.414 19.3271C969.561 19.3317 970.136 18.5261 970.136 16.9149ZM970.136 7.31178H971.634C973.214 7.31178 974.002 7.96175 974.002 9.26169C974.002 10.5891 973.214 11.2528 971.634 11.2528H970.136V7.31178Z" fill="#D9D9D9"/>
<path fill-rule="evenodd" clip-rule="evenodd" d="M987.682 19.4182C988.833 19.4182 989.413 18.6034 989.413 16.9785V10.2637C989.413 8.65246 988.837 7.84687 987.682 7.84687C986.976 7.84687 986.422 8.19931 986.015 8.89963C985.314 8.10319 984.375 7.70039 983.206 7.70039C981.609 7.70039 980.289 8.31832 979.25 9.55876C978.276 10.7122 977.783 12.0671 977.783 13.6234C977.783 15.1613 978.25 16.5025 979.189 17.6468C980.211 18.8872 981.509 19.5051 983.081 19.5051C984.319 19.5051 985.297 19.084 986.02 18.2464C986.366 19.0245 986.92 19.4182 987.682 19.4182ZM981.955 11.7421C982.371 11.1791 982.938 10.8953 983.656 10.8953C984.388 10.8953 984.955 11.1745 985.353 11.7421C985.695 12.2364 985.868 12.8498 985.868 13.5776C985.868 14.3054 985.695 14.9279 985.353 15.436C984.951 16.0127 984.384 16.3011 983.656 16.3011C982.925 16.3011 982.349 16.0127 981.934 15.436C981.574 14.9279 981.397 14.3054 981.397 13.5776C981.397 12.8635 981.583 12.2502 981.955 11.7421ZM997.52 9.16512L995.377 14.4885L993.391 9.45348C993.174 8.89047 992.98 8.51057 992.806 8.31833C992.521 8.00249 992.123 7.84229 991.616 7.84229C991.127 7.84229 990.72 8.00249 990.396 8.31833C990.071 8.63416 989.911 9.0278 989.911 9.49468C989.911 9.82425 989.976 10.1355 990.106 10.4239L993.629 18.283L992.192 21.272C992.001 21.6976 991.902 22.073 991.902 22.4025C991.902 22.8923 992.062 23.286 992.378 23.5697C992.694 23.8581 993.114 24 993.633 24C994.252 24 994.763 23.5514 995.17 22.6589L1000.51 10.5886C1000.69 10.163 1000.79 9.77847 1000.79 9.43518C1000.79 8.37783 1000.21 7.84687 999.061 7.84687C998.39 7.84229 997.879 8.28629 997.52 9.16512Z" fill="#D9D9D9"/>
<path fill-rule="evenodd" clip-rule="evenodd" d="M432.945 24.4843L433.324 24.2707C433.526 24.698 433.947 24.9116 434.461 24.9116C435.043 24.9116 435.375 24.6577 435.375 24.2707C435.375 23.9724 435.173 23.8031 434.706 23.6741L434.103 23.525C433.412 23.3758 433.054 23.0574 433.054 22.5656C433.054 21.969 433.568 21.5417 434.415 21.5417C435.106 21.5417 435.595 21.8198 435.776 22.2028L435.397 22.4164C435.22 22.1181 434.862 21.9488 434.394 21.9488C433.859 21.9488 433.526 22.1625 433.526 22.5454C433.526 22.8236 433.703 22.9929 434.196 23.1219L434.798 23.271C435.536 23.4403 435.847 23.7628 435.847 24.2505C435.847 24.8673 435.333 25.3188 434.444 25.3188C433.703 25.3147 433.168 24.9963 432.945 24.4843ZM436.711 21.6465H437.179V25.2502H436.711V21.6465ZM442.238 25.2543V21.6465H441.707L440.237 23.8434L438.767 21.6465H438.278V25.2502H438.746V22.3318L440.06 24.315H440.46L441.775 22.3318V25.2543H442.238ZM446.164 22.7591C446.164 23.4403 445.697 23.8676 444.892 23.8676H443.822V25.2543H443.354V21.6465H444.892C445.718 21.6465 446.164 22.0738 446.164 22.7591ZM445.671 22.7591C445.671 22.2673 445.427 22.0536 444.846 22.0536H443.822V23.4605H444.846C445.427 23.4605 445.671 23.2468 445.671 22.7591ZM449.463 25.2543V24.827H447.458V21.6465H446.99V25.2502H449.463V25.2543ZM452.829 24.827V25.2543H450.2V21.6465H452.787V22.0738H450.693V23.2468H452.698V23.654H450.693V24.8471L452.829 24.827ZM454.211 24.6133H453.743L453.478 26H453.836L454.211 24.6133ZM460.252 21.6465V25.2502H459.784V22.3318L458.47 24.315H458.091L456.776 22.3318V25.2543H456.309V21.6465H456.797L458.268 23.8434L459.717 21.6465H460.252ZM463.104 21.5619C461.945 21.5619 461.166 22.3922 461.166 23.4403C461.166 24.4843 461.945 25.3188 463.104 25.3188C464.262 25.3188 465.042 24.4884 465.042 23.4403C465.042 22.3963 464.241 21.5619 463.104 21.5619ZM463.104 21.9891C463.95 21.9891 464.532 22.6059 464.532 23.4403C464.532 24.2707 463.95 24.8915 463.104 24.8915C462.257 24.8915 461.676 24.2747 461.676 23.4403C461.676 22.6059 462.257 21.9891 463.104 21.9891ZM469.077 21.6465V25.2502H468.631L466.381 22.3721V25.2502H465.914V21.6465H466.36L468.61 24.5246V21.6465H469.077ZM472.844 25.2543V24.827L470.704 24.8471V23.654H472.709V23.2468H470.704V22.0738H472.797V21.6465H470.211V25.2502H472.844V25.2543ZM476.631 21.6465L475.182 23.7588V25.2502H474.714V23.7588L473.265 21.6465H473.8L474.958 23.3516L476.117 21.6465H476.631ZM476.656 24.6778C476.479 24.6778 476.344 24.8068 476.344 24.9761C476.344 25.1696 476.454 25.2946 476.656 25.2946C476.858 25.2946 476.989 25.1656 476.989 24.9761C476.989 24.8028 476.854 24.6778 476.656 24.6778Z" fill="#D9D9D9"/>
<path fill-rule="evenodd" clip-rule="evenodd" d="M472.688 0.447442C474.828 0.447442 476.475 0.939225 477.57 1.87442C478.594 2.74915 479.175 4.05116 479.175 5.52248C479.175 7.03814 478.708 8.27566 477.773 9.1907C476.568 10.3839 474.676 11.045 472.443 11.045C472.111 11.045 471.753 11.0248 471.42 11.0006V16.9947H468.121V0.830387L468.635 0.745736C469.878 0.556279 471.239 0.447442 472.688 0.447442ZM472.486 8.27566C473.732 8.27566 475.851 7.93302 475.851 5.63132C475.851 3.62791 474.158 3.20062 472.73 3.20062C472.174 3.20062 471.727 3.22077 471.415 3.26512V8.21519C471.706 8.2555 472.064 8.27566 472.486 8.27566ZM414 17.0189L419.86 0.556279H423.205L429.069 17.0189H425.547L423.854 12.222H419.102L417.45 17.0189H414ZM421.242 5.86512L419.948 9.48899H423.024L421.73 5.88527C421.684 5.75628 421.646 5.63132 421.608 5.50233C421.57 5.37333 421.528 5.24837 421.486 5.11938C421.431 5.32496 421.364 5.51442 421.296 5.71194C421.28 5.76434 421.263 5.81271 421.242 5.86512ZM433.122 8.21116C433.122 8.6586 433.299 8.93674 434.883 9.53333C436.332 10.0453 438.27 11.0047 438.27 13.3507C438.27 15.6766 436.306 17.2527 433.387 17.2527C432.094 17.2527 430.8 16.9343 429.844 16.3981L429.419 16.1643L430.312 13.4998L430.982 13.8828C431.538 14.2012 432.519 14.564 433.433 14.564C434.036 14.564 435.017 14.435 435.017 13.5402C435.017 13.0726 434.908 12.6654 433.324 12.1091C431.74 11.5529 429.869 10.4685 429.869 8.44093C429.869 6.24403 431.786 4.64372 434.415 4.64372C435.62 4.64372 436.778 4.92186 437.558 5.40961L437.958 5.66357L437.065 8.2676L436.395 7.86046C436.037 7.66698 435.325 7.30419 434.39 7.30419C433.615 7.31628 433.122 7.65488 433.122 8.21116ZM443.464 2.0276L440.191 2.98698V4.86543H438.409V7.57426H440.191V12.9476C440.191 14.4391 440.502 15.5274 441.151 16.2329C441.775 16.894 442.756 17.2567 443.847 17.2567C444.85 17.2567 445.562 17.0633 445.899 16.9584L446.345 16.8093L446.169 14.0803L445.41 14.294C445.187 14.3584 444.922 14.3988 444.387 14.3988C443.986 14.3988 443.451 14.3988 443.451 12.8629V7.57023H446.438V4.86139H443.451L443.464 2.0276ZM453.831 4.69209L454.434 4.75659V7.89271L453.676 7.74356C453.52 7.72341 453.364 7.72341 453.094 7.72341C451.978 7.72341 451.156 8.51349 450.908 9.77116C450.862 9.98481 450.84 10.2831 450.84 10.5814V17.0229H447.521V8.8924C447.521 7.52589 447.5 6.46171 447.432 5.52248L447.386 4.88155H450.482L450.529 5.77643C451.241 5.05085 452.201 4.64775 453.25 4.64775C453.473 4.64775 453.655 4.67194 453.831 4.69209ZM460.517 4.64775C456.818 4.64775 454.211 7.27194 454.211 11.045C454.211 14.7132 456.73 17.2729 460.319 17.2729C463.373 17.2729 466.651 15.2695 466.651 10.8515C466.647 7.18729 464.127 4.64775 460.517 4.64775ZM463.281 10.92C463.281 13.0322 462.076 14.5882 460.429 14.5882C458.777 14.5882 457.598 13.0726 457.598 10.9845C457.598 9.64217 458.2 7.33643 460.475 7.33643C462.678 7.33643 463.281 9.68248 463.281 10.92ZM489.294 13.7981V9.70263C489.294 6.43752 487.533 4.64775 484.323 4.64775C482.828 4.64775 481.29 5.0307 480.199 5.69178L479.774 5.94574L480.667 8.46108L481.336 8.01364C482.027 7.5662 483.009 7.30822 483.991 7.30822C484.66 7.30822 485.149 7.45736 485.461 7.75566C485.73 8.01364 485.886 8.3724 485.928 8.86419C483.342 8.92868 481.425 9.52527 480.266 10.6338C479.466 11.3997 479.062 12.3833 479.062 13.5361C479.062 15.3904 480.49 17.2688 483.186 17.2688C484.344 17.2688 485.435 16.906 486.282 16.2893L486.371 17.0149H489.513L489.404 16.3336C489.336 15.6766 489.294 14.822 489.294 13.7981ZM483.742 14.6084C483.253 14.6084 482.428 14.4391 482.428 13.3064C482.428 12.8791 482.562 12.5163 482.853 12.2623C483.232 11.8995 484.1 11.4722 486.042 11.4319V12.734C486.042 12.8186 486.042 13.0121 485.975 13.1814C485.751 13.8223 485.014 14.6084 483.742 14.6084ZM496.047 11.6859L498.457 4.86139H502L498.588 13.4555C497.185 17.0189 496.115 19.1916 494.489 20.5581C493.149 21.6465 491.969 21.9005 491.637 21.965L491.081 22.0496L490.234 19.3206L490.815 19.1513C491.081 19.0868 491.75 18.8329 492.42 18.2967L492.441 18.2766C493.023 17.8291 493.6 17.0834 494 16.2732C494.046 16.2087 494.088 16.1039 494.11 16.0394C494.097 16.0192 494.088 15.991 494.072 15.9507C494.055 15.9104 494.034 15.858 494 15.7814L493.979 15.7612L489.433 4.84124H493.061L495.689 11.7101C495.736 11.8592 495.799 12.0285 495.866 12.2019C495.9 12.1172 495.925 12.0326 495.955 11.9439C495.988 11.8592 496.014 11.7746 496.047 11.6859Z" fill="#D9D9D9"/>
<path d="M426.145 5.09922C428.285 3.00713 431.917 1.74946 435.864 1.74946C437.402 1.74946 438.897 1.94295 440.321 2.30574L440.431 2.32589L442.95 1.60031L441.813 1.19318C439.656 0.407132 437.183 0 434.617 0C430.918 0 427.439 0.854574 424.877 2.41054L424.608 2.57984L425.678 5.56682L426.145 5.09922Z" fill="#D9D9D9"/>
<g opacity="0.8">
<path d="M207.036 66.6843C207.036 66.8881 206.871 67.062 206.657 67.062H199.724C199.904 68.8214 201.189 70.4267 203.009 70.4267C204.256 70.4267 205.177 69.9446 205.866 68.9258C205.939 68.8214 206.046 68.7419 206.172 68.7419C206.371 68.7419 206.516 68.891 206.516 69.0948C206.516 69.1594 206.497 69.224 206.463 69.2787C205.764 70.5212 204.367 71.1325 203.009 71.1325C200.675 71.1325 199.001 68.9904 199.001 66.7091C199.001 64.413 200.665 62.2809 203.009 62.2809C205.342 62.2809 207.026 64.4031 207.036 66.6843ZM206.293 66.3563C206.148 64.5969 204.828 62.9916 203.004 62.9916C201.184 62.9916 199.899 64.5969 199.719 66.3563H206.293ZM215.468 62.4548C215.667 62.4548 215.812 62.6387 215.812 62.8077C215.812 63.0115 215.667 63.1606 215.468 63.1606H213.605V70.6504C213.605 70.8343 213.459 71.0032 213.26 71.0032C213.071 70.9983 212.921 70.8442 212.916 70.6504V63.1606H211.125C210.941 63.1655 210.786 63.0164 210.781 62.8276C210.781 62.8226 210.781 62.8127 210.781 62.8077C210.781 62.6238 210.931 62.4548 211.125 62.4548H212.916V59.7213C212.916 59.5374 213.052 59.3685 213.231 59.3486C213.449 59.3287 213.619 59.4877 213.619 59.7014V62.4548H215.468ZM226.825 66.073V70.6106C226.825 70.8144 226.646 70.9635 226.481 70.9635C226.297 70.9684 226.141 70.8193 226.136 70.6305C226.136 70.6255 226.136 70.6156 226.136 70.6106V66.073C226.136 64.5422 225.287 63.0164 223.623 63.0164C221.489 63.0164 220.567 64.9249 220.693 66.8881C220.693 66.9428 220.712 67.1664 220.712 67.2012V70.5957C220.712 70.7796 220.576 70.9486 220.397 70.9734C220.208 70.9983 220.038 70.8641 220.014 70.6703C220.014 70.6504 220.009 70.6355 220.009 70.6156V55.7105C220.009 55.5266 220.154 55.3577 220.353 55.3577C220.552 55.3577 220.698 55.5415 220.698 55.7105V64.1347C221.295 63.0413 222.362 62.3008 223.604 62.3008C225.661 62.3057 226.825 64.1347 226.825 66.073ZM239.284 66.6843C239.284 66.8881 239.115 67.062 238.906 67.062H231.968C232.148 68.8214 233.433 70.4267 235.258 70.4267C236.5 70.4267 237.421 69.9446 238.115 68.9258C238.188 68.8214 238.295 68.7419 238.421 68.7419C238.62 68.7419 238.765 68.891 238.765 69.0948C238.765 69.1594 238.746 69.224 238.712 69.2787C238.013 70.5212 236.616 71.1325 235.258 71.1325C232.924 71.1325 231.25 68.9904 231.25 66.7091C231.25 64.413 232.914 62.2809 235.258 62.2809C237.577 62.2809 239.275 64.4031 239.284 66.6843ZM238.532 66.3563C238.387 64.5969 237.067 62.9916 235.243 62.9916C233.424 62.9916 232.138 64.5969 231.958 66.3563H238.532ZM247.814 62.7829C247.814 63.0065 247.688 63.1357 247.489 63.1705C245.451 63.4836 244.529 65.1834 244.529 67.1664V70.5659C244.529 70.7498 244.393 70.9188 244.214 70.9436C244.025 70.9685 243.855 70.8343 243.83 70.6404C243.83 70.6206 243.826 70.6057 243.826 70.5858V62.8375C243.826 62.6536 243.961 62.4846 244.141 62.4598C244.359 62.4399 244.529 62.599 244.529 62.8127V64.3882C245.106 63.3892 246.247 62.4499 247.44 62.4499C247.615 62.4548 247.814 62.5841 247.814 62.7829ZM259.215 66.6843C259.215 66.8881 259.045 67.062 258.837 67.062H251.894C252.073 68.8214 253.359 70.4267 255.183 70.4267C256.425 70.4267 257.347 69.9446 258.041 68.9258C258.114 68.8214 258.221 68.7419 258.347 68.7419C258.546 68.7419 258.691 68.891 258.691 69.0948C258.691 69.1594 258.672 69.224 258.638 69.2787C257.939 70.5212 256.547 71.1325 255.183 71.1325C252.85 71.1325 251.176 68.9904 251.176 66.7091C251.176 64.413 252.84 62.2809 255.183 62.2809C257.517 62.2809 259.205 64.4031 259.215 66.6843ZM258.473 66.3563C258.327 64.5969 257.008 62.9916 255.188 62.9916C253.369 62.9916 252.078 64.5969 251.899 66.3563C251.904 66.3563 258.473 66.3563 258.473 66.3563ZM270.432 62.8723V70.6553C270.432 70.8591 270.253 71.0082 270.088 71.0082C269.903 71.0132 269.748 70.8641 269.743 70.6703C269.743 70.6653 269.743 70.6554 269.743 70.6504V69.1693C269.171 70.3373 268.157 71.1822 266.856 71.1822C264.795 71.1822 263.654 69.3482 263.654 67.4099V62.8524C263.654 62.6685 263.8 62.4996 263.999 62.4996C264.198 62.4996 264.343 62.6834 264.343 62.8524V67.4099C264.343 68.9407 265.187 70.4665 266.852 70.4665C269.185 70.4665 269.738 68.225 269.738 65.7499V62.8425C269.738 62.6288 269.957 62.4151 270.209 62.5095C270.35 62.5791 270.432 62.7182 270.432 62.8723ZM288 66.0432V70.5957C288 70.7995 287.82 70.9486 287.656 70.9486C287.471 70.9535 287.316 70.8045 287.311 70.6106C287.311 70.6056 287.311 70.5957 287.311 70.5907V66.0382C287.311 64.5025 286.462 63.0065 284.798 63.0065C282.707 63.0065 281.911 65.3027 281.911 67.077V70.5907C281.911 70.7945 281.732 70.9436 281.567 70.9436C281.382 70.9486 281.227 70.7995 281.222 70.6056C281.222 70.6007 281.222 70.5907 281.222 70.5858V66.0332C281.222 64.4975 280.373 63.0015 278.709 63.0015C276.594 63.0015 275.725 64.7062 275.803 66.9775C275.803 67.0322 275.822 67.1266 275.803 67.1614V70.5808C275.803 70.7647 275.667 70.9337 275.488 70.9585C275.298 70.9834 275.129 70.8492 275.104 70.6553C275.104 70.6355 275.099 70.6206 275.099 70.6007V62.8276C275.099 62.6437 275.235 62.4747 275.415 62.4499C275.633 62.43 275.803 62.589 275.803 62.8027V64.0999C276.4 63.0065 277.467 62.2908 278.709 62.2908C280.121 62.2908 281.222 63.2152 281.669 64.5522C282.246 63.2252 283.362 62.2908 284.798 62.2908C286.84 62.3008 288 64.1098 288 66.0432Z" fill="#D9D9D9"/>
<path d="M183.684 60.7302L175 64.7709L183.684 70.0341L192.379 64.7709L183.684 60.7302Z" fill="#D9D9D9"/>
<path d="M175 64.7709L183.684 70.0341L183.684 50L175 64.7709Z" fill="#D9D9D9"/>
<path d="M183.684 50L183.684 70.0341L192.379 64.7709L183.684 50Z" fill="#D9D9D9"/>
<path d="M175 66.4606L183.684 79V71.7139L175 66.4606Z" fill="#D9D9D9"/>
<path d="M183.684 71.7139V79L192.379 66.4606L183.684 71.7139Z" fill="#D9D9D9"/>
</g>
<path d="M548.408 63.1688V65.075C548.327 65.0829 547.905 65.1183 547.053 65.1183C546.343 65.1183 545.832 65.0868 545.652 65.075V63.1649C542.914 63.287 540.872 63.7793 540.872 64.3621C540.872 64.949 542.914 65.4373 545.652 65.5594C545.828 65.5673 546.327 65.5909 547.038 65.5909C547.928 65.5909 548.327 65.5673 548.404 65.5594C551.134 65.4334 553.172 64.945 553.172 64.3621C553.176 63.7793 551.138 63.2909 548.408 63.1688Z" fill="#D9D9D9"/>
<path d="M547.21 53C541.018 53 536 58.1474 536 64.5C536 70.8526 541.018 76 547.21 76C553.403 76 558.421 70.8526 558.421 64.5C558.421 58.1474 553.403 53 547.21 53ZM548.408 66.0281V71.5063H545.652V66.0281C542.553 65.8784 540.223 65.2522 540.223 64.4961C540.223 63.7399 542.553 63.1137 545.652 62.968V61.2587H541.839V58.6555H552.216V61.2587H548.404V62.968C551.499 63.1137 553.821 63.7438 553.821 64.4961C553.825 65.2562 551.502 65.8824 548.408 66.0281Z" fill="#D9D9D9"/>
<path d="M567.654 59.6203V62.4756H570.268V64.6181H567.634V68.9621C567.634 69.9231 568.134 70.3878 568.863 70.3878C569.228 70.3878 569.65 70.2657 569.995 70.0806L570.648 72.1994C569.976 72.483 569.42 72.6051 568.709 72.6287C566.655 72.7114 565.308 71.4669 565.308 68.9582V64.6142H563.542V62.4717H565.308V59.8842L567.654 59.6203ZM612.717 62.3417L612.89 63.5036C613.62 62.259 614.602 62.0779 615.562 62.0779C616.541 62.0779 617.482 62.4835 618 63.0349L616.944 65.1971C616.464 64.7678 616.023 64.5433 615.255 64.5433C614.027 64.5433 612.89 65.2364 612.89 67.0914V72.3924H610.544V62.3378L612.717 62.3417ZM606.974 66.1974C606.82 64.8938 605.861 64.24 604.513 64.24C603.246 64.24 602.206 64.8938 601.86 66.1974H606.974ZM601.822 68.2532C601.975 69.4977 602.993 70.3957 604.647 70.3957C605.511 70.3957 606.644 70.0491 607.185 69.4584L608.682 71.0298C607.684 72.1286 606.049 72.6602 604.609 72.6602C601.342 72.6602 599.399 70.5178 599.399 67.2962C599.399 64.2361 601.361 62.0345 604.436 62.0345C607.607 62.0345 609.588 64.114 609.22 68.2532H601.822ZM591.487 58.1198V63.7044C592.332 62.5426 593.368 62.196 594.447 62.196C597.138 62.196 598.328 64.1337 598.328 67.0914V72.3924H595.983V67.1111C595.983 65.2758 595.08 64.5 593.829 64.5C592.443 64.5 591.483 65.7445 591.483 67.2529V72.3924H589.141V58.1238L591.487 58.1198ZM585.264 59.5061V62.3614H587.878V64.5039H585.245V68.8479C585.245 69.8089 585.744 70.2736 586.473 70.2736C586.838 70.2736 587.26 70.1515 587.606 69.9664L588.258 72.0852C587.586 72.3688 587.03 72.4909 586.319 72.5145C584.266 72.5972 582.918 71.3527 582.918 68.844V64.5H581.152V62.3575H582.918V59.77L585.264 59.5061ZM578.787 66.1974C578.634 64.8938 577.674 64.24 576.326 64.24C575.059 64.24 574.019 64.8938 573.673 66.1974H578.787ZM573.639 68.2532C573.792 69.4977 574.81 70.3957 576.464 70.3957C577.328 70.3957 578.461 70.0491 579.002 69.4584L580.499 71.0298C579.501 72.1286 577.866 72.6602 576.426 72.6602C573.159 72.6602 571.216 70.5178 571.216 67.2962C571.216 64.2361 573.178 62.0345 576.249 62.0345C579.421 62.0345 581.398 64.114 581.033 68.2532H573.639Z" fill="#D9D9D9"/>
<path d="M400.879 62.0672C400.662 61.9883 400.203 61.9507 399.744 61.9507C398.363 61.9507 396.897 63.0817 396.897 64.4833V71.1494H393.77V59.2489H396.796V60.4439C397.5 59.5608 398.775 59.0009 400.191 59.0009C400.65 59.0009 400.918 59.0535 401.253 59.1062C401.249 59.1062 400.879 62.0672 400.879 62.0672ZM404.426 53C405.562 53 406.468 53.883 406.468 55.0404C406.468 56.1977 405.55 57.0808 404.426 57.0808C403.302 57.0808 402.384 56.1977 402.384 55.0404C402.384 53.883 403.291 53 404.426 53ZM405.982 71.1231H402.855V59.2489H405.982V71.1231ZM415.222 59.0009C413.896 59.0009 412.721 59.4443 411.8 60.1959V59.2377H408.79V77H411.916V70.2814C412.791 70.9915 413.9 71.3748 415.043 71.3598C416.778 71.3598 418.438 70.582 419.473 69.3457C420.391 68.2673 420.939 66.798 420.939 65.1747C420.954 61.6914 418.399 59.0009 415.222 59.0009ZM414.853 68.489C412.912 68.489 411.636 67.1249 411.636 65.2161C411.636 63.3072 412.912 61.9432 414.853 61.9432C416.513 61.9432 417.851 63.4124 417.851 65.2161C417.851 67.0197 416.513 68.489 414.853 68.489ZM439.945 71.1231H436.818V53.729H439.945V71.1231ZM452.708 69.2405C451.573 70.6195 449.722 71.3711 447.921 71.3711C444.436 71.3711 441.807 68.9173 441.807 65.201C441.807 61.8868 444.028 59.0047 447.485 59.0047C450.717 59.0047 453 61.7703 453 65.0845C453 65.4077 452.977 65.7196 452.926 65.9939H444.833C444.996 67.6585 446.326 68.8121 447.987 68.8121C449.313 68.8121 450.375 68.0568 450.923 67.4331L452.708 69.2405ZM449.799 63.6529C449.698 62.6008 448.769 61.5749 447.489 61.5749C446.186 61.5749 445.129 62.5744 444.989 63.6529H449.799ZM429.238 59.0009C427.908 59.0009 426.734 59.4443 425.816 60.1959V59.2377H422.802V77H425.929V70.2814C426.804 70.9915 427.912 71.3748 429.055 71.3598C430.79 71.3598 432.45 70.582 433.485 69.3457C434.403 68.2673 434.955 66.798 434.955 65.1747C434.967 61.6914 432.415 59.0009 429.238 59.0009ZM428.853 68.489C426.912 68.489 425.637 67.1249 425.637 65.2161C425.637 63.3072 426.912 61.9432 428.853 61.9432C430.514 61.9432 431.852 63.4124 431.852 65.2161C431.867 67.0197 430.514 68.489 428.853 68.489Z" fill="#D9D9D9"/>
<path d="M387.334 66.798C386.63 66.3809 385.829 66.2644 385.051 66.2381C384.386 66.2118 383.406 65.7835 383.406 64.5622C383.406 63.6529 384.133 62.9126 385.051 62.8863C385.844 62.86 386.634 62.7435 387.338 62.3264C388.625 61.5712 389.418 60.1696 389.418 58.6477C389.418 57.1259 388.625 55.7243 387.338 54.969C386.054 54.2175 384.448 54.2175 383.165 54.969C381.862 55.7093 381.073 57.1146 381.073 58.6327C381.073 59.4519 381.364 60.2184 381.722 60.9211C382.029 61.5073 382.181 62.6083 381.123 63.232C380.33 63.698 379.35 63.4011 378.864 62.6083C378.455 61.9319 377.946 61.2969 377.242 60.8948C375.958 60.1433 374.352 60.1433 373.069 60.8948C371.793 61.635 371 63.0404 371 64.5585C371 66.0766 371.793 67.4819 373.092 68.2372C374.383 68.9925 375.978 68.9925 377.265 68.2372C377.969 67.8201 378.463 67.1963 378.887 66.5237C379.229 65.9638 380.073 65.2649 381.146 65.8887C381.94 66.3546 382.181 67.3692 381.734 68.1996C381.364 68.9023 381.08 69.6538 381.08 70.488C381.08 72.0099 381.874 73.4115 383.161 74.1667C384.448 74.922 386.043 74.922 387.334 74.1667C388.625 73.4115 389.415 72.0099 389.415 70.488C389.415 68.9662 388.625 67.5646 387.334 66.798Z" fill="#D9D9D9"/>
<path d="M707.073 64.4208C707.026 65.2675 707.654 65.9906 708.48 66.0391H708.562C709.388 66.0391 710.055 65.3512 710.055 64.509C710.055 63.6624 709.384 62.979 708.562 62.979C707.77 62.979 707.116 63.6139 707.073 64.4208Z" fill="#D9D9D9"/>
<path d="M701.508 64.0328C701.242 64.0196 701.013 64.2269 701.001 64.5002C700.988 64.7736 701.19 65.0073 701.457 65.0206C701.724 65.0338 701.952 64.8265 701.965 64.5576C701.978 64.2798 701.775 64.0505 701.508 64.0328Z" fill="#D9D9D9"/>
<path d="M706.978 55.5402C707.215 55.4167 707.31 55.1169 707.189 54.8743C707.069 54.6318 706.776 54.5348 706.539 54.6583C706.303 54.7817 706.208 55.0772 706.328 55.3197C706.449 55.5666 706.737 55.6636 706.978 55.5402Z" fill="#D9D9D9"/>
<path d="M708.497 58.2476C708.863 58.058 709.014 57.5994 708.829 57.2202C708.644 56.8454 708.196 56.691 707.826 56.8806C707.46 57.0702 707.31 57.5288 707.495 57.908C707.68 58.2873 708.127 58.4372 708.497 58.2476Z" fill="#D9D9D9"/>
<path d="M703.398 60.1084C703.682 60.298 704.06 60.2186 704.25 59.9276C704.435 59.6366 704.357 59.2485 704.073 59.0545C703.789 58.8649 703.411 58.9443 703.221 59.2353C703.036 59.5263 703.114 59.9188 703.398 60.1084Z" fill="#D9D9D9"/>
<path d="M704.306 63.755C703.893 63.7329 703.544 64.0548 703.518 64.4737C703.497 64.897 703.811 65.2542 704.22 65.2806C704.628 65.3027 704.981 64.9808 705.007 64.5619C705.029 64.1386 704.715 63.777 704.306 63.755Z" fill="#D9D9D9"/>
<path d="M703.479 68.892C703.178 69.0508 703.053 69.4256 703.208 69.7387C703.363 70.0473 703.729 70.1752 704.035 70.0165C704.336 69.8577 704.461 69.4829 704.306 69.1698C704.151 68.8612 703.781 68.7333 703.479 68.892Z" fill="#D9D9D9"/>
<path d="M706.376 62.1765C706.78 62.4499 707.327 62.3308 707.589 61.9163C707.856 61.5018 707.74 60.9418 707.335 60.6728C706.931 60.3995 706.384 60.5185 706.122 60.933C705.859 61.3431 705.971 61.8987 706.376 62.1765C706.376 62.1721 706.376 62.1721 706.376 62.1765Z" fill="#D9D9D9"/>
<path d="M715.577 58.1858C715.921 58.4151 716.386 58.3181 716.61 57.961C716.834 57.6082 716.739 57.132 716.39 56.9027C716.046 56.6734 715.581 56.7704 715.357 57.1232C715.134 57.4803 715.228 57.9566 715.577 58.1858C715.573 58.1858 715.573 58.1858 715.577 58.1858Z" fill="#D9D9D9"/>
<path d="M717.105 55.4873C717.328 55.6372 717.625 55.5755 717.772 55.3462C717.918 55.1169 717.858 54.8126 717.634 54.6627C717.41 54.5128 717.113 54.5745 716.967 54.8038C716.821 55.0331 716.885 55.3374 717.105 55.4873Z" fill="#D9D9D9"/>
<path d="M715.693 62.9657C714.871 62.9172 714.165 63.561 714.118 64.4076C714.071 65.2498 714.699 65.973 715.525 66.0215C715.555 66.0215 715.581 66.0215 715.611 66.0215C716.438 66.0215 717.105 65.3336 717.105 64.4914C717.105 64.1166 716.971 63.755 716.726 63.4728C716.459 63.1686 716.089 62.9834 715.693 62.9657Z" fill="#D9D9D9"/>
<path d="M708.988 62.0662C709.242 62.5821 709.758 62.9084 710.322 62.9084C711.148 62.9084 711.815 62.225 711.815 61.3783C711.815 61.1358 711.76 60.9021 711.656 60.6861C711.402 60.1701 710.886 59.8483 710.322 59.8483C709.496 59.8483 708.829 60.5361 708.829 61.3828C708.829 61.6209 708.88 61.8546 708.988 62.0662Z" fill="#D9D9D9"/>
<path d="M720.694 60.1083C720.995 59.9496 721.12 59.5748 720.965 59.2617C720.81 58.9531 720.444 58.8252 720.139 58.9839C719.837 59.1383 719.713 59.5175 719.867 59.8305C720.022 60.1392 720.393 60.2627 720.694 60.1083Z" fill="#D9D9D9"/>
<path d="M716.907 60.5934C716.472 60.8183 716.3 61.3563 716.519 61.8016C716.739 62.247 717.264 62.4234 717.698 62.1985C718.133 61.9736 718.305 61.4356 718.086 60.9903C717.871 60.5493 717.341 60.373 716.907 60.5934C716.911 60.5934 716.911 60.5934 716.907 60.5934Z" fill="#D9D9D9"/>
<path d="M712.031 55.258C712.371 55.2756 712.659 55.011 712.68 54.6671C712.698 54.3188 712.439 54.0233 712.104 54.0013C711.768 53.9792 711.475 54.2482 711.454 54.5921C711.432 54.9405 711.691 55.2359 712.031 55.258Z" fill="#D9D9D9"/>
<path d="M712.022 59.2177C712.508 59.2442 712.921 58.8649 712.947 58.3711C712.973 57.8728 712.603 57.4495 712.121 57.4231C711.639 57.3966 711.222 57.7758 711.196 58.2697C711.17 58.7679 711.54 59.1912 712.022 59.2177Z" fill="#D9D9D9"/>
<path d="M707.267 68.4026C707.701 68.1777 707.873 67.6398 707.654 67.1944C707.434 66.749 706.909 66.5727 706.475 66.7975C706.04 67.0224 705.868 67.5604 706.087 68.0057C706.307 68.4467 706.832 68.6275 707.267 68.4026Z" fill="#D9D9D9"/>
<path d="M712.59 60.5317C712.138 61.2372 712.332 62.1852 713.02 62.6482C713.709 63.1112 714.634 62.9128 715.086 62.2073C715.538 61.5017 715.344 60.5537 714.656 60.0907C714.415 59.9276 714.131 59.8394 713.838 59.8394C713.339 59.8394 712.866 60.0995 712.59 60.5317Z" fill="#D9D9D9"/>
<path d="M715.189 66.9298C714.819 66.1758 713.92 65.8716 713.184 66.2508C712.448 66.63 712.151 67.5516 712.521 68.3056C712.775 68.8215 713.292 69.1478 713.855 69.1478C714.088 69.1478 714.32 69.0905 714.527 68.9802C715.263 68.601 715.555 67.6838 715.189 66.9298Z" fill="#D9D9D9"/>
<path d="M717.797 66.8239C717.393 66.5506 716.846 66.6652 716.58 67.0841C716.313 67.4986 716.425 68.0586 716.833 68.332C717.238 68.6054 717.785 68.4907 718.051 68.0718C718.314 67.6529 718.202 67.0973 717.797 66.8239Z" fill="#D9D9D9"/>
<path d="M720.655 64.5267C720.677 64.1034 720.362 63.7462 719.954 63.7198C719.545 63.6933 719.192 64.0196 719.166 64.4385C719.145 64.8574 719.459 65.219 719.868 65.2455C720.281 65.2675 720.634 64.9456 720.655 64.5267Z" fill="#D9D9D9"/>
<path d="M722.721 63.9799C722.454 63.9623 722.226 64.1739 722.209 64.4473C722.191 64.7207 722.398 64.9544 722.665 64.972C722.932 64.9897 723.16 64.778 723.177 64.5046C723.194 64.2312 722.988 63.9975 722.721 63.9799Z" fill="#D9D9D9"/>
<path d="M720.776 68.8876C720.491 68.698 720.113 68.7773 719.923 69.0684C719.734 69.3594 719.816 69.7474 720.1 69.9415C720.384 70.1311 720.763 70.0517 720.952 69.7607C721.141 69.4696 721.06 69.0816 720.776 68.8876Z" fill="#D9D9D9"/>
<path d="M707.069 73.5087C706.845 73.3588 706.548 73.4206 706.402 73.6498C706.255 73.8791 706.315 74.1834 706.539 74.3333C706.763 74.4832 707.06 74.4215 707.206 74.1922C707.353 73.9673 707.292 73.6587 707.069 73.5087Z" fill="#D9D9D9"/>
<path d="M717.195 73.4603C716.958 73.5837 716.859 73.8792 716.98 74.1261C717.1 74.3686 717.389 74.47 717.63 74.3466C717.866 74.2231 717.965 73.9277 717.845 73.6807C717.724 73.4338 717.432 73.3368 717.195 73.4603C717.195 73.4558 717.195 73.4558 717.195 73.4603Z" fill="#D9D9D9"/>
<path d="M711.583 68.4644C712.035 67.7588 711.841 66.8108 711.153 66.3478C710.464 65.8848 709.539 66.0832 709.087 66.7888C708.635 67.4943 708.829 68.4423 709.517 68.9053C709.758 69.0685 710.042 69.1566 710.335 69.1566C710.839 69.1566 711.308 68.8965 711.583 68.4644Z" fill="#D9D9D9"/>
<path d="M708.596 70.8102C708.252 70.5809 707.787 70.6779 707.564 71.0307C707.34 71.3834 707.434 71.8596 707.779 72.0889C708.123 72.3182 708.584 72.2212 708.812 71.8685C709.04 71.5157 708.945 71.0439 708.596 70.8102Z" fill="#D9D9D9"/>
<path d="M712.082 73.7425C711.742 73.7248 711.454 73.9894 711.432 74.3333C711.415 74.6817 711.673 74.9771 712.009 74.9992C712.349 75.0168 712.637 74.7522 712.659 74.4083C712.676 74.0599 712.418 73.7601 712.082 73.7425Z" fill="#D9D9D9"/>
<path d="M712.087 69.7783C711.605 69.7474 711.187 70.1267 711.157 70.6205C711.127 71.1144 711.497 71.5421 711.979 71.573C712.461 71.6038 712.878 71.2246 712.909 70.7308V70.7264C712.939 70.2325 712.569 69.8092 712.087 69.7783Z" fill="#D9D9D9"/>
<path d="M715.68 70.7528C715.314 70.9424 715.164 71.4054 715.353 71.7802C715.538 72.155 715.99 72.3094 716.356 72.1153C716.722 71.9257 716.872 71.4627 716.683 71.0879C716.494 70.7087 716.046 70.5588 715.68 70.7528Z" fill="#D9D9D9"/>
<path d="M732.159 60.8844C733.605 60.8844 734.616 61.7002 734.616 63.2126H736.51C736.51 60.5625 734.599 59.2838 732.128 59.2838C729.09 59.2838 727.326 60.9726 727.326 64.5443C727.326 68.2042 729.09 69.8048 732.128 69.8048C734.629 69.8048 736.51 68.5613 736.51 65.9068H734.689C734.689 67.3884 733.691 68.2042 732.159 68.2042C730.149 68.2042 729.219 67.0621 729.219 64.6942V64.3988C729.224 62.0706 730.162 60.8844 732.159 60.8844Z" fill="#D9D9D9"/>
<path d="M741.519 59.4602L737.654 69.6284H739.565L740.361 67.4193H744.897L745.715 69.6284H747.712L743.847 59.4646H741.519V59.4602ZM740.938 65.8142L741.949 63.0274C742.151 62.4807 742.513 61.2945 742.586 61.0873H742.659C742.732 61.2945 743.094 62.4939 743.296 63.0274L744.308 65.8142H740.938Z" fill="#D9D9D9"/>
<path d="M758.036 62.5424C758.036 60.6596 756.982 59.4602 754.795 59.4602H749.558V69.624H751.409V65.6952H754.49L756.366 69.624H758.389L756.267 65.3997C757.442 64.9279 758.036 63.9226 758.036 62.5424ZM754.649 64.0989H751.409V61.0785H754.649C755.648 61.0785 756.168 61.6252 756.168 62.5468C756.168 63.5081 755.605 64.0989 754.649 64.0989Z" fill="#D9D9D9"/>
<path d="M764.53 59.4602H760.567V69.624H764.53C767.521 69.624 769.346 68.0234 769.346 64.5399C769.346 61.0564 767.521 59.4602 764.53 59.4602ZM767.452 64.6898C767.439 66.9122 766.411 68.0101 764.53 68.0101H762.417V61.074H764.53C766.407 61.074 767.452 62.172 767.452 64.3944V64.6898Z" fill="#D9D9D9"/>
<path d="M774.192 59.4602L770.327 69.624H772.238L773.034 67.4149H777.574L778.383 69.624H780.38L776.52 59.4602H774.192ZM773.615 65.8142L774.626 63.0274C774.829 62.4807 775.19 61.2945 775.263 61.0873H775.337C775.41 61.2945 775.771 62.4939 775.973 63.0274L776.985 65.8142H773.615Z" fill="#D9D9D9"/>
<path d="M788.845 65.5056C788.845 65.6996 788.876 66.2155 788.876 66.3037L788.802 66.3346C788.759 66.2772 788.471 65.7569 788.312 65.5188L784.004 59.4558H782.235V69.6196H784.013V63.5301C784.013 63.2788 783.982 62.7893 783.982 62.7144L784.056 62.6703C784.099 62.7276 784.314 63.1597 784.546 63.4993L788.884 69.6196H790.619V59.4558H788.841L788.845 65.5056Z" fill="#D9D9D9"/>
<path d="M797.995 59.2838C794.888 59.2838 793.007 60.9726 793.007 64.5443C793.007 68.116 794.883 69.8048 797.995 69.8048C801.106 69.8048 803 68.116 803 64.5443C803 60.9726 801.102 59.2838 797.995 59.2838ZM801.102 64.7074C801.102 67.0356 800.018 68.2042 797.995 68.2042C795.985 68.2042 794.901 67.0356 794.901 64.7074V64.3944C794.901 62.0662 795.998 60.8844 797.995 60.8844C800.005 60.8844 801.102 62.0706 801.102 64.3944V64.7074Z" fill="#D9D9D9"/>
<path d="M891.933 62.8223L895.7 58.745L899.468 62.8265L901.662 60.4519L895.7 54L889.739 60.4519L891.933 62.8223Z" fill="#D9D9D9"/>
<path d="M888.192 62.1252L886 64.4978L888.192 66.8703L890.384 64.4978L888.192 62.1252Z" fill="#D9D9D9"/>
<path d="M891.933 66.1735L895.7 70.2508L899.468 66.1735L901.662 68.5439L895.7 75L889.735 68.5439L891.933 66.1735Z" fill="#D9D9D9"/>
<path d="M903.207 62.1266L901.015 64.4991L903.207 66.8717L905.399 64.4991L903.207 62.1266Z" fill="#D9D9D9"/>
<path d="M897.925 64.5L895.7 62.092L894.054 63.8698L893.472 64.5L895.7 66.908L897.925 64.5Z" fill="#D9D9D9"/>
<path d="M908.818 59.0872H913.588C914.772 59.0872 915.667 59.4169 916.272 60.0721C916.743 60.5813 916.978 61.2114 916.978 61.9668V62.0002C916.978 62.3173 916.943 62.6011 916.87 62.8432C916.797 63.0852 916.7 63.3064 916.577 63.5026C916.453 63.6987 916.315 63.8698 916.153 64.02C915.991 64.1703 915.821 64.2955 915.636 64.3998C916.23 64.6419 916.7 64.9757 917.039 65.3931C917.379 65.8104 917.552 66.3947 917.552 67.1333V67.1667C917.552 67.6759 917.464 68.1224 917.282 68.5022C917.101 68.8819 916.843 69.2033 916.503 69.4578C916.164 69.7124 915.759 69.9044 915.285 70.0296C914.811 70.1548 914.286 70.2216 913.708 70.2216H908.818V59.0872ZM913.11 63.5902C913.611 63.5902 914.009 63.4984 914.302 63.3106C914.595 63.127 914.741 62.8265 914.741 62.4133V62.38C914.741 62.0085 914.614 61.7247 914.36 61.5286C914.105 61.3325 913.739 61.2323 913.257 61.2323H911.024V63.586C911.02 63.5902 913.11 63.5902 913.11 63.5902ZM913.712 68.0765C914.213 68.0765 914.602 67.9805 914.888 67.7844C915.173 67.5882 915.316 67.2836 915.316 66.8704V66.837C915.316 66.4656 915.185 66.1735 914.919 65.9523C914.653 65.7353 914.228 65.6268 913.638 65.6268H911.024V68.0765H913.712Z" fill="#D9D9D9"/>
<path d="M920.386 59.0872H922.65V70.2216H920.386V59.0872Z" fill="#D9D9D9"/>
<path d="M926.078 59.0872H928.164L932.984 65.9439V59.0872H935.217V70.2216H933.292L928.31 63.1437V70.2216H926.078V59.0872Z" fill="#D9D9D9"/>
<path d="M942.073 59.008H944.159L948.57 70.2216H946.202L945.261 67.726H940.912L939.971 70.2216H937.665L942.073 59.008ZM944.452 65.5642L943.083 61.9543L941.718 65.5642H944.452Z" fill="#D9D9D9"/>
<path d="M951.011 59.0872H953.097L957.917 65.9439V59.0872H960.149V70.2216H958.225L953.243 63.1437V70.2216H951.011V59.0872Z" fill="#D9D9D9"/>
<path d="M968.301 70.4135C967.545 70.4135 966.847 70.2633 966.2 69.967C965.552 69.6707 964.993 69.2659 964.526 68.7484C964.056 68.2351 963.689 67.6258 963.423 66.9288C963.157 66.2277 963.026 65.4807 963.026 64.6878V64.6544C963.026 63.8573 963.157 63.1145 963.423 62.4175C963.689 61.7248 964.056 61.1113 964.526 60.5896C964.996 60.0638 965.559 59.6506 966.215 59.3502C966.87 59.0497 967.595 58.8953 968.39 58.8953C968.868 58.8953 969.307 58.937 969.705 59.0205C970.102 59.1039 970.46 59.2208 970.784 59.371C971.108 59.5213 971.405 59.7007 971.683 59.9135C971.956 60.1264 972.211 60.3601 972.446 60.6147L971.008 62.4134C970.607 62.0211 970.198 61.7122 969.782 61.4911C969.365 61.2699 968.899 61.1572 968.378 61.1572C967.946 61.1572 967.549 61.249 967.179 61.4285C966.813 61.6079 966.496 61.8583 966.23 62.1755C965.964 62.4926 965.76 62.8641 965.613 63.2814C965.467 63.6987 965.394 64.1494 965.394 64.6252V64.6586C965.394 65.1343 965.467 65.585 965.613 66.0107C965.76 66.4364 965.964 66.8078 966.223 67.125C966.481 67.4422 966.797 67.6967 967.163 67.8804C967.53 68.0682 967.935 68.16 968.374 68.16C968.964 68.16 969.458 68.0431 969.867 67.8094C970.271 67.5757 970.676 67.2585 971.077 66.8537L972.519 68.4271C972.253 68.7359 971.98 69.0113 971.698 69.2534C971.413 69.4954 971.104 69.7083 970.765 69.8835C970.426 70.0588 970.055 70.1924 969.654 70.28C969.25 70.3676 968.798 70.4135 968.301 70.4135Z" fill="#D9D9D9"/>
<path d="M975.18 59.0872H982.927V61.2657H977.417V63.5234H982.267V65.7019H977.417V68.0389H983V70.2174H975.18V59.0872Z" fill="#D9D9D9"/>
<path d="M1099.94 57.5695H1100.88C1101.12 57.5695 1101.32 57.7544 1101.32 57.9832V65.9916C1101.32 68.5218 1102.76 70.1191 1105.44 70.1191C1108.13 70.1191 1109.56 68.5218 1109.56 65.9916V57.9832C1109.56 57.7544 1109.76 57.5695 1110 57.5695H1110.94C1111.18 57.5695 1111.37 57.7544 1111.37 57.9832V66.0136C1111.37 69.4591 1109.39 71.6548 1105.44 71.6548C1101.49 71.6548 1099.51 69.437 1099.51 66.0312V57.9788C1099.5 57.7544 1099.7 57.5695 1099.94 57.5695ZM1114.15 68.4778C1114.29 68.3106 1114.56 68.293 1114.72 68.4426C1115.7 69.3446 1117.15 70.1191 1119 70.1191C1121.6 70.1191 1122.43 68.7902 1122.43 67.7297C1122.43 66.0665 1120.66 65.6132 1118.74 65.116C1116.41 64.5352 1113.81 63.9147 1113.81 61.1954C1113.81 58.916 1115.95 57.3583 1118.81 57.3583C1120.86 57.3583 1122.49 57.9568 1123.69 59.0084C1123.86 59.158 1123.88 59.4089 1123.72 59.5805L1123.15 60.2405C1123.01 60.4033 1122.76 60.4165 1122.6 60.2713C1121.53 59.3252 1120.13 58.8896 1118.67 58.8896C1116.92 58.8896 1115.68 59.7829 1115.68 61.0854C1115.68 62.4758 1117.36 62.8895 1119.22 63.3647C1121.6 63.9675 1124.3 64.6716 1124.3 67.5801C1124.3 69.5911 1122.86 71.646 1118.93 71.646C1116.58 71.646 1114.81 70.8583 1113.61 69.7143C1113.45 69.5647 1113.44 69.327 1113.58 69.1642L1114.15 68.4778ZM1126.46 57.9832C1126.46 57.7544 1126.65 57.5695 1126.89 57.5695H1131.43C1135.95 57.5695 1138.89 60.5749 1138.89 64.5C1138.89 68.4426 1135.95 71.4084 1131.43 71.4084H1126.89C1126.65 71.4084 1126.46 71.2236 1126.46 70.9947V57.9832ZM1131.44 69.8727C1134.97 69.8727 1137.02 67.4657 1137.02 64.5C1137.02 61.5078 1135.04 59.1052 1131.44 59.1052H1128.28V69.8727H1131.44ZM1157.01 66.3877C1157.01 63.4835 1159.02 61.1382 1162.22 61.1382C1165.43 61.1382 1167.44 63.4835 1167.44 66.3877C1167.44 69.2918 1165.43 71.6592 1162.22 71.6592C1159.02 71.6592 1157.01 69.2874 1157.01 66.3877ZM1165.71 66.3877C1165.71 64.3548 1164.47 62.5286 1162.22 62.5286C1159.97 62.5286 1158.71 64.3548 1158.71 66.3877C1158.71 68.4426 1159.97 70.2687 1162.22 70.2687C1164.47 70.2687 1165.71 68.4426 1165.71 66.3877ZM1169.01 58.6476C1169.01 58.0668 1169.51 57.6091 1170.11 57.6091C1170.72 57.6091 1171.22 58.0624 1171.22 58.6476C1171.22 59.2284 1170.72 59.7081 1170.11 59.7081C1169.51 59.7081 1169.01 59.2284 1169.01 58.6476ZM1169.73 61.3846H1170.49C1170.74 61.3846 1170.93 61.5694 1170.93 61.7982V70.9947C1170.93 71.2236 1170.74 71.4084 1170.49 71.4084H1169.73C1169.49 71.4084 1169.3 71.2236 1169.3 70.9947V61.7982C1169.3 61.5694 1169.49 61.3846 1169.73 61.3846ZM1180.36 64.852C1180.36 63.0875 1179.42 62.5286 1178 62.5286C1176.71 62.5286 1175.49 63.2767 1174.88 64.0863V70.9947C1174.88 71.2236 1174.68 71.4084 1174.44 71.4084H1173.68C1173.44 71.4084 1173.25 71.2236 1173.25 70.9947V61.7982C1173.25 61.5694 1173.44 61.3846 1173.68 61.3846H1174.45C1174.69 61.3846 1174.88 61.5694 1174.88 61.7982V62.8367C1175.62 62.005 1177.07 61.1382 1178.64 61.1382C1180.84 61.1382 1182 62.1986 1182 64.3723V70.9903C1182 71.2192 1181.81 71.404 1181.56 71.404H1180.8C1180.56 71.404 1180.37 71.2192 1180.37 70.9903V64.8564H1180.36V64.852ZM1143.03 64.5C1143.03 60.2449 1146.33 57.3451 1150.45 57.3451C1152.9 57.3451 1154.62 58.3572 1155.77 59.7433C1155.92 59.9193 1155.86 60.1789 1155.66 60.2889L1154.85 60.7157C1154.66 60.8169 1154.43 60.7685 1154.3 60.6145C1153.44 59.5981 1152.04 58.8852 1150.45 58.8852C1147.33 58.8852 1144.91 61.2086 1144.91 64.5088C1144.91 67.7869 1147.33 70.1323 1150.45 70.1323C1152.04 70.1323 1153.44 69.4326 1154.3 68.403C1154.43 68.2446 1154.66 68.2006 1154.85 68.2974L1155.67 68.7242C1155.88 68.8342 1155.93 69.0982 1155.78 69.2742C1154.58 70.6735 1152.9 71.668 1150.45 71.668C1146.33 71.6548 1143.03 68.755 1143.03 64.5Z" fill="#D9D9D9"/>
<path d="M1080.2 51C1072.36 51 1066 57.0416 1066 64.5C1066 71.954 1072.35 78 1080.2 78C1088.04 78 1094.4 71.9584 1094.4 64.5C1094.4 57.046 1088.04 51 1080.2 51ZM1077.54 73.8858C1077.54 74.2026 1077.27 74.383 1076.95 74.2862C1072.66 72.9837 1069.55 69.1555 1069.55 64.6408C1069.55 60.1261 1072.66 56.2979 1076.95 54.9954C1077.28 54.8986 1077.54 55.079 1077.54 55.3959V56.1791C1077.54 56.3903 1077.37 56.6411 1077.15 56.7071C1073.76 57.8908 1071.32 60.993 1071.32 64.632C1071.32 68.2666 1073.76 71.3688 1077.15 72.5569C1077.37 72.6317 1077.54 72.8737 1077.54 73.0849V73.8858ZM1081.09 70.9684H1081.09C1081.09 71.2016 1080.89 71.3908 1080.64 71.3908H1079.76C1079.51 71.3908 1079.32 71.2016 1079.32 70.9684V69.6351C1077.38 69.3843 1076.43 68.3546 1076.17 66.9509C1076.13 66.7133 1076.33 66.4977 1076.58 66.4977H1077.6C1077.81 66.4977 1077.99 66.6385 1078.03 66.8409C1078.22 67.677 1078.73 68.3194 1080.28 68.3194C1081.43 68.3194 1082.24 67.7122 1082.24 66.8013C1082.24 65.8905 1081.76 65.5473 1080.08 65.2832C1077.59 64.9664 1076.42 64.2492 1076.42 62.3967C1076.42 60.9666 1077.56 59.8577 1079.32 59.6157V58.3088C1079.32 58.0756 1079.52 57.8864 1079.76 57.8864H1080.65C1080.89 57.8864 1081.09 58.0756 1081.09 58.3088V59.6553C1082.52 59.8973 1083.43 60.6718 1083.73 61.9522C1083.78 62.1943 1083.58 62.4231 1083.32 62.4231H1082.38C1082.18 62.4231 1082.02 62.2955 1081.95 62.1107C1081.7 61.2966 1081.09 60.9446 1080.03 60.9446C1078.85 60.9446 1078.25 61.4858 1078.25 62.2427C1078.25 63.0435 1078.59 63.4439 1080.39 63.6947C1082.83 64.0116 1084.09 64.676 1084.09 66.6473C1084.09 68.1434 1082.92 69.3579 1081.09 69.6395V70.9684ZM1083.45 74.2862C1083.12 74.383 1082.86 74.2026 1082.86 73.8858V73.1025C1082.86 72.8693 1083.01 72.6537 1083.25 72.5745C1086.65 71.3908 1089.08 68.2886 1089.08 64.6496C1089.08 61.0106 1086.65 57.9128 1083.25 56.7247C1083.04 56.6499 1082.86 56.4079 1082.86 56.1967V55.4135C1082.86 55.0966 1083.13 54.9118 1083.45 55.013C1087.74 56.3155 1090.85 60.1437 1090.85 64.6584C1090.85 69.1555 1087.74 72.9793 1083.45 74.2862Z" fill="#D9D9D9"/>
<path d="M12.951 53C5.79956 53 0 58.3737 0 65C0 71.6263 5.79956 77 12.951 77C20.1025 77 25.9021 71.6263 25.9021 65C25.9021 58.3737 20.1064 53 12.951 53ZM13.1587 65.3958L11.8107 69.6076H19.0171C19.2208 69.6076 19.3854 69.7637 19.3854 69.9525C19.3854 69.9852 19.3815 70.0178 19.3697 70.0469L18.7428 72.0475C18.6801 72.2436 18.4841 72.3779 18.2647 72.3779H7.26513L9.12647 66.554L7.06919 67.1349L7.52375 65.7734L9.58495 65.1924L12.1987 57.0121C12.2574 56.816 12.4495 56.6781 12.6728 56.6781H15.4629C15.6666 56.6781 15.8312 56.8306 15.8352 57.0194C15.8352 57.052 15.8312 57.0811 15.8195 57.1138L13.625 64.0306L15.6823 63.4496L15.2395 64.833L13.1587 65.3958Z" fill="#D9D9D9"/>
<path d="M33.3906 56.6418H32.5833C32.4423 56.6345 32.3208 56.7325 32.313 56.8632V56.8669L30.24 72.1564C30.2243 72.3017 30.2753 72.3815 30.4399 72.3815H31.2432C31.3764 72.3997 31.4979 72.3162 31.5175 72.1927C31.5175 72.1818 31.5214 72.1673 31.5214 72.1564L33.6218 56.8741C33.6453 56.7071 33.5512 56.6418 33.3906 56.6418ZM37.5992 61.0496H36.7959C36.6587 61.0351 36.5372 61.1295 36.5216 61.2566C36.5216 61.2602 36.5216 61.2675 36.5216 61.2711L35.0246 72.1564C35.009 72.3053 35.103 72.3815 35.2519 72.3815H36.0552C36.1924 72.4033 36.3217 72.3162 36.3413 72.1891C36.3413 72.1782 36.3452 72.1673 36.3452 72.1564L37.8225 61.2784C37.8265 61.1295 37.7716 61.0496 37.5992 61.0496ZM72.7962 60.8717C70.6606 60.8281 68.7757 62.1643 68.2624 64.085C68.039 64.9492 67.8744 65.8278 67.7647 66.7138C67.6354 67.5852 67.561 68.4638 67.5414 69.3461C67.5218 70.2139 67.8823 71.0526 68.5406 71.6699C69.1911 72.2508 70.0845 72.5413 71.2209 72.5413C72.2594 72.5631 73.2743 72.2545 74.1011 71.6699C74.9123 71.0889 75.4883 70.272 75.7313 69.3461C75.9586 68.482 76.1231 67.6033 76.229 66.7174C76.3583 65.8387 76.4288 64.9528 76.4523 64.0632C76.4954 63.1955 76.1349 62.3495 75.4648 61.7395C74.7281 61.1368 73.772 60.8245 72.7962 60.8717ZM75.0612 65.6572C75.0103 66.0094 74.9672 66.3616 74.924 66.7138C74.7751 67.8357 74.638 68.6418 74.5243 69.121C74.3676 69.8073 73.964 70.4209 73.3762 70.8638C72.8041 71.2923 72.083 71.5247 71.3463 71.5138C70.0375 71.5936 68.905 70.6787 68.8188 69.466C68.811 69.3752 68.811 69.2844 68.8188 69.19C68.8267 68.7253 68.8619 68.2569 68.9286 67.7958C69.0069 67.2439 69.054 66.8917 69.0657 66.7392C69.2185 65.6608 69.3518 64.8584 69.4654 64.3356C69.6222 63.6493 70.0297 63.0357 70.6175 62.5927C71.1896 62.1643 71.9067 61.9319 72.6473 61.9428C73.9561 61.8629 75.0847 62.7815 75.1709 63.9942C75.1788 64.085 75.1788 64.1758 75.1709 64.2629C75.1631 64.7313 75.1278 65.1961 75.0612 65.6572ZM81.0371 61.0496H80.2377C80.0966 61.0424 79.9712 61.1404 79.9634 61.2711L78.4626 72.1564C78.439 72.3125 78.537 72.3815 78.6859 72.3815H79.4892C79.6303 72.3924 79.7518 72.2944 79.7635 72.1673C79.7635 72.1637 79.7635 72.1601 79.7635 72.1601L81.2409 61.2747C81.2605 61.1295 81.1938 61.0496 81.0371 61.0496ZM91.1707 61.6923C90.6181 61.1585 89.8462 60.8935 88.843 60.8935C88.2239 60.8862 87.6086 61.006 87.0404 61.2421C86.484 61.4781 86.002 61.8375 85.6376 62.2877C85.5709 62.3458 85.5357 62.3313 85.5357 62.2405L85.6611 61.2747C85.6807 61.1404 85.6141 61.0532 85.4612 61.0532H84.6618C84.5208 61.0424 84.3993 61.1404 84.3875 61.2675C84.3875 61.2711 84.3875 61.2711 84.3875 61.2747L82.9102 72.1601C82.8906 72.3017 82.9455 72.3852 83.1101 72.3852H83.9134C84.0544 72.3961 84.1798 72.298 84.1877 72.1673C84.1877 72.1637 84.1877 72.1637 84.1877 72.1601L85.2614 64.361C85.4142 63.6856 85.8021 63.072 86.3625 62.6181C86.9111 62.1752 87.6165 61.9392 88.3453 61.9501C88.9801 61.9247 89.5993 62.157 90.0382 62.5818C90.4771 63.0393 90.7043 63.6421 90.6652 64.2557C90.6691 64.4227 90.6612 64.5861 90.6377 64.7531L89.615 72.1637C89.5993 72.2182 89.615 72.2762 89.6541 72.3198C89.7012 72.367 89.7717 72.3924 89.8422 72.3888H90.6416C90.7827 72.3997 90.9042 72.3017 90.9159 72.1746C90.9159 72.1709 90.9159 72.1673 90.9159 72.1673L91.9426 64.5716C91.9779 64.2811 91.9936 64.0451 91.9936 63.8998C92.0484 63.0829 91.7506 62.295 91.1707 61.6923ZM38.1282 56.649C37.658 56.3949 37.0506 56.5437 36.7763 56.9831C36.502 57.4188 36.6626 57.9815 37.1368 58.2357C37.1564 58.2466 37.176 58.2575 37.1995 58.2647C37.6893 58.4862 38.281 58.3011 38.5201 57.8472C38.7473 57.4115 38.5788 56.8923 38.1282 56.649ZM81.6131 56.649C81.139 56.4021 80.5355 56.5582 80.269 56.9976C80.0026 57.4369 80.1711 57.9961 80.6452 58.243C80.6609 58.2502 80.6805 58.2611 80.6962 58.2684C81.186 58.4899 81.7777 58.3011 82.0168 57.8472C82.244 57.4115 82.0677 56.885 81.6131 56.649ZM62.3296 60.8717C61.2794 60.8499 60.2566 61.1658 59.4259 61.7613C58.6147 62.3422 58.0426 63.1628 57.7997 64.085C57.5802 64.9528 57.4117 65.8278 57.2981 66.7138C57.1727 67.5852 57.0943 68.4638 57.0708 69.3461C57.0473 70.2139 57.4117 71.0563 58.074 71.6699C58.7245 72.2508 59.6179 72.5413 60.7504 72.5413C61.7888 72.5631 62.8037 72.2545 63.6306 71.6699C64.4457 71.0926 65.0178 70.272 65.2568 69.3461L65.3234 69.0992C65.3391 69.0448 65.2999 68.9867 65.2411 68.9758C65.2333 68.9722 65.2215 68.9722 65.2137 68.9722H64.2262C64.1557 68.9685 64.093 69.0157 64.0734 69.0775V69.121C63.9166 69.8073 63.5091 70.4209 62.9213 70.8638C62.3492 71.2923 61.6321 71.5247 60.8954 71.5138C59.5866 71.5936 58.4541 70.6787 58.3679 69.466C58.36 69.3752 58.36 69.2844 58.3679 69.19C58.3757 68.7253 58.411 68.2569 58.4776 67.7958C58.5246 67.4436 58.5716 67.0914 58.6147 66.7392C58.7676 65.6608 58.8969 64.8584 59.0144 64.3356C59.1634 63.6457 59.567 63.0284 60.1508 62.5818C60.723 62.1534 61.4401 61.9247 62.1768 61.9319C63.4856 61.8484 64.6181 62.767 64.7043 63.9797C64.7121 64.0705 64.7121 64.1649 64.7043 64.2557V64.2702C64.7004 64.3646 64.7787 64.4445 64.8845 64.4481C64.8885 64.4481 64.8885 64.4481 64.8924 64.4481H65.8328C65.9112 64.4517 65.9778 64.3936 65.9818 64.321V64.0523C66.0249 63.1809 65.6643 62.3386 64.9903 61.7286C64.2615 61.1259 63.3053 60.8172 62.3296 60.8717ZM54.2455 61.7467C53.5166 61.1404 52.5566 60.8281 51.5808 60.8753C49.4452 60.8318 47.5603 62.1679 47.047 64.0887C46.8236 64.9564 46.659 65.8315 46.5493 66.7174C46.4043 67.5888 46.3259 68.4675 46.322 69.3498C46.3024 70.2175 46.6629 71.0563 47.3213 71.6735C47.9718 72.2545 48.8652 72.5449 49.9977 72.5449C51.0361 72.5667 52.0511 72.2581 52.8779 71.6735C53.693 71.0962 54.269 70.2756 54.508 69.3498L54.5746 69.1029C54.5903 69.0484 54.555 68.9903 54.4924 68.9758C54.4845 68.9722 54.4728 68.9722 54.4649 68.9722H53.4696C53.3991 68.9722 53.3364 69.0157 53.3168 69.0811V69.1247C53.16 69.8109 52.7564 70.4245 52.1647 70.8675C51.5887 71.2923 50.8676 71.5174 50.127 71.4992C48.8182 71.5791 47.6896 70.6605 47.5995 69.4478C47.5917 69.357 47.5917 69.2663 47.5995 69.1755C47.6034 68.7688 47.6348 68.3622 47.6896 67.9591L54.9234 65.8859C55.0606 65.8569 55.1546 65.7443 55.1546 65.6172C55.1977 65.2687 55.2251 64.6805 55.233 64.0741C55.2604 63.2064 54.9038 62.3676 54.2455 61.7467ZM53.9594 64.8802C53.9594 64.9455 53.9085 65.0036 53.8419 65.0218L47.8464 66.7392V66.7138C47.9953 65.6354 48.1324 64.833 48.2461 64.3101C48.4028 63.6239 48.8104 63.0103 49.3942 62.5673C49.9663 62.1389 50.6874 61.9101 51.4241 61.9174C52.1098 61.892 52.7721 62.1316 53.258 62.5782C53.9986 63.2499 54.0025 63.9688 53.9594 64.8802ZM43.5868 71.1797C43.6809 71.1325 43.7984 71.1652 43.8494 71.2523C43.869 71.285 43.8768 71.3177 43.8729 71.354L43.7749 72.1056C43.7593 72.2036 43.6887 72.2871 43.5907 72.3234C42.7874 72.6212 41.894 72.6321 41.0828 72.3561C40.1659 71.9676 39.9308 71.1289 40.064 70.0796L41.122 62.1062L41.2709 60.9588L41.6197 58.4209C41.6236 58.2938 41.7372 58.1921 41.8783 58.1958C41.8862 58.1958 41.8901 58.1958 41.8979 58.1958H42.6738C42.858 58.1958 42.8972 58.2902 42.8736 58.4209L42.3956 62.0191H44.9035C45.0485 62.0191 45.1151 62.0989 45.1033 62.2405L45.0328 62.7561C45.0328 62.8215 45.0054 62.8832 44.9583 62.9304C44.8996 62.9667 44.829 62.9849 44.7585 62.9812H42.2506L41.3728 69.5204C41.2827 70.2248 41.1808 70.8566 41.5687 71.2051C42.0938 71.6191 43.0735 71.4012 43.5868 71.1797Z" fill="#D9D9D9"/>
<path fill-rule="evenodd" clip-rule="evenodd" d="M1102.54 4.28444C1097.56 3.0148 1092.52 6.11508 1091.28 11.2021C1090.04 16.2891 1093.06 21.4435 1098.04 22.7132C1103.02 23.9828 1108.06 20.8825 1109.31 15.7956C1110.54 10.7086 1107.51 5.55408 1102.54 4.28444ZM1104.39 12.1427C1104.25 13.0665 1103.75 13.5136 1103.08 13.6696C1104 14.1589 1104.46 14.9055 1104.02 16.1963C1103.47 17.8033 1102.16 17.9383 1100.42 17.6009L1100.01 19.3387L1098.99 19.0772L1099.4 17.3731C1099.14 17.3056 1098.87 17.2339 1098.59 17.158L1098.18 18.8705L1097.16 18.609L1097.58 16.8796C1097.34 16.8163 1097.1 16.7488 1096.85 16.6856L1095.53 16.3481L1096.04 15.1544C1096.04 15.1544 1096.79 15.3569 1096.78 15.3442C1097.06 15.4201 1097.19 15.2261 1097.24 15.0954L1097.91 12.3663L1098.01 12.3958C1097.97 12.3789 1097.94 12.3663 1097.91 12.362L1098.38 10.4133C1098.4 10.1897 1098.32 9.91134 1097.91 9.80589C1097.92 9.79745 1097.17 9.61609 1097.17 9.61609L1097.44 8.50251L1098.85 8.86105V8.86948L1099.5 9.02555L1099.92 7.31301L1100.93 7.57032L1100.53 9.2491C1100.8 9.31237 1101.08 9.37565 1101.34 9.44314L1101.75 7.777L1102.77 8.03431L1102.35 9.74684C1103.63 10.2024 1104.58 10.8815 1104.39 12.1427Z" fill="#D9D9D9"/>
<path fill-rule="evenodd" clip-rule="evenodd" d="M1099.48 13.6106L1098.92 15.9052C1099.61 16.0824 1101.74 16.7784 1102.06 15.4876C1102.39 14.1336 1100.17 13.7878 1099.48 13.6106Z" fill="#D9D9D9"/>
<path fill-rule="evenodd" clip-rule="evenodd" d="M1100.24 10.4766L1099.73 12.5561C1100.31 12.7037 1102.08 13.3027 1102.37 12.1258C1102.67 10.8984 1100.82 10.6242 1100.24 10.4766Z" fill="#D9D9D9"/>
<path d="M1118.23 9.74686C1118.98 9.74686 1119.64 9.88606 1120.18 10.156C1120.73 10.4302 1121.19 10.7972 1121.55 11.2611C1121.91 11.7251 1122.17 12.2735 1122.35 12.8978C1122.52 13.5262 1122.6 14.1969 1122.6 14.9182C1122.6 16.0233 1122.41 17.0694 1122 18.0564C1121.62 19.0182 1121.06 19.8913 1120.37 20.6295C1118.9 22.1648 1116.92 23.0169 1114.87 22.9958C1114.73 22.9958 1114.48 22.9916 1114.13 22.9832C1113.72 22.9705 1113.32 22.9368 1112.92 22.8777C1112.43 22.806 1111.95 22.709 1111.47 22.5867C1110.97 22.4643 1110.49 22.2872 1110.02 22.0594L1114.09 4.57972L1117.74 4.00185L1116.28 10.2024C1116.59 10.059 1116.91 9.94932 1117.22 9.86917C1117.53 9.78903 1117.87 9.74686 1118.23 9.74686ZM1115.17 20.0389C1115.72 20.0389 1116.24 19.8997 1116.72 19.6298C1117.21 19.3598 1117.63 18.9929 1117.98 18.5373C1118.34 18.0775 1118.61 17.5629 1118.82 16.9851C1119.02 16.4072 1119.12 15.7998 1119.12 15.1839C1119.12 14.4163 1119 13.8131 1118.75 13.3828C1118.49 12.9484 1118.03 12.7332 1117.36 12.7332C1117.14 12.7332 1116.85 12.7754 1116.5 12.8556C1116.15 12.9357 1115.82 13.1087 1115.55 13.3617L1114 19.9461L1114.24 19.9925C1114.41 20.0263 1114.58 20.0432 1114.75 20.0432H1115.17V20.0389ZM1126.38 22.6584H1122.9L1125.84 10.0168H1129.34L1126.38 22.6584ZM1128.08 8.47299C1127.59 8.47299 1127.15 8.32537 1126.76 8.0301C1126.36 7.73484 1126.17 7.2835 1126.17 6.67188C1126.17 6.33444 1126.23 6.01808 1126.36 5.72282C1126.49 5.43177 1126.68 5.17025 1126.9 4.95513C1127.12 4.74 1127.37 4.56707 1127.66 4.43631C1127.95 4.30977 1128.26 4.24649 1128.59 4.24649C1129.07 4.24649 1129.51 4.39412 1129.91 4.68939C1130.3 4.98465 1130.49 5.4402 1130.49 6.0476C1130.49 6.38505 1130.43 6.70141 1130.3 7.00089C1130.17 7.29194 1129.99 7.55346 1129.77 7.76858C1129.54 7.98792 1129.28 8.16086 1129.01 8.28319C1128.71 8.41395 1128.4 8.47721 1128.08 8.47299Z" fill="#D9D9D9"/>
<path fill-rule="evenodd" clip-rule="evenodd" d="M1132.4 6.86589L1136.04 6.28801L1135.14 10.0126H1139.05L1138.34 12.9441H1134.46L1133.43 17.3647C1133.33 17.7359 1133.28 18.0775 1133.26 18.3981C1133.25 18.7187 1133.29 18.9971 1133.38 19.229C1133.48 19.4695 1133.66 19.6635 1133.89 19.769C1134.13 19.8997 1134.48 19.963 1134.94 19.963C1135.31 19.963 1135.68 19.925 1136.03 19.8533C1136.38 19.7816 1136.74 19.6804 1137.1 19.5538L1137.36 22.2956C1136.86 22.4812 1136.35 22.633 1135.83 22.7511C1135.28 22.8819 1134.63 22.941 1133.88 22.941C1132.8 22.941 1131.96 22.7764 1131.37 22.4517C1130.77 22.1226 1130.35 21.6713 1130.1 21.1019C1129.84 20.486 1129.73 19.8154 1129.77 19.1447C1129.8 18.4065 1129.91 17.6304 1130.1 16.8121L1132.4 6.86589ZM1138.9 17.6093C1138.9 16.521 1139.07 15.4918 1139.41 14.5301C1139.76 13.5684 1140.25 12.729 1140.9 12.0077C1141.54 11.2864 1142.32 10.7212 1143.24 10.2994C1144.15 9.88181 1145.18 9.67512 1146.31 9.67512C1147.01 9.67512 1147.64 9.74261 1148.2 9.8818C1148.75 10.021 1149.26 10.1982 1149.72 10.4217L1148.52 13.2141C1148.2 13.0833 1147.87 12.9652 1147.54 12.864C1147.14 12.7501 1146.72 12.6995 1146.31 12.7079C1145.14 12.7079 1144.23 13.1171 1143.54 13.9312C1142.86 14.7495 1142.52 15.8462 1142.52 17.2255C1142.52 18.0438 1142.69 18.706 1143.04 19.208C1143.39 19.7141 1144.02 19.9672 1144.94 19.9672C1145.78 19.963 1146.61 19.7943 1147.39 19.4653L1147.65 22.3251C1147.17 22.5107 1146.69 22.671 1146.19 22.7975C1145.66 22.9283 1145.03 23 1144.29 23C1143.32 23 1142.5 22.8524 1141.82 22.5655C1141.2 22.3082 1140.63 21.9117 1140.15 21.4014C1139.72 20.9163 1139.39 20.3257 1139.2 19.6804C1139 19.0097 1138.89 18.3095 1138.9 17.6093Z" fill="#D9D9D9"/>
<path d="M1154.36 22.9958C1153.53 22.9958 1152.81 22.865 1152.2 22.6077C1151.62 22.3757 1151.1 22.0088 1150.68 21.5237C1150.27 21.047 1149.96 20.4903 1149.77 19.8786C1149.56 19.1995 1149.46 18.4909 1149.47 17.778C1149.47 16.8163 1149.62 15.8546 1149.93 14.8929C1150.23 13.9312 1150.68 13.0665 1151.28 12.2945C1151.87 11.5269 1152.61 10.8984 1153.46 10.4049C1154.33 9.91556 1155.31 9.67091 1156.43 9.67091C1157.24 9.67091 1157.96 9.80167 1158.58 10.059C1159.2 10.3163 1159.7 10.679 1160.11 11.143C1160.5 11.607 1160.81 12.1554 1161.01 12.7881C1161.22 13.4208 1161.31 14.121 1161.31 14.8887C1161.31 15.8504 1161.17 16.8121 1160.87 17.7738C1160.58 18.7187 1160.13 19.596 1159.55 20.3679C1158.96 21.1525 1158.21 21.7936 1157.38 22.2534C1156.51 22.7511 1155.51 22.9958 1154.36 22.9958ZM1156.1 12.7079C1155.58 12.7079 1155.13 12.8598 1154.74 13.1635C1154.34 13.4672 1154.02 13.8552 1153.75 14.3192C1153.48 14.7916 1153.28 15.3105 1153.15 15.8462C1153.02 16.3608 1152.96 16.888 1152.95 17.4195C1152.95 18.2209 1153.08 18.8452 1153.33 19.2965C1153.58 19.7437 1154.03 19.9672 1154.69 19.9672C1155.21 19.9672 1155.66 19.8154 1156.06 19.5117C1156.45 19.208 1156.77 18.8241 1157.04 18.3559C1157.31 17.8919 1157.51 17.3815 1157.64 16.829C1157.77 16.2764 1157.84 15.7492 1157.84 15.2556C1157.84 14.4542 1157.71 13.8299 1157.46 13.3786C1157.21 12.9315 1156.76 12.7079 1156.1 12.7079ZM1165.11 22.6583H1161.63L1164.57 10.0168H1168.08L1165.11 22.6583ZM1166.8 8.47298C1166.33 8.47719 1165.87 8.32113 1165.49 8.03008C1165.1 7.73482 1164.9 7.28348 1164.9 6.67186C1164.9 6.33442 1164.97 6.01806 1165.1 5.7228C1165.23 5.42753 1165.41 5.17023 1165.63 4.95511C1165.85 4.73577 1166.11 4.55862 1166.39 4.43629C1166.68 4.30975 1166.99 4.24648 1167.32 4.24648C1167.81 4.24648 1168.24 4.3941 1168.64 4.68937C1169.03 4.98463 1169.23 5.44018 1169.23 6.04759C1169.23 6.38503 1169.16 6.70139 1169.03 7.00087C1168.9 7.29192 1168.72 7.55344 1168.5 7.76857C1168.28 7.98791 1168.02 8.16085 1167.74 8.28317C1167.44 8.41393 1167.12 8.47719 1166.8 8.47298Z" fill="#D9D9D9"/>
<path fill-rule="evenodd" clip-rule="evenodd" d="M1170.58 10.5905C1170.85 10.5145 1171.14 10.4175 1171.46 10.3163C1172.25 10.0716 1173.07 9.90292 1173.89 9.81434C1174.38 9.75528 1174.94 9.72997 1175.57 9.72997C1177.4 9.72997 1178.67 10.2741 1179.37 11.3666C1180.07 12.4548 1180.18 13.948 1179.73 15.8377L1178.13 22.6668H1174.63L1176.18 15.9812C1176.27 15.5636 1176.35 15.1586 1176.4 14.7663C1176.46 14.4247 1176.45 14.0746 1176.39 13.7329C1176.33 13.4461 1176.18 13.1888 1175.96 13.0116C1175.73 12.826 1175.38 12.7332 1174.91 12.7332C1174.45 12.7332 1173.99 12.7839 1173.52 12.8809L1171.24 22.6626H1167.73L1170.58 10.5905Z" fill="#D9D9D9"/>
<path fill-rule="evenodd" clip-rule="evenodd" d="M626.254 8.12403C627.681 8.12403 628.84 7.00932 628.84 5.63701C628.84 4.26471 627.681 3.14999 626.254 3.14999C624.827 3.14999 623.668 4.26471 623.668 5.63701C623.668 7.00932 624.827 8.12403 626.254 8.12403ZM606.448 9.46525C606.333 9.74504 605.493 12.0278 603.461 14.3949V4.28248L598.049 5.30837V23.6368H603.461V17.97C605.026 20.2305 605.802 23.6368 605.802 23.6368H612.285C611.643 21.0743 608.84 16.3445 608.84 16.3445C611.357 13.2757 612.465 10.0026 612.641 9.46081H606.448V9.46525ZM620.676 9.27428C615.827 9.42528 613.366 11.517 613.366 15.6739V23.6413H618.653V17.1439C618.653 14.6525 618.99 13.5866 622.066 13.4844V9.34534C621.548 9.23875 620.676 9.27428 620.676 9.27428ZM588.975 11.4815C588.31 11.4415 586.777 11.3438 586.777 10.0159C586.777 8.41271 588.984 8.41271 589.815 8.41271C591.275 8.41271 593.159 8.82573 594.507 9.21654C594.507 9.21654 595.26 9.46969 595.897 9.73172L595.957 9.74504V5.35278L595.874 5.33058C594.285 4.7932 592.434 4.28248 589.007 4.28248C583.096 4.28248 581 7.59554 581 10.4334C581 12.0677 581.73 15.9182 588.499 16.3623C589.072 16.3978 590.596 16.4822 590.596 17.8545C590.596 18.987 589.349 19.6576 587.252 19.6576C584.953 19.6576 582.722 19.0936 581.369 18.5606V23.0817C583.397 23.5924 585.682 23.85 588.361 23.85C594.142 23.85 596.728 20.7146 596.728 17.6102C596.733 14.084 593.833 11.7968 588.975 11.4815ZM623.631 23.6368H628.877V9.47857H623.631V23.6368ZM638.754 5.18402V23.6368H644V4.28248L638.754 5.18402ZM631.098 5.18402L636.339 4.28248V23.6368H631.098V5.18402Z" fill="#D9D9D9"/>
<path d="M751.435 12.3789C751.42 11.9492 751.226 11.727 750.847 11.7121H748.826C748.347 11.7418 748.101 12.0134 748.091 12.5271V16.3053C748.101 16.8337 748.376 17.1054 748.907 17.1202H750.756C750.951 17.1202 751.107 17.0461 751.235 16.893C751.368 16.7794 751.43 16.6312 751.43 16.4534V12.3789H751.435ZM745.507 11.8405C745.521 10.8923 745.72 10.1762 746.114 9.68227C746.318 9.47483 746.579 9.30197 746.887 9.16368C747.214 9.01058 747.527 8.9365 747.831 8.9365H751.534C753.17 8.95132 754 9.87982 754.024 11.7319V17.4214C754.01 18.0783 753.763 18.6463 753.289 19.1254C752.815 19.6242 752.25 19.881 751.596 19.8958H748.091V24H745.507V11.8405Z" fill="#D9D9D9"/>
<path d="M758.704 16.5769C758.704 16.735 758.775 16.8584 758.913 16.9523C759.036 17.0659 759.188 17.1251 759.382 17.1251H761.374C761.825 17.1251 762.057 16.9424 762.071 16.5769V15.8015C762.071 15.3768 761.834 15.1644 761.355 15.1644H759.382C759.122 15.1644 758.941 15.2088 758.842 15.2928C758.752 15.3916 758.704 15.5891 758.704 15.8855V16.5769ZM762.067 12.3097C762.081 11.8949 761.848 11.6973 761.369 11.7121H756.153V8.94144H762.029C763.741 8.97107 764.608 9.83043 764.637 11.5343V17.3326C764.623 18.0635 764.404 18.671 763.987 19.15C763.551 19.6489 762.987 19.9008 762.294 19.9008H758.742C757.011 19.8859 756.139 19.0611 756.11 17.4313V15.194C756.125 13.4852 756.959 12.6209 758.619 12.5913H762.067V12.3097Z" fill="#D9D9D9"/>
<path d="M771.916 21.2244C772.12 21.2096 772.3 21.1355 772.442 20.9972C772.58 20.8688 772.651 20.7206 772.651 20.5527V19.8958H769.332C768.9 19.8958 768.554 19.8365 768.293 19.723C768.018 19.6192 767.748 19.4266 767.477 19.15C767.217 18.8587 767.032 18.5524 766.918 18.2314C766.799 17.94 766.742 17.5696 766.742 17.1202V8.9365H769.332V16.2411C769.332 16.8288 769.559 17.1202 770.024 17.1202H771.854C772.073 17.1202 772.262 17.0461 772.419 16.893C772.57 16.7646 772.646 16.6115 772.646 16.4337V8.9365H775.217V21.012C775.202 21.9059 774.984 22.6221 774.557 23.1653C774.126 23.7086 773.538 23.9852 772.789 24H766.742V21.2293H771.916" fill="#D9D9D9"/>
<path d="M777.256 17.1251H781.875C782.297 17.1103 782.515 16.9325 782.529 16.5967V16.3497C782.529 16.2756 782.51 16.1966 782.467 16.1127C782.363 15.9052 782.24 15.8015 782.088 15.8015H779.798C779.119 15.7867 778.541 15.5447 778.052 15.0755C777.559 14.6409 777.308 14.1075 777.294 13.4802V11.4109C777.322 9.79586 778.161 8.97602 779.821 8.94638H785.175V11.7171H780.637C780.106 11.7171 779.835 11.885 779.835 12.2258V12.4925C779.835 12.8431 780.111 13.0209 780.656 13.0209H782.937C783.544 13.0358 784.065 13.2778 784.497 13.7519C784.933 14.226 785.161 14.794 785.175 15.4508V17.4708C785.161 18.0388 784.91 18.6068 784.421 19.1698C784.184 19.4464 783.942 19.639 783.7 19.7477C783.449 19.8464 783.108 19.8958 782.676 19.8958H777.256V17.1251Z" fill="#D9D9D9"/>
<path d="M789.604 16.5769C789.604 16.735 789.675 16.8584 789.813 16.9523C789.932 17.0659 790.088 17.1251 790.282 17.1251H792.274C792.725 17.1251 792.957 16.9424 792.971 16.5769V15.8015C792.971 15.3768 792.729 15.1644 792.255 15.1644H790.282C790.022 15.1644 789.846 15.2088 789.747 15.2928C789.656 15.3916 789.604 15.5891 789.604 15.8855V16.5769ZM792.971 12.3097C792.981 11.8949 792.748 11.6973 792.269 11.7121H787.053V8.94144H792.929C794.636 8.97107 795.508 9.83043 795.532 11.5343V17.3326C795.518 18.0635 795.3 18.671 794.882 19.15C794.446 19.6489 793.882 19.9008 793.189 19.9008H789.633C787.907 19.8859 787.029 19.0611 787.006 17.4313V15.194C787.015 13.4852 787.854 12.6209 789.514 12.5913H792.962V12.3097" fill="#D9D9D9"/>
<path d="M797.642 7.36594C797.657 6.61524 797.922 6.01764 798.444 5.5682C798.946 5.10889 799.61 4.87677 800.426 4.86195H802.071V7.53881H801.076C800.53 7.55362 800.251 7.82526 800.236 8.35371V8.94144H802.071V11.7171H800.236V19.9008H797.642V7.36594Z" fill="#D9D9D9"/>
<path d="M809.441 12.2603V12.1961C809.441 12.0529 809.384 11.9344 809.275 11.8405C809.156 11.7517 809.005 11.7121 808.829 11.7121H807.027C806.795 11.7121 806.61 11.7813 806.463 11.9196C806.283 12.048 806.192 12.2159 806.192 12.4233V13.5346L809.441 12.2603ZM806.23 16.1769V16.3497C806.23 16.572 806.287 16.7498 806.396 16.8732C806.477 17.0362 806.586 17.1202 806.733 17.1202H812.054V19.8909H806.396C805.879 19.8909 805.476 19.8415 805.192 19.7378C804.879 19.6291 804.604 19.4563 804.357 19.2143C804.073 18.9229 803.878 18.6216 803.779 18.3154C803.67 17.9944 803.617 17.5696 803.617 17.0412L803.594 11.4948C803.622 9.82055 804.462 8.96614 806.117 8.9365H809.612C811.224 8.96614 812.044 9.85019 812.068 11.5887V13.7815L806.23 16.1769Z" fill="#D9D9D9"/>
<path d="M817.559 19.8958C817.166 19.8958 816.81 19.8563 816.483 19.7872C816.142 19.7279 815.805 19.5649 815.459 19.2883C815.103 18.9673 814.856 18.6018 814.724 18.2067C814.581 17.8116 814.51 17.3671 814.51 16.8683V11.6924C814.496 11.2726 814.534 10.9022 814.629 10.5811C814.714 10.2601 814.899 9.94897 815.174 9.63782C815.492 9.31679 815.81 9.09948 816.151 8.99577C816.478 8.91181 816.848 8.86736 817.261 8.86736H821.23V9.51435H817.351C816.668 9.51435 816.127 9.66251 815.734 9.9539C815.331 10.2749 815.127 10.8231 815.127 11.6035V16.7794C815.127 17.1449 815.179 17.5005 815.288 17.8413C815.397 18.1771 815.577 18.4734 815.838 18.7302C816.123 18.9525 816.402 19.0908 816.677 19.15C816.962 19.2142 817.27 19.2488 817.593 19.2488H821.296V19.8958H817.559Z" fill="#D9D9D9"/>
<path d="M831.449 13.1839H826.242C825.621 13.1987 825.133 13.4012 824.777 13.7865C824.412 14.1816 824.232 14.7199 824.232 15.4015V17.051C824.232 17.3721 824.265 17.6635 824.331 17.9252C824.398 18.2018 824.559 18.4487 824.82 18.6611C825.27 19.0513 825.768 19.2389 826.313 19.2389H829.467C830.785 19.2241 831.449 18.5031 831.449 17.0658V13.1839ZM832.066 16.9127C832.066 17.3276 832.037 17.6931 831.985 18.0191C831.9 18.3697 831.729 18.7055 831.468 19.0266C830.923 19.6242 830.249 19.9156 829.448 19.9008H826.351C825.545 19.9008 824.896 19.6489 824.388 19.15C823.871 18.6562 823.61 17.9746 823.61 17.0955V15.4262C823.634 13.5445 824.535 12.5814 826.309 12.5369H831.468V11.806C831.468 11.2034 831.302 10.6799 830.97 10.2255C830.757 9.92921 830.51 9.7366 830.226 9.63288C829.941 9.55386 829.619 9.51435 829.258 9.51435H823.634V8.86736H828.969C829.458 8.86736 829.899 8.90193 830.297 8.97107C830.501 9.01552 830.69 9.09454 830.861 9.21801C831.041 9.33161 831.212 9.49953 831.373 9.72178C831.852 10.3638 832.085 11.1047 832.075 11.9393V16.9127" fill="#D9D9D9"/>
<path d="M837.889 9.51435C836.447 9.54398 835.731 10.3638 835.76 11.9788V19.8958H835.139V11.9838C835.11 9.90452 836.059 8.86736 837.989 8.86736H838.676V9.51435H837.889Z" fill="#D9D9D9"/>
<path d="M848.379 9.51928H843.471C843.115 9.51928 842.802 9.5588 842.513 9.63782C842.214 9.70696 841.925 9.89464 841.654 10.2058C841.394 10.4873 841.232 10.7639 841.166 11.0405C841.076 11.322 841.033 11.6578 841.047 12.048V17.0955C841.047 17.9351 841.28 18.508 841.754 18.8142C841.986 18.9574 842.242 19.0611 842.532 19.1352C842.816 19.2143 843.139 19.2538 843.49 19.2538H845.633C846.434 19.2538 847.089 19.0611 847.592 18.6759C848.099 18.3104 848.355 17.6832 848.374 16.7893V9.51928H848.379ZM848.995 16.8337C848.938 18.9229 847.881 19.9452 845.813 19.9057H843.513C843.03 19.9057 842.593 19.8612 842.209 19.7773C841.816 19.6686 841.436 19.4217 841.071 19.0266C840.796 18.6759 840.621 18.3203 840.549 17.9548C840.455 17.5894 840.412 17.1844 840.426 16.7448V12.0332C840.455 9.90946 841.479 8.85748 843.509 8.87229H848.379V5.29657H849V16.8337" fill="#D9D9D9"/>
<path d="M731.114 8.52164C731.318 8.4278 731.522 8.35372 731.726 8.30927C732.101 6.44732 733.68 5.05456 735.577 5.05456C737.474 5.05456 739.058 6.45226 739.427 8.30927C740.011 8.42286 740.49 8.6698 740.864 9.03528C740.879 8.67968 740.864 8.33397 740.826 8.01294C740.585 5.20273 738.323 3 735.567 3C732.727 3 730.417 5.34596 730.294 8.2747C730.28 8.52658 730.27 8.79327 730.28 9.06491C730.522 8.85748 730.792 8.66981 731.114 8.52164Z" fill="#D9D9D9"/>
<path d="M738.659 8.94144H732.328C732.025 8.94144 731.707 9.01552 731.385 9.16863C731.072 9.31186 730.816 9.48472 730.607 9.68721C730.213 10.1811 730.014 10.8972 730 11.8455V16.9967C730.014 17.945 730.213 18.6611 730.607 19.15C730.811 19.3575 731.072 19.5303 731.385 19.6736C731.712 19.8217 732.025 19.8958 732.328 19.8958H738.654C740.291 19.881 741.12 18.9476 741.144 17.1004V11.7319C741.125 9.88476 740.291 8.95625 738.659 8.94144Z" fill="#D9D9D9"/>
<path d="M178.473 13.2712C178.473 19.4951 173.426 24.5419 167.202 24.5419C164.676 24.5419 162.225 23.6934 160.237 22.1312C157.516 19.996 155.929 16.7307 155.932 13.2712C155.929 9.81172 157.516 6.54636 160.237 4.41119C165.13 0.563515 172.215 1.41195 176.062 6.30529C177.625 8.29331 178.473 10.7447 178.473 13.2712Z" stroke="#D9D9D9" stroke-width="2" stroke-miterlimit="10"/>
<path d="M164.541 13.2712C164.541 19.4951 159.495 24.5419 153.271 24.5419C150.744 24.5419 148.293 23.6934 146.305 22.1312C143.584 19.996 141.997 16.7307 142 13.2712C141.997 9.81172 143.584 6.54636 146.305 4.41119C151.198 0.563515 158.283 1.41195 162.131 6.30529C163.693 8.29331 164.541 10.7447 164.541 13.2712Z" stroke="#D9D9D9" stroke-width="2" stroke-miterlimit="10"/>
<path d="M36.5612 18.966C34.7413 18.9951 32.9444 18.5759 31.3311 17.7409L30.413 21.9806C32.2132 22.6706 34.1314 23.0156 36.0628 22.9995C41.4076 22.9962 44.8998 20.346 44.9457 16.3867C44.9752 11.2732 37.8203 10.9959 37.8203 8.70999C37.8367 8.02646 38.5024 7.28168 39.9845 7.09468C41.7093 6.93992 43.4406 7.24299 45.0047 7.96843L45.8933 3.86085C44.3686 3.29662 42.752 3.00645 41.1223 3C36.0988 3 32.5313 5.63736 32.5313 9.39351C32.5313 12.176 34.9905 13.6913 36.9743 14.6521C38.9581 15.6129 39.6107 16.2094 39.6107 17.0702C39.5221 18.3696 38.0433 18.966 36.5612 18.966Z" fill="#D9D9D9"/>
<path d="M13.2735 16.4899L11.1257 5.30205C10.9487 4.16715 9.95513 3.32564 8.78452 3.32242H0.118045L0 3.89309C1.73789 4.23485 3.42331 4.78618 5.02347 5.54064C5.70551 5.85661 6.16785 6.50466 6.23671 7.24622L10.2371 22.6996H15.5983L23.9107 3.38045H18.5757L13.2735 16.4899Z" fill="#D9D9D9"/>
<path d="M21.8351 22.6964H26.9766L31.1245 3.35143H26.0421L21.8351 22.6964Z" fill="#D9D9D9"/>
<path d="M54.5434 3.32242C53.5859 3.32564 52.7268 3.90276 52.3792 4.77974L44.7489 22.6964H50.0806L51.1463 19.7817H57.665L58.288 22.6964L63 22.6674L58.8979 3.32242H54.5434ZM52.5301 15.8515L55.2123 8.58424L56.7534 15.8515H52.5301Z" fill="#D9D9D9"/>
</g>
</svg>
